<svg width="44" height="43" viewBox="0 0 44 43" fill="none" xmlns="http://www.w3.org/2000/svg">
<g clip-path="url(#clip0_607_2242)">
<path d="M12.7058 14.0033C13.9769 14.0066 15.198 13.5015 16.1008 12.5985C17.0036 11.6955 17.5138 10.4684 17.5193 9.18762C17.5249 7.90688 17.0258 6.6753 16.1307 5.76448C15.2368 4.85365 14.0201 4.33733 12.748 4.3295C11.477 4.32168 10.2536 4.82236 9.3475 5.72201C8.44137 6.62166 7.92786 7.84653 7.91676 9.12839C7.91344 10.4136 8.41475 11.6485 9.31201 12.5616C10.2093 13.4758 11.4293 13.9943 12.7047 14.0044L12.7058 14.0033ZM12.7058 6.9357C13.2937 6.93235 13.8593 7.1648 14.2774 7.58278C14.6956 8.00075 14.9307 8.56848 14.9318 9.1608C14.9318 9.75312 14.7 10.3231 14.2841 10.7422C13.8682 11.1613 13.3036 11.396 12.7158 11.3948C12.128 11.3937 11.5635 11.1568 11.1498 10.7355C10.7361 10.3141 10.5043 9.7453 10.5076 9.15186C10.5109 8.56513 10.7438 8.00299 11.1553 7.58837C11.5668 7.17374 12.1247 6.93905 12.7069 6.9357H12.7058Z" fill="white"/>
<path d="M34.6769 27.9283C34.4384 27.5897 34.0536 27.3863 33.6421 27.3807C33.2839 27.3818 32.9412 27.5327 32.6972 27.7976L28.466 31.9829C28.2009 32.2299 28.05 32.5775 28.05 32.9407C28.05 33.3039 28.2009 33.6526 28.466 33.8995C28.7089 34.1465 29.0405 34.2851 29.3854 34.2851C29.7303 34.2851 30.0608 34.1465 30.3037 33.8995L32.3478 31.8398V36.508C32.3478 36.8533 32.4842 37.1852 32.7271 37.43C32.97 37.6747 33.2994 37.8122 33.6421 37.8122C33.9848 37.8122 34.3142 37.6747 34.5571 37.43C34.8 37.1852 34.9364 36.8533 34.9364 36.508V31.879L36.864 33.8213C37.3687 34.3265 38.1838 34.3265 38.6885 33.8213C38.9336 33.5766 39.0711 33.2435 39.0711 32.896C39.0711 32.5484 38.9336 32.2154 38.6885 31.9695L34.6769 27.9283Z" fill="white"/>
<path d="M26.3055 25.2035C24.6862 26.8497 23.657 28.991 23.3808 31.2921H4.67151C4.11696 31.2854 3.58681 31.0585 3.19641 30.6606C2.80601 30.2628 2.58752 29.7263 2.58752 29.1664V28.8535L10.8037 20.665C11.417 20.0637 12.2244 19.7072 13.0784 19.6592C13.9324 19.6111 14.7742 19.876 15.4497 20.4035L17.5337 22.4632L17.6889 22.5939C18.1093 22.8979 18.6139 23.0622 19.1319 23.0622C19.6498 23.0622 20.1534 22.899 20.5748 22.5939L27.2904 15.9443C28.1011 15.1151 29.1226 14.5261 30.2439 14.2434C31.3652 13.9606 32.5408 13.9942 33.6444 14.3406C34.3387 14.572 34.9875 14.9251 35.5598 15.3833L36.2585 16.074V16.9479C36.2585 17.6677 36.8375 18.2521 37.5528 18.2521C38.2682 18.2521 38.846 17.6677 38.846 16.9479V4.70708C38.8427 3.45092 38.3425 2.24729 37.4563 1.3644C36.5668 0.480394 35.3679 -0.0102239 34.1213 -0.000165679H4.67151C3.43376 0.0065398 2.25035 0.50498 1.37528 1.38675C0.501311 2.2674 0.00665457 3.46098 0 4.70708V29.1675C0 30.4181 0.491329 31.6184 1.3664 32.5046C2.24148 33.392 3.42932 33.8938 4.67151 33.9005H23.3819C23.7823 37.0409 25.5779 39.8281 28.2619 41.4766C30.946 43.125 34.2267 43.4547 37.1802 42.3751C40.1348 41.2955 42.4417 38.9207 43.451 35.9222C44.4614 32.9237 44.0643 29.6246 42.373 26.9559C40.6816 24.2871 37.8789 22.5369 34.7535 22.1994C31.6292 21.8608 28.5215 22.9717 26.3066 25.218V25.2046L26.3055 25.2035ZM4.6704 2.60827H34.1202C34.6758 2.60491 35.2104 2.82396 35.6064 3.21735C36.0023 3.61073 36.2264 4.14717 36.2297 4.70708V12.7648C35.6596 12.4027 35.0474 12.1133 34.4052 11.9043C32.8658 11.4036 31.221 11.3377 29.6472 11.7121C28.0734 12.0865 26.6316 12.8878 25.477 14.0288L19.0975 20.3521L18.4897 19.7519L17.5326 18.8132C16.3824 17.6956 14.8474 17.072 13.2492 17.072C11.651 17.072 10.1161 17.6956 8.96592 18.8132L2.58641 25.189V4.70708C2.58974 4.15164 2.81045 3.61968 3.20085 3.22629C3.59125 2.8329 4.11918 2.61162 4.6704 2.60715V2.60827ZM39.1155 38.1115C37.6593 39.5778 35.684 40.4003 33.6255 40.3992C31.567 40.3992 29.5929 39.5745 28.1377 38.1071C26.6826 36.6408 25.8641 34.6504 25.8641 32.5762C25.8641 30.5019 26.6815 28.5126 28.1377 27.0453C29.5929 25.579 31.567 24.7542 33.6255 24.7531C35.684 24.7531 37.6582 25.5756 39.1155 27.0419C40.5729 28.5093 41.3925 30.5008 41.3925 32.5762C41.3925 34.6515 40.574 36.643 39.1155 38.1115Z" fill="white"/>
</g>
<defs>
<clipPath id="clip0_607_2242">
<rect width="44" height="43" fill="white"/>
</clipPath>
</defs>
</svg>
