<?xml version="1.0" encoding="UTF-8"?>
<!-- Generator: Adobe Illustrator 27.2.0, SVG Export Plug-In . SVG Version: 6.00 Build 0)  -->
<svg xmlns="http://www.w3.org/2000/svg" xmlns:xlink="http://www.w3.org/1999/xlink" version="1.1" id="Capa_1" x="0px" y="0px" viewBox="0 0 512.056 512.056" style="enable-background:new 0 0 512.056 512.056;" xml:space="preserve" width="512" height="512">
<g>
	<g>
		<path d="M397.948,410.327h-34.857c-14.579,0.541-14.568,21.464,0,22h6.429v68.674c0.541,14.579,21.464,14.568,22,0v-68.674h6.429    C412.528,431.786,412.517,410.863,397.948,410.327z"/>
		<path d="M303.335,512.001h-34.857c-6.075,0-11-4.925-11-11v-79.674c0.541-14.579,21.464-14.568,22,0v68.674h23.857    C317.914,490.542,317.903,511.465,303.335,512.001z"/>
		<path d="M233.619,512.001c-6.075,0-11-4.925-11-11v-18.879h-17.837v18.879c-0.541,14.579-21.464,14.568-22,0v-59.756    c1.56-40.972,60.293-40.94,61.837,0v29.562c0.006,0.209,0.006,0.421,0,0.63v29.564    C244.619,507.076,239.695,512.001,233.619,512.001z M204.782,460.122h17.837v-18.877c-0.45-11.818-17.392-11.809-17.837,0V460.122    z"/>
		<path d="M333.213,512.001c-6.075,0-11-4.925-11-11v-79.674c0.541-14.579,21.464-14.568,22,0v79.674    C344.213,507.076,339.288,512.001,333.213,512.001z"/>
		<path d="M139.006,512.001c-17.048,0-30.918-13.87-30.918-30.918v-59.756c0.541-14.579,21.464-14.568,22,0v59.756    c0.45,11.818,17.391,11.809,17.837,0v-59.756c0.541-14.579,21.464-14.568,22,0v59.756    C169.924,498.131,156.054,512.001,139.006,512.001z"/>
		<path d="M95.229,441.244c-1.559-40.971-60.292-40.94-61.837,0v39.838c-0.375,22.037,23.762,37.568,43.601,28.186    c4.335,3.81,10.906,3.621,15.014-0.49c4.122-4.121,4.278-10.693,0.49-15.014c1.75-3.873,2.732-8.164,2.732-12.682V441.244z     M55.392,481.082v-39.838c0.45-11.818,17.391-11.809,17.837,0v38.846c-2.459,0.232-4.854,1.289-6.737,3.172    c-1.868,1.868-2.922,4.242-3.166,6.68C58.871,489.451,55.392,485.667,55.392,481.082z"/>
		<path d="M467.663,410.326c-6.075,0-11,4.925-11,11v29.877c-0.45,11.818-17.391,11.809-17.837,0v-29.877    c-0.541-14.579-21.464-14.568-22,0v29.877c0,13.175,8.286,24.445,19.918,28.889v20.908c0.541,14.579,21.464,14.568,22,0v-20.908    c11.632-4.444,19.918-15.714,19.918-28.889v-29.877C478.663,415.251,473.738,410.326,467.663,410.326z"/>
		<path d="M194.071,341.652c0-0.039-0.005-0.077-0.006-0.116v-39.721c-0.541-14.579-21.464-14.568-22,0v28.837h-17.838v-28.837    c-0.541-14.579-21.464-14.568-22,0v79.674c0.541,14.579,21.464,14.568,22,0v-28.837h17.838v28.837    c0.541,14.579,21.464,14.568,22,0v-39.721C194.065,341.728,194.071,341.691,194.071,341.652z"/>
		<path d="M272.698,392.488c-17.048,0-30.918-13.87-30.918-30.918v-39.838c0.249-32.322,43.604-42.749,58.458-14.028    c2.768,5.408,0.627,12.036-4.78,14.804c-5.407,2.769-12.035,0.628-14.804-4.78c-4.235-8.331-16.84-5.304-16.874,4.004v39.838    c0.45,11.818,17.392,11.808,17.837,0v-3.756c-13.777-1.694-12.902-21.54,1.041-21.951h9.959c6.075,0,11,4.925,11,11v14.707    C303.617,378.619,289.747,392.488,272.698,392.488z"/>
		<path d="M378.326,341.652c0-0.082-0.01-0.161-0.012-0.242v-39.595c-0.541-14.579-21.464-14.568-22,0v28.837h-17.838v-28.837    c-0.541-14.579-21.464-14.568-22,0v79.674c0.541,14.579,21.464,14.568,22,0v-28.837h17.838v28.837    c0.541,14.579,21.464,14.568,22,0v-39.595C378.315,341.812,378.326,341.733,378.326,341.652z"/>
		<path d="M217.923,392.488c-6.075,0-11-4.925-11-11v-79.674c0.541-14.579,21.464-14.568,22,0v79.674    C228.923,387.564,223.998,392.488,217.923,392.488z"/>
		<path style="fill:#33CCCC;" d="M333.691,261.024c-1.68,0-3.366-0.384-4.924-1.164l-72.739-36.421l-72.739,36.421    c-7.768,4.052-17.254-2.843-15.801-11.48l12.162-80.433l-57.116-57.923c-2.88-2.92-3.896-7.201-2.635-11.103    c1.26-3.903,4.586-6.781,8.63-7.466l86.085-14.586l31.367-70.347c1.721-3.859,5.499-6.392,9.723-6.516    c4.236-0.135,8.145,2.182,10.089,5.933l37.439,72.22l80.254,13.29c4.054,0.671,7.395,3.545,8.665,7.453    c1.27,3.908,0.256,8.197-2.629,11.123l-57.116,57.923l12.162,80.433c0.614,4.062-1.087,8.129-4.411,10.544    C338.242,260.315,335.973,261.024,333.691,261.024z M256.028,200.137c1.688,0,3.375,0.388,4.925,1.164l58.69,29.387l-9.812-64.898    c-0.518-3.428,0.61-6.9,3.044-9.368l46.085-46.737l-64.754-10.723c-3.42-0.566-6.374-2.712-7.969-5.789L256.774,36.34    l-24.466,54.869c-1.499,3.362-4.58,5.751-8.209,6.366l-71.069,12.041l46.152,46.806c2.434,2.468,3.562,5.94,3.044,9.368    l-9.812,64.898l58.69-29.387C252.653,200.525,254.341,200.137,256.028,200.137z"/>
		<path style="fill:#33CCCC;" d="M117.086,261.024c-1.68,0-3.367-0.384-4.924-1.164l-35.585-17.819L40.99,259.86    c-3.674,1.84-8.067,1.479-11.391-0.936c-3.324-2.415-5.025-6.482-4.411-10.544l5.95-39.35L3.196,180.691    c-2.885-2.925-3.899-7.215-2.629-11.122c1.27-3.908,4.611-6.782,8.665-7.453l39.263-6.502l18.316-35.332    c3.962-7.858,15.571-7.856,19.531,0l18.316,35.332l39.263,6.502c4.054,0.671,7.395,3.545,8.665,7.453    c1.27,3.907,0.256,8.197-2.629,11.122l-27.943,28.338l5.95,39.35c0.614,4.062-1.087,8.129-4.411,10.544    C121.637,260.315,119.368,261.024,117.086,261.024z M76.576,218.739c1.688,0,3.375,0.388,4.925,1.164l21.537,10.784l-3.601-23.815    c-0.518-3.428,0.61-6.899,3.044-9.368l16.912-17.15l-23.763-3.935c-3.421-0.566-6.374-2.712-7.969-5.79l-11.085-21.384    L65.49,170.629c-1.595,3.078-4.548,5.224-7.969,5.79l-23.763,3.935l16.912,17.151c2.434,2.468,3.562,5.94,3.044,9.368    l-3.601,23.815l21.537-10.784C73.201,219.128,74.888,218.739,76.576,218.739z"/>
		<path style="fill:#33CCCC;" d="M475.99,261.024c-1.68,0-3.367-0.384-4.924-1.164l-35.586-17.819l-35.585,17.819    c-3.674,1.84-8.067,1.479-11.391-0.936c-3.324-2.415-5.025-6.482-4.411-10.544l5.95-39.351l-27.943-28.338    c-2.885-2.925-3.899-7.215-2.629-11.122c1.27-3.908,4.611-6.782,8.665-7.453l39.263-6.502l18.316-35.332    c3.962-7.858,15.57-7.856,19.531,0l18.317,35.332l39.263,6.502c4.054,0.671,7.395,3.545,8.664,7.453    c1.27,3.907,0.256,8.197-2.629,11.122l-27.943,28.338l5.95,39.35c0.614,4.062-1.087,8.129-4.411,10.544    C480.542,260.315,478.272,261.024,475.99,261.024z M435.48,218.739c1.688,0,3.375,0.388,4.925,1.164l21.538,10.784l-3.601-23.815    c-0.518-3.428,0.61-6.899,3.044-9.368l16.912-17.151l-23.763-3.935c-3.42-0.566-6.374-2.712-7.969-5.79l-11.086-21.384    l-11.085,21.384c-1.595,3.078-4.548,5.224-7.969,5.79l-23.763,3.935l16.912,17.151c2.434,2.468,3.562,5.94,3.044,9.368    l-3.601,23.815l21.537-10.784C432.105,219.128,433.792,218.739,435.48,218.739z"/>
	</g>
</g>















</svg>
