<svg width="12" height="12" viewBox="0 0 12 12" fill="none" xmlns="http://www.w3.org/2000/svg">
<path fill-rule="evenodd" clip-rule="evenodd" d="M2.19514 0H9.80486C10.4098 0 10.9586 0.247286 11.3546 0.6435C11.7527 1.04164 12 1.59043 12 2.19514V9.80486C12 10.4098 11.7527 10.9586 11.3546 11.3546C10.9564 11.7527 10.4076 12 9.80486 12H2.19514C1.59021 12 1.04143 11.7527 0.6435 11.3546C0.247286 10.9586 0 10.4096 0 9.80486V2.19514C0 1.59214 0.247286 1.04336 0.6435 0.645429V0.6435C1.04164 0.2475 1.59043 0 2.19514 0ZM9.80486 0.937071H2.19514C1.84929 0.937071 1.53429 1.07807 1.30629 1.30607C1.07829 1.53407 0.937286 1.84907 0.937286 2.19493V9.80486C0.937286 10.1507 1.07829 10.4657 1.30629 10.6937C1.53429 10.9217 1.84929 11.0627 2.19514 11.0627H9.80486C10.1507 11.0627 10.4657 10.9217 10.6937 10.6937C10.9217 10.4657 11.0627 10.1507 11.0627 9.80486V2.19514C11.0627 1.84929 10.9217 1.53429 10.6937 1.30629C10.4657 1.07829 10.1507 0.937286 9.80486 0.937286V0.937071ZM3.34114 3.74679C3.08229 3.74679 2.87164 3.53614 2.87164 3.27729C2.87164 3.01843 3.08229 2.80971 3.34114 2.80971H8.65907C8.91793 2.80971 9.12857 3.02036 9.12857 3.27729C9.12857 3.53421 8.91793 3.74679 8.65907 3.74679H3.34114ZM3.34114 6.46757C3.08229 6.46757 2.87164 6.25886 2.87164 6C2.87164 5.74114 3.08229 5.53243 3.34114 5.53243H6C6.25886 5.53243 6.46757 5.74114 6.46757 6C6.46757 6.25886 6.25886 6.46757 6 6.46757H3.34114ZM3.34114 9.19029C3.08229 9.19029 2.87164 8.97964 2.87164 8.72079C2.87164 8.46193 3.08229 8.25321 3.34114 8.25321H8.65907C8.91793 8.25321 9.12857 8.46386 9.12857 8.72079C9.12857 8.97771 8.91793 9.19029 8.65907 9.19029H3.34114Z" fill="white"/>
</svg>
