<svg width="13" height="14" viewBox="0 0 13 14" fill="none" xmlns="http://www.w3.org/2000/svg">
<g clip-path="url(#clip0_639_1812)">
<path d="M6.50003 2.45952C6.69928 2.45952 6.86114 2.28992 6.86114 2.08113V0.378387C6.86114 0.169599 6.69928 0 6.50003 0C6.30077 0 6.13892 0.169599 6.13892 0.378387V2.08113C6.13892 2.28992 6.30077 2.45952 6.50003 2.45952Z" fill="white"/>
<path d="M3.053 3.73388C3.12328 3.80787 3.21582 3.84469 3.30835 3.84469C3.40089 3.84469 3.4931 3.80787 3.56371 3.73388C3.70493 3.58624 3.70493 3.34671 3.56371 3.19873L2.4146 1.99465C2.27371 1.84667 2.04479 1.84667 1.90389 1.99465C1.76267 2.14229 1.76267 2.38182 1.90389 2.5298L3.053 3.73388Z" fill="white"/>
<path d="M1.98611 6.43262H0.361111C0.161855 6.43262 0 6.60222 0 6.81101C0 7.01979 0.161855 7.18939 0.361111 7.18939H1.98611C2.18537 7.18939 2.34722 7.01979 2.34722 6.81101C2.34722 6.60222 2.18537 6.43262 1.98611 6.43262Z" fill="white"/>
<path d="M9.69196 3.845C9.7845 3.845 9.87671 3.80817 9.94732 3.73419L11.0964 2.5301C11.2376 2.38246 11.2376 2.14293 11.0964 1.99495C10.9555 1.84698 10.7266 1.84698 10.5857 1.99495L9.4366 3.19904C9.29538 3.34668 9.29538 3.58621 9.4366 3.73419C9.50689 3.80817 9.59943 3.845 9.69196 3.845Z" fill="white"/>
<path d="M12.6389 6.43262H11.0139C10.8147 6.43262 10.6528 6.60222 10.6528 6.81101C10.6528 7.01979 10.8147 7.18939 11.0139 7.18939H12.6389C12.8382 7.18939 13.0001 7.01979 13.0001 6.81101C13.0001 6.60222 12.8385 6.43262 12.6389 6.43262Z" fill="white"/>
<path d="M7.76389 11.9192H5.23611C5.03686 11.9192 4.875 12.0888 4.875 12.2976C4.875 13.2365 5.60399 14.0003 6.5 14.0003C7.39601 14.0003 8.125 13.2365 8.125 12.2976C8.125 12.0885 7.96347 11.9192 7.76389 11.9192ZM6.5 13.2435C6.13051 13.2435 5.81228 13.0098 5.67267 12.676H7.32733C7.18772 13.0098 6.86949 13.2435 6.5 13.2435Z" fill="white"/>
<path d="M6.50004 2.83789C4.40914 2.83789 2.70837 4.62003 2.70837 6.81096C2.70837 8.361 3.55086 9.74245 4.87504 10.3985V11.1624C4.87504 11.3712 5.0369 11.5408 5.23615 11.5408H7.76393C7.96319 11.5408 8.12504 11.3712 8.12504 11.1624V10.3985C9.44922 9.74245 10.2917 8.361 10.2917 6.81096C10.2917 4.62037 8.59094 2.83789 6.50004 2.83789ZM7.63077 9.79887C7.4931 9.85597 7.40282 9.9955 7.40282 10.1506V10.784H5.59726V10.1506C5.59726 9.9955 5.50699 9.85597 5.36931 9.79887C4.19151 9.30899 3.4306 8.13633 3.4306 6.81096C3.4306 5.03727 4.80765 3.59467 6.50004 3.59467C8.19243 3.59467 9.56948 5.03761 9.56948 6.81096C9.56948 8.13633 8.80857 9.30899 7.63077 9.79887Z" fill="white"/>
</g>
<defs>
<clipPath id="clip0_639_1812">
<rect width="13" height="14" fill="white"/>
</clipPath>
</defs>
</svg>
