<svg width="211" height="25" viewBox="0 0 211 25" fill="none" xmlns="http://www.w3.org/2000/svg">
<path d="M0 0H2.50281V8.47891H12.0288V0H14.5572V19.0265H12.0288V10.7774H2.50281V19.0265H0V0Z" fill="#1E1634"/>
<path d="M0 0H2.50281V8.47891H12.0288V0H14.5572V19.0265H12.0288V10.7774H2.50281V19.0265H0V0Z" fill="#18122A"/>
<path d="M25.0371 19.3329C23.7261 19.3329 22.5258 19.0265 21.4361 18.4135C20.3635 17.7836 19.5122 16.9238 18.8822 15.8341C18.2523 14.7274 17.9373 13.493 17.9373 12.131C17.9373 10.7859 18.2437 9.56857 18.8567 8.47891C19.4866 7.37222 20.3379 6.51241 21.4106 5.89948C22.5002 5.26952 23.7091 4.95454 25.0371 4.95454C26.3481 4.95454 27.5399 5.26952 28.6125 5.89948C29.7022 6.51241 30.5535 7.36371 31.1664 8.45337C31.7964 9.54303 32.1113 10.7689 32.1113 12.131C32.1113 13.5101 31.7964 14.7444 31.1664 15.8341C30.5364 16.9238 29.6766 17.7836 28.587 18.4135C27.5143 19.0265 26.331 19.3329 25.0371 19.3329ZM20.4401 12.131C20.4401 13.0504 20.6359 13.8846 21.0275 14.6338C21.4361 15.3829 21.9894 15.9703 22.6875 16.396C23.4026 16.8216 24.1858 17.0344 25.0371 17.0344C25.8713 17.0344 26.6375 16.8216 27.3356 16.396C28.0336 15.9703 28.5785 15.3829 28.9701 14.6338C29.3787 13.8846 29.583 13.0504 29.583 12.131C29.583 11.2116 29.3787 10.3858 28.9701 9.6537C28.5785 8.90456 28.0336 8.31716 27.3356 7.89151C26.6375 7.46587 25.8713 7.25304 25.0371 7.25304C24.1858 7.25304 23.4026 7.46587 22.6875 7.89151C21.9894 8.31716 21.4361 8.90456 21.0275 9.6537C20.6359 10.3858 20.4401 11.2116 20.4401 12.131Z" fill="#1E1634"/>
<path d="M25.0371 19.3329C23.7261 19.3329 22.5258 19.0265 21.4361 18.4135C20.3635 17.7836 19.5122 16.9238 18.8822 15.8341C18.2523 14.7274 17.9373 13.493 17.9373 12.131C17.9373 10.7859 18.2437 9.56857 18.8567 8.47891C19.4866 7.37222 20.3379 6.51241 21.4106 5.89948C22.5002 5.26952 23.7091 4.95454 25.0371 4.95454C26.3481 4.95454 27.5399 5.26952 28.6125 5.89948C29.7022 6.51241 30.5535 7.36371 31.1664 8.45337C31.7964 9.54303 32.1113 10.7689 32.1113 12.131C32.1113 13.5101 31.7964 14.7444 31.1664 15.8341C30.5364 16.9238 29.6766 17.7836 28.587 18.4135C27.5143 19.0265 26.331 19.3329 25.0371 19.3329ZM20.4401 12.131C20.4401 13.0504 20.6359 13.8846 21.0275 14.6338C21.4361 15.3829 21.9894 15.9703 22.6875 16.396C23.4026 16.8216 24.1858 17.0344 25.0371 17.0344C25.8713 17.0344 26.6375 16.8216 27.3356 16.396C28.0336 15.9703 28.5785 15.3829 28.9701 14.6338C29.3787 13.8846 29.583 13.0504 29.583 12.131C29.583 11.2116 29.3787 10.3858 28.9701 9.6537C28.5785 8.90456 28.0336 8.31716 27.3356 7.89151C26.6375 7.46587 25.8713 7.25304 25.0371 7.25304C24.1858 7.25304 23.4026 7.46587 22.6875 7.89151C21.9894 8.31716 21.4361 8.90456 21.0275 9.6537C20.6359 10.3858 20.4401 11.2116 20.4401 12.131Z" fill="#18122A"/>
<path d="M35.2091 5.26101H37.5332V6.97211C37.9248 6.32513 38.4526 5.83138 39.1166 5.49086C39.7976 5.13332 40.5468 4.95454 41.364 4.95454C42.3004 4.95454 43.1517 5.18439 43.9179 5.64409C44.7011 6.08677 45.297 6.69119 45.7056 7.45735C46.1483 6.65714 46.7442 6.0442 47.4933 5.61855C48.2595 5.17588 49.1023 4.95454 50.0217 4.95454C50.9581 4.95454 51.8179 5.18439 52.6011 5.64409C53.3843 6.08677 54.0057 6.6997 54.4655 7.48289C54.9251 8.26608 55.155 9.14292 55.155 10.1134V19.0265H52.7543V10.8796C52.7543 9.75585 52.4564 8.8705 51.8605 8.22352C51.2816 7.57653 50.524 7.25304 49.5875 7.25304C48.6341 7.25304 47.8594 7.58505 47.2635 8.24906C46.6676 8.89604 46.3696 9.77288 46.3696 10.8796V19.0265H43.969V10.8796C43.969 9.75585 43.6795 8.8705 43.1006 8.22352C42.5218 7.57653 41.7556 7.25304 40.8021 7.25304C39.8657 7.25304 39.091 7.58505 38.4781 8.24906C37.8822 8.89604 37.5843 9.77288 37.5843 10.8796V19.0265H35.2091V5.26101Z" fill="#1E1634"/>
<path d="M35.2091 5.26101H37.5332V6.97211C37.9248 6.32513 38.4526 5.83138 39.1166 5.49086C39.7976 5.13332 40.5468 4.95454 41.364 4.95454C42.3004 4.95454 43.1517 5.18439 43.9179 5.64409C44.7011 6.08677 45.297 6.69119 45.7056 7.45735C46.1483 6.65714 46.7442 6.0442 47.4933 5.61855C48.2595 5.17588 49.1023 4.95454 50.0217 4.95454C50.9581 4.95454 51.8179 5.18439 52.6011 5.64409C53.3843 6.08677 54.0057 6.6997 54.4655 7.48289C54.9251 8.26608 55.155 9.14292 55.155 10.1134V19.0265H52.7543V10.8796C52.7543 9.75585 52.4564 8.8705 51.8605 8.22352C51.2816 7.57653 50.524 7.25304 49.5875 7.25304C48.6341 7.25304 47.8594 7.58505 47.2635 8.24906C46.6676 8.89604 46.3696 9.77288 46.3696 10.8796V19.0265H43.969V10.8796C43.969 9.75585 43.6795 8.8705 43.1006 8.22352C42.5218 7.57653 41.7556 7.25304 40.8021 7.25304C39.8657 7.25304 39.091 7.58505 38.4781 8.24906C37.8822 8.89604 37.5843 9.77288 37.5843 10.8796V19.0265H35.2091V5.26101Z" fill="#18122A"/>
<path d="M64.862 19.3329C63.568 19.3329 62.3932 19.018 61.3376 18.388C60.282 17.758 59.4562 16.8982 58.8603 15.8086C58.2644 14.7019 57.9665 13.4675 57.9665 12.1054C57.9665 10.7434 58.2559 9.51749 58.8348 8.42783C59.4307 7.33817 60.2309 6.48688 61.2354 5.87394C62.257 5.26101 63.3977 4.95454 64.6577 4.95454C65.9687 4.95454 67.1094 5.26101 68.0799 5.87394C69.0674 6.48688 69.8165 7.30412 70.3273 8.32568C70.8551 9.3302 71.119 10.4114 71.119 11.5691C71.119 11.9607 71.0764 12.3864 70.9913 12.8461H60.4693C60.5033 13.7144 60.7247 14.472 61.1333 15.119C61.5419 15.766 62.0697 16.2683 62.7167 16.6258C63.3807 16.9834 64.1043 17.1621 64.8875 17.1621C66.556 17.1621 67.8415 16.4045 68.7439 14.8892L70.7359 15.9107C70.2932 16.8982 69.5441 17.7155 68.4885 18.3625C67.4329 19.0094 66.224 19.3329 64.862 19.3329ZM68.5396 10.8029C68.5055 9.73031 68.1139 8.84497 67.3648 8.1469C66.6327 7.43181 65.7303 7.07427 64.6577 7.07427C63.6021 7.07427 62.6912 7.41479 61.925 8.09583C61.1588 8.75984 60.6906 9.66221 60.5204 10.8029H68.5396Z" fill="#1E1634"/>
<path d="M64.862 19.3329C63.568 19.3329 62.3932 19.018 61.3376 18.388C60.282 17.758 59.4562 16.8982 58.8603 15.8086C58.2644 14.7019 57.9665 13.4675 57.9665 12.1054C57.9665 10.7434 58.2559 9.51749 58.8348 8.42783C59.4307 7.33817 60.2309 6.48688 61.2354 5.87394C62.257 5.26101 63.3977 4.95454 64.6577 4.95454C65.9687 4.95454 67.1094 5.26101 68.0799 5.87394C69.0674 6.48688 69.8165 7.30412 70.3273 8.32568C70.8551 9.3302 71.119 10.4114 71.119 11.5691C71.119 11.9607 71.0764 12.3864 70.9913 12.8461H60.4693C60.5033 13.7144 60.7247 14.472 61.1333 15.119C61.5419 15.766 62.0697 16.2683 62.7167 16.6258C63.3807 16.9834 64.1043 17.1621 64.8875 17.1621C66.556 17.1621 67.8415 16.4045 68.7439 14.8892L70.7359 15.9107C70.2932 16.8982 69.5441 17.7155 68.4885 18.3625C67.4329 19.0094 66.224 19.3329 64.862 19.3329ZM68.5396 10.8029C68.5055 9.73031 68.1139 8.84497 67.3648 8.1469C66.6327 7.43181 65.7303 7.07427 64.6577 7.07427C63.6021 7.07427 62.6912 7.41479 61.925 8.09583C61.1588 8.75984 60.6906 9.66221 60.5204 10.8029H68.5396Z" fill="#18122A"/>
<path d="M74.4967 0H80.7282C82.6351 0 84.3036 0.391596 85.7338 1.17479C87.181 1.95798 88.2962 3.07318 89.0794 4.52038C89.8626 5.95056 90.2542 7.61059 90.2542 9.50046C90.2542 11.3903 89.8626 13.0589 89.0794 14.5061C88.2962 15.9363 87.181 17.0515 85.7338 17.8517C84.3036 18.6349 82.6351 19.0265 80.7282 19.0265H74.4967V0ZM80.7537 16.728C82.1499 16.728 83.3672 16.4385 84.4058 15.8596C85.4444 15.2637 86.2446 14.421 86.8064 13.3313C87.3683 12.2416 87.6492 10.9647 87.6492 9.50046C87.6492 8.03623 87.3683 6.7678 86.8064 5.69517C86.2446 4.60551 85.4359 3.77124 84.3802 3.19236C83.3417 2.59645 82.1328 2.2985 80.7537 2.2985H76.9995V16.728H80.7537Z" fill="#1E1634"/>
<path d="M74.4967 0H80.7282C82.6351 0 84.3036 0.391596 85.7338 1.17479C87.181 1.95798 88.2962 3.07318 89.0794 4.52038C89.8626 5.95056 90.2542 7.61059 90.2542 9.50046C90.2542 11.3903 89.8626 13.0589 89.0794 14.5061C88.2962 15.9363 87.181 17.0515 85.7338 17.8517C84.3036 18.6349 82.6351 19.0265 80.7282 19.0265H74.4967V0ZM80.7537 16.728C82.1499 16.728 83.3672 16.4385 84.4058 15.8596C85.4444 15.2637 86.2446 14.421 86.8064 13.3313C87.3683 12.2416 87.6492 10.9647 87.6492 9.50046C87.6492 8.03623 87.3683 6.7678 86.8064 5.69517C86.2446 4.60551 85.4359 3.77124 84.3802 3.19236C83.3417 2.59645 82.1328 2.2985 80.7537 2.2985H76.9995V16.728H80.7537Z" fill="#18122A"/>
<path d="M99.4791 19.3329C98.1851 19.3329 97.0104 19.018 95.9548 18.388C94.8991 17.758 94.0734 16.8982 93.4775 15.8086C92.8816 14.7019 92.5836 13.4675 92.5836 12.1054C92.5836 10.7434 92.8731 9.51749 93.452 8.42783C94.0479 7.33817 94.8481 6.48688 95.8526 5.87394C96.8742 5.26101 98.0149 4.95454 99.2748 4.95454C100.586 4.95454 101.727 5.26101 102.697 5.87394C103.685 6.48688 104.434 7.30412 104.944 8.32568C105.472 9.3302 105.736 10.4114 105.736 11.5691C105.736 11.9607 105.694 12.3864 105.608 12.8461H95.0864C95.1205 13.7144 95.3418 14.472 95.7504 15.119C96.1591 15.766 96.6869 16.2683 97.3338 16.6258C97.9979 16.9834 98.7215 17.1621 99.5047 17.1621C101.173 17.1621 102.459 16.4045 103.361 14.8892L105.353 15.9107C104.91 16.8982 104.161 17.7155 103.106 18.3625C102.05 19.0094 100.841 19.3329 99.4791 19.3329ZM103.157 10.8029C103.123 9.73031 102.731 8.84497 101.982 8.1469C101.25 7.43181 100.347 7.07427 99.2748 7.07427C98.2192 7.07427 97.3083 7.41479 96.5421 8.09583C95.776 8.75984 95.3078 9.66221 95.1375 10.8029H103.157Z" fill="#1E1634"/>
<path d="M99.4791 19.3329C98.1851 19.3329 97.0104 19.018 95.9548 18.388C94.8991 17.758 94.0734 16.8982 93.4775 15.8086C92.8816 14.7019 92.5836 13.4675 92.5836 12.1054C92.5836 10.7434 92.8731 9.51749 93.452 8.42783C94.0479 7.33817 94.8481 6.48688 95.8526 5.87394C96.8742 5.26101 98.0149 4.95454 99.2748 4.95454C100.586 4.95454 101.727 5.26101 102.697 5.87394C103.685 6.48688 104.434 7.30412 104.944 8.32568C105.472 9.3302 105.736 10.4114 105.736 11.5691C105.736 11.9607 105.694 12.3864 105.608 12.8461H95.0864C95.1205 13.7144 95.3418 14.472 95.7504 15.119C96.1591 15.766 96.6869 16.2683 97.3338 16.6258C97.9979 16.9834 98.7215 17.1621 99.5047 17.1621C101.173 17.1621 102.459 16.4045 103.361 14.8892L105.353 15.9107C104.91 16.8982 104.161 17.7155 103.106 18.3625C102.05 19.0094 100.841 19.3329 99.4791 19.3329ZM103.157 10.8029C103.123 9.73031 102.731 8.84497 101.982 8.1469C101.25 7.43181 100.347 7.07427 99.2748 7.07427C98.2192 7.07427 97.3083 7.41479 96.5421 8.09583C95.776 8.75984 95.3078 9.66221 95.1375 10.8029H103.157Z" fill="#18122A"/>
<path d="M113.762 19.3329C112.434 19.3329 111.259 19.0094 110.238 18.3625C109.216 17.6984 108.484 16.8046 108.041 15.6809L109.957 14.7104C110.348 15.5106 110.885 16.1406 111.566 16.6003C112.247 17.06 112.987 17.2898 113.787 17.2898C114.554 17.2898 115.184 17.111 115.677 16.7535C116.171 16.396 116.418 15.9277 116.418 15.3489C116.418 14.787 116.197 14.3358 115.754 13.9953C115.311 13.6378 114.835 13.4249 114.324 13.3568L112.255 13.0759C111.029 12.7694 110.11 12.2587 109.497 11.5436C108.884 10.8285 108.578 9.9857 108.578 9.01523C108.578 8.21501 108.782 7.50843 109.19 6.8955C109.616 6.28257 110.195 5.80584 110.927 5.46532C111.676 5.1248 112.502 4.95454 113.404 4.95454C114.596 4.95454 115.66 5.2525 116.597 5.8484C117.55 6.44431 118.231 7.27007 118.64 8.32568L116.75 9.29615C116.409 8.59809 115.933 8.04475 115.32 7.63613C114.724 7.2275 114.06 7.02319 113.328 7.02319C112.63 7.02319 112.068 7.19345 111.642 7.53397C111.217 7.87449 111.004 8.31716 111.004 8.86199C111.004 9.42385 111.2 9.87503 111.591 10.2156C112 10.539 112.442 10.7434 112.919 10.8285L115.192 11.135C116.333 11.4414 117.218 11.9692 117.848 12.7184C118.495 13.4505 118.819 14.3018 118.819 15.2723C118.819 16.0554 118.606 16.7535 118.18 17.3664C117.755 17.9794 117.159 18.4646 116.392 18.8222C115.626 19.1627 114.749 19.3329 113.762 19.3329Z" fill="#1E1634"/>
<path d="M113.762 19.3329C112.434 19.3329 111.259 19.0094 110.238 18.3625C109.216 17.6984 108.484 16.8046 108.041 15.6809L109.957 14.7104C110.348 15.5106 110.885 16.1406 111.566 16.6003C112.247 17.06 112.987 17.2898 113.787 17.2898C114.554 17.2898 115.184 17.111 115.677 16.7535C116.171 16.396 116.418 15.9277 116.418 15.3489C116.418 14.787 116.197 14.3358 115.754 13.9953C115.311 13.6378 114.835 13.4249 114.324 13.3568L112.255 13.0759C111.029 12.7694 110.11 12.2587 109.497 11.5436C108.884 10.8285 108.578 9.9857 108.578 9.01523C108.578 8.21501 108.782 7.50843 109.19 6.8955C109.616 6.28257 110.195 5.80584 110.927 5.46532C111.676 5.1248 112.502 4.95454 113.404 4.95454C114.596 4.95454 115.66 5.2525 116.597 5.8484C117.55 6.44431 118.231 7.27007 118.64 8.32568L116.75 9.29615C116.409 8.59809 115.933 8.04475 115.32 7.63613C114.724 7.2275 114.06 7.02319 113.328 7.02319C112.63 7.02319 112.068 7.19345 111.642 7.53397C111.217 7.87449 111.004 8.31716 111.004 8.86199C111.004 9.42385 111.2 9.87503 111.591 10.2156C112 10.539 112.442 10.7434 112.919 10.8285L115.192 11.135C116.333 11.4414 117.218 11.9692 117.848 12.7184C118.495 13.4505 118.819 14.3018 118.819 15.2723C118.819 16.0554 118.606 16.7535 118.18 17.3664C117.755 17.9794 117.159 18.4646 116.392 18.8222C115.626 19.1627 114.749 19.3329 113.762 19.3329Z" fill="#18122A"/>
<path d="M121.877 5.26101H124.252V19.0265H121.877V5.26101ZM121.596 1.58341C121.596 1.14074 121.732 0.783193 122.004 0.510779C122.277 0.238363 122.634 0.102156 123.077 0.102156C123.52 0.102156 123.877 0.238363 124.15 0.510779C124.422 0.783193 124.558 1.14074 124.558 1.58341C124.558 2.02609 124.422 2.38363 124.15 2.65604C123.877 2.92846 123.52 3.06467 123.077 3.06467C122.634 3.06467 122.277 2.92846 122.004 2.65604C121.732 2.38363 121.596 2.02609 121.596 1.58341Z" fill="#1E1634"/>
<path d="M121.877 5.26101H124.252V19.0265H121.877V5.26101ZM121.596 1.58341C121.596 1.14074 121.732 0.783193 122.004 0.510779C122.277 0.238363 122.634 0.102156 123.077 0.102156C123.52 0.102156 123.877 0.238363 124.15 0.510779C124.422 0.783193 124.558 1.14074 124.558 1.58341C124.558 2.02609 124.422 2.38363 124.15 2.65604C123.877 2.92846 123.52 3.06467 123.077 3.06467C122.634 3.06467 122.277 2.92846 122.004 2.65604C121.732 2.38363 121.596 2.02609 121.596 1.58341Z" fill="#18122A"/>
<path d="M134.501 24.645C133.053 24.645 131.777 24.313 130.67 23.649C129.58 23.002 128.806 22.1337 128.346 21.044L130.568 20.0225C130.823 20.7035 131.291 21.2569 131.972 21.6825C132.653 22.1252 133.488 22.3465 134.475 22.3465C135.684 22.3465 136.689 21.9975 137.489 21.2994C138.289 20.6184 138.689 19.6649 138.689 18.4391V16.5237C138.178 17.2217 137.523 17.758 136.723 18.1326C135.922 18.5072 135.054 18.6945 134.118 18.6945C132.841 18.6945 131.691 18.3965 130.67 17.8006C129.648 17.1877 128.84 16.3619 128.244 15.3233C127.665 14.2677 127.375 13.1014 127.375 11.8245C127.375 10.5476 127.665 9.3898 128.244 8.35121C128.823 7.29561 129.623 6.46985 130.644 5.87394C131.666 5.26101 132.815 4.95454 134.092 4.95454C135.046 4.95454 135.922 5.15034 136.723 5.54194C137.523 5.91651 138.204 6.46134 138.766 7.17643V5.26101H141.09V18.4391C141.09 19.6309 140.809 20.695 140.247 21.6314C139.685 22.5679 138.902 23.3 137.897 23.8278C136.893 24.3726 135.761 24.645 134.501 24.645ZM129.878 11.8245C129.878 12.6588 130.065 13.4249 130.44 14.123C130.832 14.8211 131.368 15.3744 132.049 15.783C132.73 16.1917 133.488 16.396 134.322 16.396C135.122 16.396 135.854 16.1917 136.518 15.783C137.199 15.3744 137.727 14.8211 138.102 14.123C138.493 13.4249 138.689 12.6588 138.689 11.8245C138.689 10.9902 138.493 10.2241 138.102 9.526C137.727 8.82794 137.199 8.2746 136.518 7.86598C135.854 7.45735 135.122 7.25304 134.322 7.25304C133.488 7.25304 132.73 7.45735 132.049 7.86598C131.385 8.2746 130.857 8.82794 130.466 9.526C130.074 10.2241 129.878 10.9902 129.878 11.8245Z" fill="#1E1634"/>
<path d="M134.501 24.645C133.053 24.645 131.777 24.313 130.67 23.649C129.58 23.002 128.806 22.1337 128.346 21.044L130.568 20.0225C130.823 20.7035 131.291 21.2569 131.972 21.6825C132.653 22.1252 133.488 22.3465 134.475 22.3465C135.684 22.3465 136.689 21.9975 137.489 21.2994C138.289 20.6184 138.689 19.6649 138.689 18.4391V16.5237C138.178 17.2217 137.523 17.758 136.723 18.1326C135.922 18.5072 135.054 18.6945 134.118 18.6945C132.841 18.6945 131.691 18.3965 130.67 17.8006C129.648 17.1877 128.84 16.3619 128.244 15.3233C127.665 14.2677 127.375 13.1014 127.375 11.8245C127.375 10.5476 127.665 9.3898 128.244 8.35121C128.823 7.29561 129.623 6.46985 130.644 5.87394C131.666 5.26101 132.815 4.95454 134.092 4.95454C135.046 4.95454 135.922 5.15034 136.723 5.54194C137.523 5.91651 138.204 6.46134 138.766 7.17643V5.26101H141.09V18.4391C141.09 19.6309 140.809 20.695 140.247 21.6314C139.685 22.5679 138.902 23.3 137.897 23.8278C136.893 24.3726 135.761 24.645 134.501 24.645ZM129.878 11.8245C129.878 12.6588 130.065 13.4249 130.44 14.123C130.832 14.8211 131.368 15.3744 132.049 15.783C132.73 16.1917 133.488 16.396 134.322 16.396C135.122 16.396 135.854 16.1917 136.518 15.783C137.199 15.3744 137.727 14.8211 138.102 14.123C138.493 13.4249 138.689 12.6588 138.689 11.8245C138.689 10.9902 138.493 10.2241 138.102 9.526C137.727 8.82794 137.199 8.2746 136.518 7.86598C135.854 7.45735 135.122 7.25304 134.322 7.25304C133.488 7.25304 132.73 7.45735 132.049 7.86598C131.385 8.2746 130.857 8.82794 130.466 9.526C130.074 10.2241 129.878 10.9902 129.878 11.8245Z" fill="#18122A"/>
<path d="M144.772 5.26101H147.096V6.94658C147.505 6.29959 148.049 5.80584 148.73 5.46532C149.411 5.1248 150.178 4.95454 151.029 4.95454C151.999 4.95454 152.876 5.18439 153.659 5.64409C154.443 6.08677 155.056 6.6997 155.498 7.48289C155.958 8.26608 156.188 9.14292 156.188 10.1134V19.0265H153.787V10.8796C153.787 9.75585 153.481 8.8705 152.868 8.22352C152.272 7.57653 151.48 7.25304 150.493 7.25304C149.505 7.25304 148.696 7.58505 148.066 8.24906C147.453 8.89604 147.147 9.77288 147.147 10.8796V19.0265H144.772V5.26101Z" fill="#1E1634"/>
<path d="M144.772 5.26101H147.096V6.94658C147.505 6.29959 148.049 5.80584 148.73 5.46532C149.411 5.1248 150.178 4.95454 151.029 4.95454C151.999 4.95454 152.876 5.18439 153.659 5.64409C154.443 6.08677 155.056 6.6997 155.498 7.48289C155.958 8.26608 156.188 9.14292 156.188 10.1134V19.0265H153.787V10.8796C153.787 9.75585 153.481 8.8705 152.868 8.22352C152.272 7.57653 151.48 7.25304 150.493 7.25304C149.505 7.25304 148.696 7.58505 148.066 8.24906C147.453 8.89604 147.147 9.77288 147.147 10.8796V19.0265H144.772V5.26101Z" fill="#18122A"/>
<path d="M164.515 19.3329C163.187 19.3329 162.013 19.0094 160.991 18.3625C159.97 17.6984 159.237 16.8046 158.795 15.6809L160.71 14.7104C161.102 15.5106 161.638 16.1406 162.319 16.6003C163 17.06 163.741 17.2898 164.541 17.2898C165.307 17.2898 165.937 17.111 166.431 16.7535C166.925 16.396 167.172 15.9277 167.172 15.3489C167.172 14.787 166.95 14.3358 166.508 13.9953C166.065 13.6378 165.588 13.4249 165.077 13.3568L163.009 13.0759C161.783 12.7694 160.863 12.2587 160.25 11.5436C159.638 10.8285 159.331 9.9857 159.331 9.01523C159.331 8.21501 159.535 7.50843 159.944 6.8955C160.37 6.28257 160.949 5.80584 161.681 5.46532C162.43 5.1248 163.256 4.95454 164.158 4.95454C165.35 4.95454 166.414 5.2525 167.35 5.8484C168.304 6.44431 168.985 7.27007 169.393 8.32568L167.504 9.29615C167.163 8.59809 166.686 8.04475 166.073 7.63613C165.477 7.2275 164.813 7.02319 164.081 7.02319C163.383 7.02319 162.821 7.19345 162.396 7.53397C161.97 7.87449 161.757 8.31716 161.757 8.86199C161.757 9.42385 161.953 9.87503 162.345 10.2156C162.753 10.539 163.196 10.7434 163.673 10.8285L165.946 11.135C167.086 11.4414 167.972 11.9692 168.602 12.7184C169.249 13.4505 169.572 14.3018 169.572 15.2723C169.572 16.0554 169.359 16.7535 168.934 17.3664C168.508 17.9794 167.912 18.4646 167.146 18.8222C166.38 19.1627 165.503 19.3329 164.515 19.3329Z" fill="#1E1634"/>
<path d="M164.515 19.3329C163.187 19.3329 162.013 19.0094 160.991 18.3625C159.97 17.6984 159.237 16.8046 158.795 15.6809L160.71 14.7104C161.102 15.5106 161.638 16.1406 162.319 16.6003C163 17.06 163.741 17.2898 164.541 17.2898C165.307 17.2898 165.937 17.111 166.431 16.7535C166.925 16.396 167.172 15.9277 167.172 15.3489C167.172 14.787 166.95 14.3358 166.508 13.9953C166.065 13.6378 165.588 13.4249 165.077 13.3568L163.009 13.0759C161.783 12.7694 160.863 12.2587 160.25 11.5436C159.638 10.8285 159.331 9.9857 159.331 9.01523C159.331 8.21501 159.535 7.50843 159.944 6.8955C160.37 6.28257 160.949 5.80584 161.681 5.46532C162.43 5.1248 163.256 4.95454 164.158 4.95454C165.35 4.95454 166.414 5.2525 167.35 5.8484C168.304 6.44431 168.985 7.27007 169.393 8.32568L167.504 9.29615C167.163 8.59809 166.686 8.04475 166.073 7.63613C165.477 7.2275 164.813 7.02319 164.081 7.02319C163.383 7.02319 162.821 7.19345 162.396 7.53397C161.97 7.87449 161.757 8.31716 161.757 8.86199C161.757 9.42385 161.953 9.87503 162.345 10.2156C162.753 10.539 163.196 10.7434 163.673 10.8285L165.946 11.135C167.086 11.4414 167.972 11.9692 168.602 12.7184C169.249 13.4505 169.572 14.3018 169.572 15.2723C169.572 16.0554 169.359 16.7535 168.934 17.3664C168.508 17.9794 167.912 18.4646 167.146 18.8222C166.38 19.1627 165.503 19.3329 164.515 19.3329Z" fill="#18122A"/>
<path d="M182.189 0H187.45L193.886 19.0265H189.569L188.293 15.1446H181.32L180.043 19.0265H175.753L182.189 0ZM187.194 11.6968L184.819 4.36715L182.419 11.6968H187.194Z" fill="#7558EA"/>
<path d="M195.863 0H199.821V19.0265H195.863V0Z" fill="#7558EA"/>
<circle cx="207.056" cy="15.3779" r="3.64841" fill="#7558EA"/>
</svg>
