<svg width="24" height="26" viewBox="0 0 24 26" fill="none" xmlns="http://www.w3.org/2000/svg">
<g clip-path="url(#clip0_607_1836)">
<path d="M14.5616 0.991349C13.8614 0.353519 12.9474 0 11.9997 0C11.052 0 10.1386 0.353519 9.43777 0.991349L1.25446 8.39529C0.455771 9.11979 0 10.1485 0 11.2272V21.7773C0.00124698 22.7898 0.404021 23.76 1.11979 24.4763C1.83555 25.1921 2.80633 25.5949 3.81888 25.5961H20.1811C21.1937 25.5949 22.1638 25.1921 22.8802 24.4763C23.596 23.7606 23.9988 22.7898 24 21.7773V11.2278C24 10.1492 23.5442 9.12103 22.7455 8.39654L14.5616 0.991349ZM22.9089 21.7773C22.9076 22.5005 22.6202 23.1938 22.109 23.7051C21.5977 24.2164 20.9044 24.5038 20.1811 24.505H3.81451C3.09126 24.5038 2.39794 24.2164 1.88668 23.7051C1.37542 23.1938 1.08799 22.5005 1.08674 21.7773V11.2278C1.08737 10.4572 1.41345 9.72208 1.98457 9.20458L10.1685 1.80126C10.6692 1.34549 11.3213 1.09298 11.9984 1.09298C12.6756 1.09298 13.3277 1.34549 13.8284 1.80126L22.0117 9.20521C22.5828 9.7227 22.9089 10.4572 22.9095 11.2284V21.7779L22.9089 21.7773Z" fill="white"/>
<path d="M9.81566 10.8662H8.72455C8.2906 10.8662 7.87411 11.0389 7.56735 11.3456C7.2606 11.6524 7.08789 12.0689 7.08789 12.5028V13.594C7.08789 14.0279 7.2606 14.4444 7.56735 14.7512C7.87411 15.0579 8.2906 15.2306 8.72455 15.2306H9.81566C10.2496 15.2306 10.6661 15.0579 10.9729 14.7512C11.2796 14.4444 11.4523 14.0279 11.4523 13.594V12.5028C11.4523 12.0689 11.2796 11.6524 10.9729 11.3456C10.6661 11.0389 10.2496 10.8662 9.81566 10.8662ZM10.3612 13.594C10.3612 13.7386 10.3039 13.8776 10.2016 13.9799C10.0993 14.0821 9.96031 14.1395 9.81566 14.1395H8.72455C8.42341 14.1395 8.179 13.8951 8.179 13.594V12.5028C8.179 12.2017 8.42341 11.9573 8.72455 11.9573H9.81566C9.96031 11.9573 10.0993 12.0147 10.2016 12.1169C10.3039 12.2192 10.3612 12.3582 10.3612 12.5028V13.594Z" fill="white"/>
<path d="M15.2711 10.8662H14.18C13.746 10.8662 13.3296 11.0389 13.0228 11.3456C12.716 11.6524 12.5433 12.0689 12.5433 12.5028V13.594C12.5433 14.0279 12.716 14.4444 13.0228 14.7512C13.3296 15.0579 13.746 15.2306 14.18 15.2306H15.2711C15.7051 15.2306 16.1215 15.0579 16.4283 14.7512C16.7351 14.4444 16.9078 14.0279 16.9078 13.594V12.5028C16.9078 12.0689 16.7351 11.6524 16.4283 11.3456C16.1215 11.0389 15.7051 10.8662 15.2711 10.8662ZM15.8167 13.594C15.8167 13.7386 15.7593 13.8776 15.657 13.9799C15.5548 14.0821 15.4158 14.1395 15.2711 14.1395H14.18C13.8789 14.1395 13.6344 13.8951 13.6344 13.594V12.5028C13.6344 12.2017 13.8789 11.9573 14.18 11.9573H15.2711C15.4158 11.9573 15.5548 12.0147 15.657 12.1169C15.7593 12.2192 15.8167 12.3582 15.8167 12.5028V13.594Z" fill="white"/>
<path d="M9.81566 16.3217H8.72455C8.2906 16.3217 7.87411 16.4944 7.56735 16.8012C7.2606 17.1079 7.08789 17.5244 7.08789 17.9584V19.0495C7.08789 19.4834 7.2606 19.8999 7.56735 20.2067C7.87411 20.5134 8.2906 20.6862 8.72455 20.6862H9.81566C10.2496 20.6862 10.6661 20.5134 10.9729 20.2067C11.2796 19.8999 11.4523 19.4834 11.4523 19.0495V17.9584C11.4523 17.5244 11.2796 17.1079 10.9729 16.8012C10.6661 16.4944 10.2496 16.3217 9.81566 16.3217ZM10.3612 19.0495C10.3612 19.1941 10.3039 19.3332 10.2016 19.4354C10.0993 19.5377 9.96031 19.595 9.81566 19.595H8.72455C8.42341 19.595 8.179 19.3506 8.179 19.0495V17.9584C8.179 17.6572 8.42341 17.4128 8.72455 17.4128H9.81566C9.96031 17.4128 10.0993 17.4702 10.2016 17.5724C10.3039 17.6747 10.3612 17.8137 10.3612 17.9584V19.0495Z" fill="white"/>
<path d="M15.2711 16.3217H14.18C13.746 16.3217 13.3296 16.4944 13.0228 16.8012C12.716 17.1079 12.5433 17.5244 12.5433 17.9584V19.0495C12.5433 19.4834 12.716 19.8999 13.0228 20.2067C13.3296 20.5134 13.746 20.6862 14.18 20.6862H15.2711C15.7051 20.6862 16.1215 20.5134 16.4283 20.2067C16.7351 19.8999 16.9078 19.4834 16.9078 19.0495V17.9584C16.9078 17.5244 16.7351 17.1079 16.4283 16.8012C16.1215 16.4944 15.7051 16.3217 15.2711 16.3217ZM15.8167 19.0495C15.8167 19.1941 15.7593 19.3332 15.657 19.4354C15.5548 19.5377 15.4158 19.595 15.2711 19.595H14.18C13.8789 19.595 13.6344 19.3506 13.6344 19.0495V17.9584C13.6344 17.6572 13.8789 17.4128 14.18 17.4128H15.2711C15.4158 17.4128 15.5548 17.4702 15.657 17.5724C15.7593 17.6747 15.8167 17.8137 15.8167 17.9584V19.0495Z" fill="white"/>
</g>
<defs>
<clipPath id="clip0_607_1836">
<rect width="24" height="25.5961" fill="white"/>
</clipPath>
</defs>
</svg>
