<?xml version="1.0" encoding="UTF-8"?>
<!-- Generator: Adobe Illustrator 26.0.3, SVG Export Plug-In . SVG Version: 6.00 Build 0)  -->
<svg xmlns="http://www.w3.org/2000/svg" xmlns:xlink="http://www.w3.org/1999/xlink" version="1.1" id="Capa_1" x="0px" y="0px" viewBox="0 0 511.998 511.998" style="enable-background:new 0 0 511.998 511.998;" xml:space="preserve" width="512" height="512">
<g>
	<g>
		<path style="fill:#33CCCC;" d="M255.999,511.998c-56.515,0-102.494-45.98-102.494-102.499    c0.001-20.995,8.776-42.473,27.615-67.591c26.667-35.557,13.639-81.303,13.504-81.761c-1.143-3.885-0.062-8.099,2.819-10.944    c2.881-2.848,7.09-3.891,10.96-2.702c0.177,0.055,20.071,7.95,39.934,29.019c14.541,15.424,31.151,40.524,34.956,76.927    c10.078-12.969,16.031-32.781,17.835-41.688c0.852-4.213,4.083-7.55,8.268-8.532c4.184-0.985,8.56,0.556,11.199,3.949    c1.547,1.989,37.897,49.347,37.897,103.329C358.493,466.02,312.514,511.998,255.999,511.998z M219.754,279.118    c1.259,20.398-1.446,49.872-21.034,75.99l0,0c-15.62,20.827-23.214,38.618-23.215,54.392c0,44.387,36.109,80.498,80.494,80.498    s80.494-36.109,80.494-80.494c0-27.351-11.489-53.58-20.965-70.561c-6.742,17.155-18.826,38.265-38.876,45.352    c-3.436,1.216-7.254,0.649-10.19-1.515c-2.935-2.162-4.609-5.639-4.468-9.282c1.255-32.428-8.512-60.087-29.031-82.21    C228.489,286.464,223.954,282.427,219.754,279.118z"/>
		<path d="M255.999,511.998c-106.965,0-193.988-87.027-193.988-193.999c0.003-39.489,16.854-80.346,53.03-128.58l0,0    c23.711-31.615,35.797-70.555,35.921-115.735c0.094-34.235-7.107-59.345-7.18-59.595c-1.186-4.066,0.068-8.459,3.225-11.282    c3.157-2.824,7.651-3.591,11.563-1.963c0.364,0.152,37.996,16.901,74.154,55.782c21.076,22.663,37.58,48.329,49.056,76.286    c12.123,29.533,18.608,61.65,19.348,95.693c39.951-28.754,55.74-105.055,55.912-105.911c0.848-4.217,4.077-7.556,8.263-8.541    c4.188-0.983,8.564,0.556,11.205,3.951c0.753,0.969,18.667,24.148,36.737,60.288c16.762,33.522,36.742,84.957,36.742,139.618    C449.987,424.976,362.964,511.998,255.999,511.998z M132.641,202.618C99.921,246.245,84.014,283.987,84.011,318    c0,94.84,77.153,171.998,171.988,171.998s171.988-77.153,171.988-171.987c0-69.824-35.646-135.68-55.642-167.127    c-10.216,33.114-33.929,90.508-78.707,106.336c-3.437,1.216-7.254,0.648-10.19-1.515c-2.935-2.162-4.609-5.639-4.468-9.282    c2.644-68.291-18.125-126.875-61.729-174.127c-17.038-18.463-34.452-31.525-47.307-39.841c1.628,10.864,3.02,24.768,3.02,40.556    C172.964,122.629,159.021,167.446,132.641,202.618L132.641,202.618z"/>
	</g>
</g>















</svg>
