<?xml version="1.0" encoding="UTF-8"?>
<!-- Generator: Adobe Illustrator 27.2.0, SVG Export Plug-In . SVG Version: 6.00 Build 0)  -->
<svg xmlns="http://www.w3.org/2000/svg" xmlns:xlink="http://www.w3.org/1999/xlink" version="1.1" id="Capa_1" x="0px" y="0px" viewBox="0 0 512 512" style="enable-background:new 0 0 512 512;" xml:space="preserve" width="512" height="512">
<g>
	<g>
		<path style="fill:#33CCCC;" d="M183.968,245.985c-55.06,0-99.854-44.795-99.854-99.855c0-55.06,44.794-99.854,99.854-99.854    c55.06,0,99.854,44.794,99.854,99.854C283.822,201.19,239.028,245.985,183.968,245.985z M183.968,68.275    c-42.929,0-77.854,34.925-77.854,77.854s34.925,77.855,77.854,77.855s77.854-34.926,77.854-77.855S226.897,68.275,183.968,68.275z    "/>
	</g>
	<g>
		<path style="fill:#33CCCC;" d="M512,107.065v72.48c0,6.07-4.92,11-11,11c-6.07,0-11-4.93-11-11v-44.03    c-9.86,13.78-20.29,27.02-31.26,39.71v279.5c0,6.07-4.92,11-11,11c-6.07,0-11-4.93-11-11v-255.5    c-12.57,12.94-25.74,25.22-39.44,36.8v218.7c0,6.07-4.93,11-11,11c-6.08,0-11-4.93-11-11v-201.05    c-12.76,9.72-25.93,18.87-39.45,27.41v173.64c0,6.07-4.93,11-11,11c-6.08,0-11-4.93-11-11v-160.43    c-12.87,7.33-26.03,14.14-39.45,20.4v140.03c0,6.07-4.93,11-11,11c-6.08,0-11-4.93-11-11v-130.32    c-12.94,5.38-26.11,10.27-39.45,14.66v115.66c0,6.07-4.92,11-11,11c-6.07,0-11-4.93-11-11v-108.93c-13,3.68-26.16,6.89-39.45,9.62    v99.31c0,6.07-4.92,11-11,11c-6.07,0-11-4.93-11-11v-95.25c-13.05,2.13-26.2,3.8-39.45,5v90.25c0,6.07-4.92,11-11,11    c-6.07,0-11-4.93-11-11v-88.71c-9.26,0.47-18.57,0.71-27.9,0.71H11c-6.07,0-11-4.93-11-11c0-6.08,4.93-11,11-11h29.15    c173.51,0,335.89-84.64,435.26-226.66h-46.88c-6.08,0-11-4.93-11-11c0-6.08,4.92-11,11-11H501    C507.08,96.065,512,100.985,512,107.065z"/>
	</g>
	<g>
		<path d="M183.968,245.985c-42.795,0-84.675-16.26-121.112-47.022c-27.295-23.044-41.938-45.992-42.548-46.958    c-2.267-3.589-2.267-8.161,0-11.75c0.61-0.965,15.253-23.914,42.548-46.957c36.437-30.762,78.317-47.022,121.112-47.022    s84.675,16.26,121.112,47.022c27.295,23.044,41.938,45.992,42.548,46.957c2.267,3.589,2.267,8.161,0,11.75    c-0.61,0.965-15.253,23.914-42.548,46.958C268.643,229.724,226.763,245.985,183.968,245.985z M43.046,146.13    c5.794,7.795,17.544,22.221,34.529,36.466c32.744,27.463,68.54,41.389,106.393,41.389s73.649-13.925,106.393-41.389    c16.984-14.246,28.735-28.672,34.529-36.467c-5.79-7.79-17.542-22.217-34.529-36.465c-32.744-27.463-68.54-41.389-106.393-41.389    s-73.649,13.925-106.393,41.389C60.59,123.91,48.84,138.335,43.046,146.13z M29.607,146.13h0.01H29.607z"/>
	</g>
	<g>
		<path d="M183.968,186.707c-22.374,0-40.578-18.203-40.578-40.578s18.203-40.577,40.578-40.577s40.578,18.203,40.578,40.577    S206.342,186.707,183.968,186.707z M183.968,127.553c-10.244,0-18.578,8.334-18.578,18.577c0,10.244,8.334,18.578,18.578,18.578    c10.244,0,18.578-8.334,18.578-18.578C202.545,135.886,194.211,127.553,183.968,127.553z"/>
	</g>
</g>















</svg>
