<svg id="Layer_1" enable-background="new 0 0 64 64" height="512" viewBox="0 0 64 64" width="512" xmlns="http://www.w3.org/2000/svg"><g><path d="m21.435 23.436h-13.435c-1.104 0-2-.896-2-2s.896-2 2-2h13.435c1.104 0 2 .896 2 2s-.896 2-2 2z"/></g><g><path d="m42.565 44.564c-.512 0-1.023-.195-1.414-.586l-21.13-21.128c-.781-.781-.781-2.047 0-2.828s2.047-.781 2.828 0l21.13 21.128c.781.781.781 2.047 0 2.828-.39.391-.902.586-1.414.586z"/></g><g><path d="m21.435 44.564c-.512 0-1.023-.195-1.414-.586-.781-.781-.781-2.047 0-2.828l21.131-21.129c.781-.781 2.047-.781 2.828 0s.781 2.047 0 2.828l-21.131 21.13c-.391.39-.903.585-1.414.585z"/></g><g><path d="m56 23.436h-13.435c-1.104 0-2-.896-2-2s.896-2 2-2h13.435c1.104 0 2 .896 2 2s-.896 2-2 2z"/></g><g><path d="m48.262 31.174c-.512 0-1.023-.195-1.414-.586-.781-.781-.781-2.047 0-2.828l7.738-7.738c.781-.781 2.047-.781 2.828 0s.781 2.047 0 2.828l-7.738 7.738c-.391.391-.903.586-1.414.586z"/></g><g><path d="m56 23.436c-.512 0-1.023-.195-1.414-.586l-7.738-7.739c-.781-.781-.781-2.048 0-2.828.781-.781 2.047-.781 2.828 0l7.738 7.739c.781.781.781 2.047 0 2.828-.391.39-.902.586-1.414.586z"/></g><g><path d="m56 44.564c-.512 0-1.023-.195-1.414-.586l-7.738-7.738c-.781-.781-.781-2.047 0-2.828s2.047-.781 2.828 0l7.738 7.738c.781.781.781 2.047 0 2.828-.391.391-.902.586-1.414.586z"/></g><g><path d="m48.262 52.304c-.512 0-1.023-.195-1.414-.586-.781-.78-.781-2.047 0-2.828l7.738-7.739c.781-.781 2.047-.781 2.828 0s.781 2.047 0 2.828l-7.738 7.739c-.391.39-.903.586-1.414.586z"/></g><g><path d="m56 44.564h-13.435c-1.104 0-2-.896-2-2s.896-2 2-2h13.435c1.104 0 2 .896 2 2s-.896 2-2 2z"/></g><g><path d="m21.435 44.564h-13.435c-1.104 0-2-.896-2-2s.896-2 2-2h13.435c1.104 0 2 .896 2 2s-.896 2-2 2z"/></g></svg>