<svg width="26" height="26" viewBox="0 0 26 26" fill="none" xmlns="http://www.w3.org/2000/svg">
<path d="M19.4788 18.139C19.112 18.0656 18.6718 18.3591 18.6718 18.7992C18.305 20.9266 16.471 22.5405 14.2703 22.5405H9.86873C7.44788 22.5405 5.46718 20.5598 5.46718 18.139V7.86873C5.46718 5.44788 7.44788 3.46718 9.86873 3.46718H14.2703C16.471 3.46718 18.305 5.08108 18.5985 7.2085C18.6718 7.64865 19.0386 7.94209 19.4788 7.86873C19.8456 7.79537 20.139 7.42857 20.139 7.06178C19.6988 4.12741 17.2046 2 14.2703 2H9.86873C6.64093 2 4 4.64093 4 7.86873V18.139C4 21.3668 6.64093 24.0077 9.86873 24.0077H14.2703C17.2046 24.0077 19.6988 21.8803 20.0656 18.9459C20.139 18.5792 19.8456 18.2124 19.4788 18.139Z" fill="white"/>
<path d="M23 13.224V12.8572C23 12.8572 23 12.7838 22.9267 12.7838V12.7105L22.8533 12.6371L18.5985 9.11586C18.305 8.89578 17.7915 8.89578 17.5715 9.18922C17.3514 9.48265 17.3514 9.99617 17.6448 10.2162L20.2857 12.417H12.0695C11.6294 12.417 11.3359 12.7105 11.3359 13.1506C11.3359 13.5908 11.6294 13.8842 12.0695 13.8842H20.2857L17.6448 16.085C17.3514 16.305 17.278 16.8186 17.5715 17.112C17.7182 17.2587 17.9383 17.4054 18.1583 17.4054C18.305 17.4054 18.4518 17.3321 18.5985 17.2587L22.8533 13.7375C22.8533 13.7375 22.9267 13.7375 22.9267 13.6641V13.5908C22.9267 13.3707 23 13.3707 23 13.224Z" fill="white"/>
</svg>
