<?xml version="1.0" encoding="UTF-8"?>
<!-- Generator: Adobe Illustrator 27.2.0, SVG Export Plug-In . SVG Version: 6.00 Build 0)  -->
<svg xmlns="http://www.w3.org/2000/svg" xmlns:xlink="http://www.w3.org/1999/xlink" version="1.1" id="Capa_1" x="0px" y="0px" viewBox="0 0 512 512" style="enable-background:new 0 0 512 512;" xml:space="preserve" width="512" height="512">
<g>
	<g>
		<path style="fill:#33CCCC;" d="M195.004,379.842c-6.075,0-11-4.925-11-11v-54.896c0-6.075,4.925-11,11-11c6.075,0,11,4.925,11,11    v54.896C206.004,374.918,201.079,379.842,195.004,379.842z"/>
	</g>
	<g>
		<path style="fill:#33CCCC;" d="M501,82.996h-60.996c-6.075,0-11-4.925-11-11c0-6.075,4.925-11,11-11H501c6.075,0,11,4.925,11,11    C512,78.071,507.075,82.996,501,82.996z"/>
	</g>
	<path style="fill:#33CCCC;" d="M409.506,429.004h-19.498c0,0,0-318.377,0-318.377c0-2.881-1.185-5.741-3.222-7.778L287.16,3.222   c-2.043-2.048-4.893-3.221-7.783-3.222H11C4.925,0,0,4.925,0,11v459.502C0,493.384,18.616,512,41.498,512h337.51   c22.882,0,41.498-18.616,41.498-41.498v-30.498C420.506,433.929,415.582,429.004,409.506,429.004z M290.382,37.557l62.07,62.07   h-62.07V37.557z M22,470.502V22h246.382v88.627c0,6.075,4.925,11,11,11h88.626v307.377H71.996c-6.075,0-11,4.925-11,11v30.498   c0,10.751-8.747,19.498-19.498,19.498C30.747,490,22,481.253,22,470.502z M398.506,470.502c0,10.751-8.746,19.498-19.498,19.498   H78.123c0.074-0.138,0.137-0.282,0.209-0.42c0.259-0.499,0.511-1.001,0.751-1.512c2.58-5.476,3.899-11.513,3.913-17.566v-19.498   h315.51V470.502z"/>
	<path d="M288.123,267.936l-87.428-52.863c-3.443-2.097-7.919-2.095-11.383,0l-87.427,52.863c-5.199,3.144-6.865,9.906-3.722,15.104   c2.067,3.419,5.7,5.31,9.423,5.31c1.938,0,3.902-0.512,5.681-1.588l9.74-5.889v87.97c0,6.075,4.925,11,11,11H256   c6.075,0,11-4.925,11-11v-87.97l9.74,5.889c1.78,1.076,3.742,1.588,5.681,1.588c3.723,0,7.356-1.891,9.423-5.31   C294.988,277.842,293.322,271.079,288.123,267.936z M245,357.842h-99.992V267.57l49.996-30.23L245,267.57V357.842z"/>
	<g>
		<path d="M218.386,82.996H71.996c-6.075,0-11-4.925-11-11c0-6.075,4.925-11,11-11h146.39c6.075,0,11,4.925,11,11    C229.386,78.071,224.461,82.996,218.386,82.996z"/>
	</g>
	<g>
		<path d="M218.386,143.992H71.996c-6.075,0-11-4.925-11-11c0-6.075,4.925-11,11-11h146.39c6.075,0,11,4.925,11,11    C229.386,139.067,224.461,143.992,218.386,143.992z"/>
	</g>
	<path d="M501,0h-60.996c-6.075,0-11,4.925-11,11v326.328c0,19.074,12.939,35.173,30.498,40.007v38.271c0,6.075,4.925,11,11,11   c6.075,0,11-4.925,11-11v-38.271C499.06,372.501,512,356.402,512,337.328V11C512,4.925,507.075,0,501,0z M490,337.328   c0,10.751-8.747,19.498-19.498,19.498c-10.752,0-19.498-8.747-19.498-19.498V22H490V337.328z"/>
</g>















</svg>
