<svg width="202" height="24" viewBox="0 0 202 24" fill="none" xmlns="http://www.w3.org/2000/svg">
<path d="M0 0H2.39105V8.257H11.4917V0H13.9071V18.5285H11.4917V10.4953H2.39105V18.5285H0V0Z" fill="#1E1634"/>
<path d="M0 0H2.39105V8.257H11.4917V0H13.9071V18.5285H11.4917V10.4953H2.39105V18.5285H0V0Z" fill="white"/>
<path d="M23.9191 18.8269C22.6666 18.8269 21.5199 18.5285 20.4789 17.9316C19.4541 17.3181 18.6409 16.4808 18.039 15.4197C17.4372 14.342 17.1363 13.1399 17.1363 11.8135C17.1363 10.5036 17.4291 9.31814 18.0146 8.257C18.6165 7.17928 19.4297 6.34197 20.4545 5.74508C21.4955 5.13161 22.6503 4.82487 23.9191 4.82487C25.1715 4.82487 26.3101 5.13161 27.3348 5.74508C28.3758 6.34197 29.1891 7.17098 29.7747 8.23212C30.3765 9.29326 30.6774 10.487 30.6774 11.8135C30.6774 13.1565 30.3765 14.3585 29.7747 15.4197C29.1729 16.4808 28.3514 17.3181 27.3104 17.9316C26.2857 18.5285 25.1552 18.8269 23.9191 18.8269ZM19.5273 11.8135C19.5273 12.7088 19.7144 13.5212 20.0885 14.2508C20.4789 14.9803 21.0075 15.5523 21.6744 15.9668C22.3576 16.3813 23.1058 16.5886 23.9191 16.5886C24.7161 16.5886 25.448 16.3813 26.1149 15.9668C26.7818 15.5523 27.3023 14.9803 27.6764 14.2508C28.0668 13.5212 28.262 12.7088 28.262 11.8135C28.262 10.9181 28.0668 10.114 27.6764 9.40104C27.3023 8.6715 26.7818 8.09948 26.1149 7.68497C25.448 7.27047 24.7161 7.06321 23.9191 7.06321C23.1058 7.06321 22.3576 7.27047 21.6744 7.68497C21.0075 8.09948 20.4789 8.6715 20.0885 9.40104C19.7144 10.114 19.5273 10.9181 19.5273 11.8135Z" fill="#1E1634"/>
<path d="M23.9191 18.8269C22.6666 18.8269 21.5199 18.5285 20.4789 17.9316C19.4541 17.3181 18.6409 16.4808 18.039 15.4197C17.4372 14.342 17.1363 13.1399 17.1363 11.8135C17.1363 10.5036 17.4291 9.31814 18.0146 8.257C18.6165 7.17928 19.4297 6.34197 20.4545 5.74508C21.4955 5.13161 22.6503 4.82487 23.9191 4.82487C25.1715 4.82487 26.3101 5.13161 27.3348 5.74508C28.3758 6.34197 29.1891 7.17098 29.7747 8.23212C30.3765 9.29326 30.6774 10.487 30.6774 11.8135C30.6774 13.1565 30.3765 14.3585 29.7747 15.4197C29.1729 16.4808 28.3514 17.3181 27.3104 17.9316C26.2857 18.5285 25.1552 18.8269 23.9191 18.8269ZM19.5273 11.8135C19.5273 12.7088 19.7144 13.5212 20.0885 14.2508C20.4789 14.9803 21.0075 15.5523 21.6744 15.9668C22.3576 16.3813 23.1058 16.5886 23.9191 16.5886C24.7161 16.5886 25.448 16.3813 26.1149 15.9668C26.7818 15.5523 27.3023 14.9803 27.6764 14.2508C28.0668 13.5212 28.262 12.7088 28.262 11.8135C28.262 10.9181 28.0668 10.114 27.6764 9.40104C27.3023 8.6715 26.7818 8.09948 26.1149 7.68497C25.448 7.27047 24.7161 7.06321 23.9191 7.06321C23.1058 7.06321 22.3576 7.27047 21.6744 7.68497C21.0075 8.09948 20.4789 8.6715 20.0885 9.40104C19.7144 10.114 19.5273 10.9181 19.5273 11.8135Z" fill="white"/>
<path d="M33.6369 5.12332H35.8571V6.78964C36.2313 6.15959 36.7355 5.67876 37.3698 5.34715C38.0205 4.99896 38.7362 4.82487 39.5169 4.82487C40.4115 4.82487 41.2248 5.04871 41.9568 5.49637C42.705 5.92746 43.2743 6.51606 43.6647 7.26218C44.0876 6.4829 44.6569 5.88601 45.3725 5.4715C46.1045 5.04042 46.9096 4.82487 47.788 4.82487C48.6826 4.82487 49.504 5.04871 50.2522 5.49637C51.0005 5.92746 51.5941 6.52435 52.0333 7.28705C52.4725 8.04974 52.6921 8.90363 52.6921 9.84871V18.5285H50.3986V10.5948C50.3986 9.50052 50.114 8.63834 49.5447 8.00829C48.9917 7.37824 48.2678 7.06321 47.3732 7.06321C46.4623 7.06321 45.7223 7.38653 45.153 8.03316C44.5837 8.66321 44.299 9.5171 44.299 10.5948V18.5285H42.0056V10.5948C42.0056 9.50052 41.729 8.63834 41.176 8.00829C40.623 7.37824 39.891 7.06321 38.9801 7.06321C38.0855 7.06321 37.3455 7.38653 36.7599 8.03316C36.1906 8.66321 35.9059 9.5171 35.9059 10.5948V18.5285H33.6369V5.12332Z" fill="#1E1634"/>
<path d="M33.6369 5.12332H35.8571V6.78964C36.2313 6.15959 36.7355 5.67876 37.3698 5.34715C38.0205 4.99896 38.7362 4.82487 39.5169 4.82487C40.4115 4.82487 41.2248 5.04871 41.9568 5.49637C42.705 5.92746 43.2743 6.51606 43.6647 7.26218C44.0876 6.4829 44.6569 5.88601 45.3725 5.4715C46.1045 5.04042 46.9096 4.82487 47.788 4.82487C48.6826 4.82487 49.504 5.04871 50.2522 5.49637C51.0005 5.92746 51.5941 6.52435 52.0333 7.28705C52.4725 8.04974 52.6921 8.90363 52.6921 9.84871V18.5285H50.3986V10.5948C50.3986 9.50052 50.114 8.63834 49.5447 8.00829C48.9917 7.37824 48.2678 7.06321 47.3732 7.06321C46.4623 7.06321 45.7223 7.38653 45.153 8.03316C44.5837 8.66321 44.299 9.5171 44.299 10.5948V18.5285H42.0056V10.5948C42.0056 9.50052 41.729 8.63834 41.176 8.00829C40.623 7.37824 39.891 7.06321 38.9801 7.06321C38.0855 7.06321 37.3455 7.38653 36.7599 8.03316C36.1906 8.66321 35.9059 9.5171 35.9059 10.5948V18.5285H33.6369V5.12332Z" fill="white"/>
<path d="M61.9656 18.8269C60.7294 18.8269 59.6071 18.5202 58.5986 17.9067C57.5901 17.2933 56.8012 16.456 56.2319 15.3948C55.6627 14.3171 55.378 13.115 55.378 11.7886C55.378 10.4622 55.6545 9.26839 56.2076 8.20725C56.7768 7.14611 57.5413 6.3171 58.501 5.72021C59.4769 5.12332 60.5667 4.82487 61.7704 4.82487C63.0229 4.82487 64.1127 5.12332 65.0398 5.72021C65.9832 6.3171 66.6989 7.11295 67.1869 8.10777C67.6911 9.08601 67.9432 10.1389 67.9432 11.2663C67.9432 11.6477 67.9025 12.0622 67.8212 12.5098H57.7691C57.8016 13.3554 58.013 14.0933 58.4034 14.7233C58.7938 15.3534 59.298 15.8425 59.9161 16.1907C60.5505 16.5389 61.2418 16.713 61.99 16.713C63.584 16.713 64.8121 15.9751 65.6741 14.4995L67.5772 15.4943C67.1543 16.456 66.4386 17.2518 65.4302 17.8819C64.4217 18.5119 63.2668 18.8269 61.9656 18.8269ZM65.479 10.5202C65.4464 9.47565 65.0723 8.61347 64.3566 7.93368C63.6572 7.23731 62.7951 6.88912 61.7704 6.88912C60.7619 6.88912 59.8917 7.22073 59.1598 7.88394C58.4278 8.53057 57.9805 9.40933 57.8179 10.5202H65.479Z" fill="#1E1634"/>
<path d="M61.9656 18.8269C60.7294 18.8269 59.6071 18.5202 58.5986 17.9067C57.5901 17.2933 56.8012 16.456 56.2319 15.3948C55.6627 14.3171 55.378 13.115 55.378 11.7886C55.378 10.4622 55.6545 9.26839 56.2076 8.20725C56.7768 7.14611 57.5413 6.3171 58.501 5.72021C59.4769 5.12332 60.5667 4.82487 61.7704 4.82487C63.0229 4.82487 64.1127 5.12332 65.0398 5.72021C65.9832 6.3171 66.6989 7.11295 67.1869 8.10777C67.6911 9.08601 67.9432 10.1389 67.9432 11.2663C67.9432 11.6477 67.9025 12.0622 67.8212 12.5098H57.7691C57.8016 13.3554 58.013 14.0933 58.4034 14.7233C58.7938 15.3534 59.298 15.8425 59.9161 16.1907C60.5505 16.5389 61.2418 16.713 61.99 16.713C63.584 16.713 64.8121 15.9751 65.6741 14.4995L67.5772 15.4943C67.1543 16.456 66.4386 17.2518 65.4302 17.8819C64.4217 18.5119 63.2668 18.8269 61.9656 18.8269ZM65.479 10.5202C65.4464 9.47565 65.0723 8.61347 64.3566 7.93368C63.6572 7.23731 62.7951 6.88912 61.7704 6.88912C60.7619 6.88912 59.8917 7.22073 59.1598 7.88394C58.4278 8.53057 57.9805 9.40933 57.8179 10.5202H65.479Z" fill="white"/>
<path d="M71.1701 0H77.1233C78.9451 0 80.5391 0.381347 81.9054 1.14404C83.288 1.90674 84.3534 2.99275 85.1016 4.40207C85.8498 5.79482 86.2239 7.4114 86.2239 9.25181C86.2239 11.0922 85.8498 12.7171 85.1016 14.1264C84.3534 15.5192 83.288 16.6052 81.9054 17.3845C80.5391 18.1471 78.9451 18.5285 77.1233 18.5285H71.1701V0ZM77.1477 16.2902C78.4815 16.2902 79.6445 16.0083 80.6367 15.4446C81.6289 14.8642 82.3934 14.0435 82.9301 12.9824C83.4669 11.9212 83.7353 10.6777 83.7353 9.25181C83.7353 7.82591 83.4669 6.59067 82.9301 5.54611C82.3934 4.48497 81.6208 3.67254 80.6123 3.10881C79.6201 2.5285 78.4652 2.23834 77.1477 2.23834H73.5611V16.2902H77.1477Z" fill="#1E1634"/>
<path d="M71.1701 0H77.1233C78.9451 0 80.5391 0.381347 81.9054 1.14404C83.288 1.90674 84.3534 2.99275 85.1016 4.40207C85.8498 5.79482 86.2239 7.4114 86.2239 9.25181C86.2239 11.0922 85.8498 12.7171 85.1016 14.1264C84.3534 15.5192 83.288 16.6052 81.9054 17.3845C80.5391 18.1471 78.9451 18.5285 77.1233 18.5285H71.1701V0ZM77.1477 16.2902C78.4815 16.2902 79.6445 16.0083 80.6367 15.4446C81.6289 14.8642 82.3934 14.0435 82.9301 12.9824C83.4669 11.9212 83.7353 10.6777 83.7353 9.25181C83.7353 7.82591 83.4669 6.59067 82.9301 5.54611C82.3934 4.48497 81.6208 3.67254 80.6123 3.10881C79.6201 2.5285 78.4652 2.23834 77.1477 2.23834H73.5611V16.2902H77.1477Z" fill="white"/>
<path d="M95.0369 18.8269C93.8007 18.8269 92.6784 18.5202 91.6699 17.9067C90.6615 17.2933 89.8726 16.456 89.3033 15.3948C88.734 14.3171 88.4493 13.115 88.4493 11.7886C88.4493 10.4622 88.7259 9.26839 89.2789 8.20725C89.8482 7.14611 90.6127 6.3171 91.5723 5.72021C92.5483 5.12332 93.6381 4.82487 94.8417 4.82487C96.0942 4.82487 97.184 5.12332 98.1111 5.72021C99.0545 6.3171 99.7702 7.11295 100.258 8.10777C100.762 9.08601 101.015 10.1389 101.015 11.2663C101.015 11.6477 100.974 12.0622 100.893 12.5098H90.8404C90.8729 13.3554 91.0844 14.0933 91.4748 14.7233C91.8651 15.3534 92.3694 15.8425 92.9874 16.1907C93.6218 16.5389 94.3131 16.713 95.0613 16.713C96.6554 16.713 97.8834 15.9751 98.7455 14.4995L100.649 15.4943C100.226 16.456 99.51 17.2518 98.5015 17.8819C97.493 18.5119 96.3382 18.8269 95.0369 18.8269ZM98.5503 10.5202C98.5178 9.47565 98.1437 8.61347 97.428 7.93368C96.7286 7.23731 95.8665 6.88912 94.8417 6.88912C93.8333 6.88912 92.9631 7.22073 92.2311 7.88394C91.4991 8.53057 91.0518 9.40933 90.8892 10.5202H98.5503Z" fill="#1E1634"/>
<path d="M95.0369 18.8269C93.8007 18.8269 92.6784 18.5202 91.6699 17.9067C90.6615 17.2933 89.8726 16.456 89.3033 15.3948C88.734 14.3171 88.4493 13.115 88.4493 11.7886C88.4493 10.4622 88.7259 9.26839 89.2789 8.20725C89.8482 7.14611 90.6127 6.3171 91.5723 5.72021C92.5483 5.12332 93.6381 4.82487 94.8417 4.82487C96.0942 4.82487 97.184 5.12332 98.1111 5.72021C99.0545 6.3171 99.7702 7.11295 100.258 8.10777C100.762 9.08601 101.015 10.1389 101.015 11.2663C101.015 11.6477 100.974 12.0622 100.893 12.5098H90.8404C90.8729 13.3554 91.0844 14.0933 91.4748 14.7233C91.8651 15.3534 92.3694 15.8425 92.9874 16.1907C93.6218 16.5389 94.3131 16.713 95.0613 16.713C96.6554 16.713 97.8834 15.9751 98.7455 14.4995L100.649 15.4943C100.226 16.456 99.51 17.2518 98.5015 17.8819C97.493 18.5119 96.3382 18.8269 95.0369 18.8269ZM98.5503 10.5202C98.5178 9.47565 98.1437 8.61347 97.428 7.93368C96.7286 7.23731 95.8665 6.88912 94.8417 6.88912C93.8333 6.88912 92.9631 7.22073 92.2311 7.88394C91.4991 8.53057 91.0518 9.40933 90.8892 10.5202H98.5503Z" fill="white"/>
<path d="M108.682 18.8269C107.413 18.8269 106.291 18.5119 105.315 17.8819C104.339 17.2352 103.64 16.3648 103.217 15.2705L105.047 14.3254C105.421 15.1047 105.933 15.7181 106.584 16.1658C107.234 16.6135 107.942 16.8373 108.706 16.8373C109.438 16.8373 110.04 16.6632 110.512 16.315C110.984 15.9668 111.219 15.5109 111.219 14.9472C111.219 14.4 111.008 13.9606 110.585 13.629C110.162 13.2808 109.707 13.0736 109.219 13.0073L107.242 12.7337C106.071 12.4352 105.193 11.9378 104.607 11.2415C104.022 10.5451 103.729 9.72435 103.729 8.77927C103.729 8 103.924 7.31192 104.315 6.71503C104.721 6.11814 105.274 5.65389 105.974 5.32228C106.689 4.99067 107.478 4.82487 108.34 4.82487C109.479 4.82487 110.496 5.11503 111.39 5.69534C112.301 6.27565 112.952 7.07979 113.342 8.10777L111.537 9.05285C111.211 8.37306 110.756 7.8342 110.17 7.43627C109.601 7.03834 108.967 6.83938 108.267 6.83938C107.6 6.83938 107.064 7.00518 106.657 7.33679C106.25 7.66839 106.047 8.09948 106.047 8.63005C106.047 9.1772 106.234 9.61658 106.608 9.94819C106.998 10.2632 107.421 10.4622 107.877 10.5451L110.048 10.8435C111.138 11.142 111.984 11.656 112.586 12.3855C113.204 13.0984 113.513 13.9275 113.513 14.8725C113.513 15.6352 113.31 16.315 112.903 16.9119C112.496 17.5088 111.927 17.9813 111.195 18.3295C110.463 18.6611 109.625 18.8269 108.682 18.8269Z" fill="#1E1634"/>
<path d="M108.682 18.8269C107.413 18.8269 106.291 18.5119 105.315 17.8819C104.339 17.2352 103.64 16.3648 103.217 15.2705L105.047 14.3254C105.421 15.1047 105.933 15.7181 106.584 16.1658C107.234 16.6135 107.942 16.8373 108.706 16.8373C109.438 16.8373 110.04 16.6632 110.512 16.315C110.984 15.9668 111.219 15.5109 111.219 14.9472C111.219 14.4 111.008 13.9606 110.585 13.629C110.162 13.2808 109.707 13.0736 109.219 13.0073L107.242 12.7337C106.071 12.4352 105.193 11.9378 104.607 11.2415C104.022 10.5451 103.729 9.72435 103.729 8.77927C103.729 8 103.924 7.31192 104.315 6.71503C104.721 6.11814 105.274 5.65389 105.974 5.32228C106.689 4.99067 107.478 4.82487 108.34 4.82487C109.479 4.82487 110.496 5.11503 111.39 5.69534C112.301 6.27565 112.952 7.07979 113.342 8.10777L111.537 9.05285C111.211 8.37306 110.756 7.8342 110.17 7.43627C109.601 7.03834 108.967 6.83938 108.267 6.83938C107.6 6.83938 107.064 7.00518 106.657 7.33679C106.25 7.66839 106.047 8.09948 106.047 8.63005C106.047 9.1772 106.234 9.61658 106.608 9.94819C106.998 10.2632 107.421 10.4622 107.877 10.5451L110.048 10.8435C111.138 11.142 111.984 11.656 112.586 12.3855C113.204 13.0984 113.513 13.9275 113.513 14.8725C113.513 15.6352 113.31 16.315 112.903 16.9119C112.496 17.5088 111.927 17.9813 111.195 18.3295C110.463 18.6611 109.625 18.8269 108.682 18.8269Z" fill="white"/>
<path d="M116.434 5.12332H118.703V18.5285H116.434V5.12332ZM116.166 1.54197C116.166 1.11088 116.296 0.762695 116.556 0.49741C116.817 0.232125 117.158 0.0994821 117.581 0.0994821C118.004 0.0994821 118.346 0.232125 118.606 0.49741C118.866 0.762695 118.996 1.11088 118.996 1.54197C118.996 1.97306 118.866 2.32124 118.606 2.58653C118.346 2.85181 118.004 2.98446 117.581 2.98446C117.158 2.98446 116.817 2.85181 116.556 2.58653C116.296 2.32124 116.166 1.97306 116.166 1.54197Z" fill="#1E1634"/>
<path d="M116.434 5.12332H118.703V18.5285H116.434V5.12332ZM116.166 1.54197C116.166 1.11088 116.296 0.762695 116.556 0.49741C116.817 0.232125 117.158 0.0994821 117.581 0.0994821C118.004 0.0994821 118.346 0.232125 118.606 0.49741C118.866 0.762695 118.996 1.11088 118.996 1.54197C118.996 1.97306 118.866 2.32124 118.606 2.58653C118.346 2.85181 118.004 2.98446 117.581 2.98446C117.158 2.98446 116.817 2.85181 116.556 2.58653C116.296 2.32124 116.166 1.97306 116.166 1.54197Z" fill="white"/>
<path d="M128.495 24C127.112 24 125.892 23.6767 124.835 23.0301C123.794 22.4 123.054 21.5544 122.615 20.4933L124.737 19.4984C124.981 20.1617 125.429 20.7005 126.079 21.115C126.73 21.5461 127.527 21.7617 128.47 21.7617C129.625 21.7617 130.585 21.4218 131.349 20.742C132.114 20.0788 132.496 19.1503 132.496 17.9565V16.0912C132.008 16.771 131.382 17.2933 130.617 17.658C129.853 18.0228 129.023 18.2052 128.129 18.2052C126.909 18.2052 125.811 17.915 124.835 17.3347C123.859 16.7378 123.086 15.9337 122.517 14.9223C121.964 13.8943 121.687 12.7586 121.687 11.515C121.687 10.2715 121.964 9.14404 122.517 8.13264C123.07 7.10466 123.835 6.30052 124.81 5.72021C125.786 5.12332 126.884 4.82487 128.104 4.82487C129.015 4.82487 129.853 5.01555 130.617 5.39689C131.382 5.76166 132.032 6.29223 132.569 6.9886V5.12332H134.789V17.9565C134.789 19.1171 134.521 20.1534 133.984 21.0653C133.448 21.9772 132.699 22.6902 131.74 23.2041C130.78 23.7347 129.698 24 128.495 24ZM124.079 11.515C124.079 12.3275 124.257 13.0736 124.615 13.7534C124.989 14.4332 125.502 14.972 126.152 15.3699C126.803 15.7679 127.527 15.9668 128.324 15.9668C129.088 15.9668 129.788 15.7679 130.422 15.3699C131.073 14.972 131.577 14.4332 131.935 13.7534C132.309 13.0736 132.496 12.3275 132.496 11.515C132.496 10.7026 132.309 9.95648 131.935 9.27668C131.577 8.59689 131.073 8.05803 130.422 7.6601C129.788 7.26218 129.088 7.06321 128.324 7.06321C127.527 7.06321 126.803 7.26218 126.152 7.6601C125.518 8.05803 125.014 8.59689 124.64 9.27668C124.266 9.95648 124.079 10.7026 124.079 11.515Z" fill="#1E1634"/>
<path d="M128.495 24C127.112 24 125.892 23.6767 124.835 23.0301C123.794 22.4 123.054 21.5544 122.615 20.4933L124.737 19.4984C124.981 20.1617 125.429 20.7005 126.079 21.115C126.73 21.5461 127.527 21.7617 128.47 21.7617C129.625 21.7617 130.585 21.4218 131.349 20.742C132.114 20.0788 132.496 19.1503 132.496 17.9565V16.0912C132.008 16.771 131.382 17.2933 130.617 17.658C129.853 18.0228 129.023 18.2052 128.129 18.2052C126.909 18.2052 125.811 17.915 124.835 17.3347C123.859 16.7378 123.086 15.9337 122.517 14.9223C121.964 13.8943 121.687 12.7586 121.687 11.515C121.687 10.2715 121.964 9.14404 122.517 8.13264C123.07 7.10466 123.835 6.30052 124.81 5.72021C125.786 5.12332 126.884 4.82487 128.104 4.82487C129.015 4.82487 129.853 5.01555 130.617 5.39689C131.382 5.76166 132.032 6.29223 132.569 6.9886V5.12332H134.789V17.9565C134.789 19.1171 134.521 20.1534 133.984 21.0653C133.448 21.9772 132.699 22.6902 131.74 23.2041C130.78 23.7347 129.698 24 128.495 24ZM124.079 11.515C124.079 12.3275 124.257 13.0736 124.615 13.7534C124.989 14.4332 125.502 14.972 126.152 15.3699C126.803 15.7679 127.527 15.9668 128.324 15.9668C129.088 15.9668 129.788 15.7679 130.422 15.3699C131.073 14.972 131.577 14.4332 131.935 13.7534C132.309 13.0736 132.496 12.3275 132.496 11.515C132.496 10.7026 132.309 9.95648 131.935 9.27668C131.577 8.59689 131.073 8.05803 130.422 7.6601C129.788 7.26218 129.088 7.06321 128.324 7.06321C127.527 7.06321 126.803 7.26218 126.152 7.6601C125.518 8.05803 125.014 8.59689 124.64 9.27668C124.266 9.95648 124.079 10.7026 124.079 11.515Z" fill="white"/>
<path d="M138.307 5.12332H140.527V6.76477C140.918 6.13472 141.438 5.65389 142.089 5.32228C142.74 4.99067 143.472 4.82487 144.285 4.82487C145.212 4.82487 146.05 5.04871 146.798 5.49637C147.546 5.92746 148.132 6.52435 148.555 7.28705C148.994 8.04974 149.213 8.90363 149.213 9.84871V18.5285H146.92V10.5948C146.92 9.50052 146.627 8.63834 146.042 8.00829C145.472 7.37824 144.716 7.06321 143.772 7.06321C142.829 7.06321 142.056 7.38653 141.455 8.03316C140.869 8.66321 140.576 9.5171 140.576 10.5948V18.5285H138.307V5.12332Z" fill="#1E1634"/>
<path d="M138.307 5.12332H140.527V6.76477C140.918 6.13472 141.438 5.65389 142.089 5.32228C142.74 4.99067 143.472 4.82487 144.285 4.82487C145.212 4.82487 146.05 5.04871 146.798 5.49637C147.546 5.92746 148.132 6.52435 148.555 7.28705C148.994 8.04974 149.213 8.90363 149.213 9.84871V18.5285H146.92V10.5948C146.92 9.50052 146.627 8.63834 146.042 8.00829C145.472 7.37824 144.716 7.06321 143.772 7.06321C142.829 7.06321 142.056 7.38653 141.455 8.03316C140.869 8.66321 140.576 9.5171 140.576 10.5948V18.5285H138.307V5.12332Z" fill="white"/>
<path d="M157.169 18.8269C155.9 18.8269 154.778 18.5119 153.802 17.8819C152.826 17.2352 152.127 16.3648 151.704 15.2705L153.534 14.3254C153.908 15.1047 154.42 15.7181 155.071 16.1658C155.721 16.6135 156.429 16.8373 157.194 16.8373C157.925 16.8373 158.527 16.6632 158.999 16.315C159.471 15.9668 159.707 15.5109 159.707 14.9472C159.707 14.4 159.495 13.9606 159.072 13.629C158.649 13.2808 158.194 13.0736 157.706 13.0073L155.73 12.7337C154.558 12.4352 153.68 11.9378 153.095 11.2415C152.509 10.5451 152.216 9.72435 152.216 8.77927C152.216 8 152.411 7.31192 152.802 6.71503C153.208 6.11814 153.761 5.65389 154.461 5.32228C155.177 4.99067 155.965 4.82487 156.828 4.82487C157.966 4.82487 158.983 5.11503 159.877 5.69534C160.788 6.27565 161.439 7.07979 161.829 8.10777L160.024 9.05285C159.698 8.37306 159.243 7.8342 158.657 7.43627C158.088 7.03834 157.454 6.83938 156.754 6.83938C156.087 6.83938 155.551 7.00518 155.144 7.33679C154.737 7.66839 154.534 8.09948 154.534 8.63005C154.534 9.1772 154.721 9.61658 155.095 9.94819C155.486 10.2632 155.909 10.4622 156.364 10.5451L158.535 10.8435C159.625 11.142 160.471 11.656 161.073 12.3855C161.691 13.0984 162 13.9275 162 14.8725C162 15.6352 161.797 16.315 161.39 16.9119C160.983 17.5088 160.414 17.9813 159.682 18.3295C158.95 18.6611 158.113 18.8269 157.169 18.8269Z" fill="#1E1634"/>
<path d="M157.169 18.8269C155.9 18.8269 154.778 18.5119 153.802 17.8819C152.826 17.2352 152.127 16.3648 151.704 15.2705L153.534 14.3254C153.908 15.1047 154.42 15.7181 155.071 16.1658C155.721 16.6135 156.429 16.8373 157.194 16.8373C157.925 16.8373 158.527 16.6632 158.999 16.315C159.471 15.9668 159.707 15.5109 159.707 14.9472C159.707 14.4 159.495 13.9606 159.072 13.629C158.649 13.2808 158.194 13.0736 157.706 13.0073L155.73 12.7337C154.558 12.4352 153.68 11.9378 153.095 11.2415C152.509 10.5451 152.216 9.72435 152.216 8.77927C152.216 8 152.411 7.31192 152.802 6.71503C153.208 6.11814 153.761 5.65389 154.461 5.32228C155.177 4.99067 155.965 4.82487 156.828 4.82487C157.966 4.82487 158.983 5.11503 159.877 5.69534C160.788 6.27565 161.439 7.07979 161.829 8.10777L160.024 9.05285C159.698 8.37306 159.243 7.8342 158.657 7.43627C158.088 7.03834 157.454 6.83938 156.754 6.83938C156.087 6.83938 155.551 7.00518 155.144 7.33679C154.737 7.66839 154.534 8.09948 154.534 8.63005C154.534 9.1772 154.721 9.61658 155.095 9.94819C155.486 10.2632 155.909 10.4622 156.364 10.5451L158.535 10.8435C159.625 11.142 160.471 11.656 161.073 12.3855C161.691 13.0984 162 13.9275 162 14.8725C162 15.6352 161.797 16.315 161.39 16.9119C160.983 17.5088 160.414 17.9813 159.682 18.3295C158.95 18.6611 158.113 18.8269 157.169 18.8269Z" fill="white"/>
<path d="M174.15 0H179.178L185.328 19H181.203L179.983 15.1235H173.32L172.1 19H168L174.15 0ZM178.934 11.6805L176.664 4.36107L174.37 11.6805H178.934Z" fill="#7558EA"/>
<path d="M187.217 0H191V19H187.217V0Z" fill="#7558EA"/>
<circle cx="198.5" cy="15.5" r="3.5" fill="#7558EA"/>
</svg>
