<svg width="26" height="26" viewBox="0 0 26 26" fill="none" xmlns="http://www.w3.org/2000/svg">
<g clip-path="url(#clip0_129_1931)">
<path d="M20.7551 21.054C20.7551 21.0906 20.7551 21.1238 20.7524 21.1597C20.7435 21.287 20.7645 21.1476 20.7551 21.1448C20.7673 21.1509 20.7247 21.2842 20.7186 21.3053C20.7098 21.3385 20.6976 21.3689 20.6882 21.4021C20.6638 21.484 20.7579 21.2688 20.6943 21.3872C20.6611 21.4447 20.6339 21.505 20.5974 21.5598C20.5974 21.5598 20.5581 21.6235 20.552 21.6235C20.5764 21.6207 20.6367 21.5266 20.5581 21.6085C20.5155 21.6511 20.4735 21.6932 20.4309 21.7325C20.3645 21.7961 20.4613 21.7142 20.4613 21.7114C20.4613 21.7175 20.4071 21.7507 20.3977 21.7568C20.3373 21.7961 20.2676 21.8232 20.2068 21.8625C20.137 21.9079 20.3462 21.8199 20.2217 21.8537C20.1946 21.8597 20.1702 21.8719 20.1459 21.878C20.1188 21.8869 20.0944 21.8929 20.0673 21.899C20.0551 21.9018 20.0402 21.9051 20.028 21.9079C19.9919 21.9138 19.9919 21.9147 20.028 21.9107C20.0402 21.9079 20.0551 21.9079 20.0673 21.9046C20.0402 21.9073 20.0131 21.9107 19.9826 21.9107C19.9555 21.9134 19.9251 21.9134 19.898 21.9134H3.03362C2.99709 21.9134 2.96389 21.9073 2.92792 21.9073C2.83994 21.9012 3.07623 21.9439 2.94619 21.9073C2.87978 21.8891 2.81614 21.8741 2.74974 21.8531C2.63464 21.8166 2.78626 21.868 2.78294 21.868C2.77409 21.8741 2.70436 21.8315 2.69219 21.8227C2.63796 21.7956 2.58926 21.7624 2.54112 21.7286C2.44428 21.665 2.57156 21.7496 2.56824 21.7496C2.56547 21.7524 2.51677 21.7042 2.50792 21.6982C2.48357 21.6771 2.45922 21.6528 2.4382 21.6284C2.41993 21.6074 2.3231 21.5316 2.39559 21.5831C2.46199 21.6318 2.39282 21.577 2.37456 21.5465C2.35962 21.5255 2.34744 21.5012 2.33195 21.4801C2.31978 21.4558 2.30484 21.4348 2.29266 21.4104C2.28049 21.3833 2.25946 21.2892 2.2744 21.3739C2.28657 21.468 2.26831 21.3529 2.26223 21.3313C2.25337 21.3042 2.24729 21.2798 2.2412 21.2527C2.23511 21.2256 2.22902 21.1985 2.22294 21.1741C2.18974 21.0469 2.2257 21.292 2.22017 21.1714C2.2174 21.0895 2.21408 21.0109 2.21408 20.929V9.05211C2.21408 9.01559 2.22017 8.98238 2.22017 8.94641C2.22626 8.85843 2.18365 9.09472 2.22017 8.96468C2.23511 8.91321 2.24452 8.85898 2.26278 8.80752C2.26887 8.78926 2.28713 8.67416 2.27495 8.76491C2.26278 8.84958 2.28104 8.75274 2.29321 8.72839C2.32365 8.66807 2.35962 8.61329 2.39614 8.55906C2.45978 8.46222 2.37511 8.58949 2.37511 8.58617C2.37235 8.58009 2.43266 8.51977 2.44152 8.51368C2.45037 8.50483 2.55662 8.38641 2.57156 8.3925C2.57432 8.39526 2.46586 8.46499 2.54444 8.41352C2.57156 8.39526 2.59867 8.377 2.62911 8.35929C2.65622 8.34103 2.68666 8.32609 2.71709 8.3106L2.75361 8.29234C2.81393 8.26522 2.80231 8.26799 2.72041 8.30451C2.72318 8.28625 2.85377 8.2619 2.8748 8.25581C2.908 8.24696 2.94121 8.24087 2.97441 8.23479C3.05907 8.21376 2.82002 8.24087 2.95615 8.23755C2.99875 8.23755 3.04081 8.23147 3.08619 8.23147H17.995C18.6125 8.23147 19.2328 8.2287 19.8498 8.23147H19.8924C19.9229 8.23147 19.95 8.23147 19.9804 8.23423C19.9954 8.23423 20.0075 8.237 20.023 8.237C20.0592 8.24106 20.0601 8.24106 20.0258 8.237C20.0136 8.23423 19.9987 8.23423 19.9865 8.23091C20.0136 8.237 20.0407 8.23977 20.0684 8.24585C20.1287 8.26079 20.2018 8.30008 20.2621 8.30617C20.1741 8.30008 20.1741 8.26356 20.2289 8.294C20.2593 8.30894 20.2892 8.32443 20.3169 8.33937C20.3318 8.34823 20.4652 8.41186 20.4679 8.43621C20.4679 8.43344 20.3711 8.35155 20.4375 8.41518C20.4619 8.43953 20.4862 8.46056 20.51 8.48159C20.5343 8.50594 20.5554 8.53028 20.5764 8.55408C20.6583 8.63598 20.5128 8.45115 20.5792 8.55685C20.6063 8.60222 20.6367 8.64483 20.6638 8.69297C20.6788 8.72009 20.6909 8.75329 20.7092 8.78096C20.7546 8.85068 20.6666 8.64151 20.7004 8.76602C20.7153 8.81748 20.7336 8.86894 20.7457 8.92317C20.7485 8.93535 20.7518 8.95029 20.7546 8.96246C20.7605 8.99862 20.7614 8.99862 20.7574 8.96246C20.7513 8.90823 20.7513 8.911 20.7574 8.96523C20.7574 8.98017 20.7601 8.99234 20.7601 9.00784C20.7723 9.20152 20.7629 9.39796 20.7629 9.59219V20.5593C20.754 20.7287 20.754 20.8891 20.754 21.0524C20.754 21.37 21.0324 21.6727 21.3594 21.6578C21.6865 21.6428 21.9648 21.3916 21.9648 21.0524V9.46658C21.9648 9.11242 21.9736 8.75827 21.8469 8.41629C21.5293 7.56577 20.7452 7.03011 19.8404 7.02734H3.24224C2.71875 7.02734 2.22515 7.14244 1.80183 7.46893C1.2966 7.8596 1.00885 8.46499 1 9.10025V21.0026C1.00277 21.9499 1.60815 22.8182 2.54334 23.0605C2.81891 23.133 3.09117 23.1303 3.36951 23.1303H18.2346C18.7852 23.1303 19.333 23.1364 19.8836 23.1303C21.0274 23.1181 21.9476 22.1984 21.9653 21.0574C21.9681 20.7397 21.6837 20.437 21.36 20.452C21.0302 20.4642 20.7607 20.7154 20.7546 21.054H20.7551Z" fill="white"/>
<path d="M2.04937 19.3145C2.57894 18.7666 3.10851 18.2221 3.63808 17.6743C4.48252 16.8027 5.32695 15.9312 6.17415 15.0569C6.36783 14.8571 6.56428 14.6546 6.75851 14.4548H5.9019C6.39827 14.8665 6.8974 15.2782 7.39377 15.6894C8.18342 16.3429 8.97031 16.9937 9.76051 17.6472C9.94202 17.7982 10.1235 17.9499 10.305 18.0982C10.5474 18.3007 10.9253 18.3555 11.1616 18.0982C11.3675 17.8741 11.4217 17.4568 11.1616 17.2416C10.6653 16.8299 10.1661 16.4182 9.66976 16.007C8.88011 15.3535 8.09322 14.7027 7.30302 14.0492C7.12151 13.8981 6.94001 13.7465 6.75851 13.5982C6.5106 13.3924 6.14704 13.3442 5.9019 13.5982C5.37233 14.146 4.84276 14.6905 4.31319 15.2384C3.46875 16.1099 2.62432 16.9815 1.77711 17.8558C1.58344 18.0556 1.38699 18.2581 1.19331 18.4579C0.97252 18.6847 0.950939 19.0904 1.19331 19.3145C1.43237 19.5353 1.81364 19.5596 2.04992 19.3145H2.04937Z" fill="white"/>
<path d="M9.33994 19.9223L11.8091 17.4532C13.1194 16.1428 14.4298 14.8358 15.7368 13.5254L16.6294 12.6328H15.7728C16.3389 13.0805 16.9078 13.5254 17.4733 13.9736C18.3692 14.6786 19.2651 15.3836 20.1604 16.0892C20.3691 16.2524 20.5782 16.419 20.7869 16.5822C20.9169 16.6851 21.0408 16.7609 21.2135 16.7609C21.3618 16.7609 21.5405 16.6945 21.6401 16.5822C21.8399 16.3642 21.9063 15.9348 21.6401 15.7256C21.074 15.2779 20.5052 14.833 19.9397 14.3848C19.0438 13.6798 18.1479 12.9748 17.2525 12.2693C17.0439 12.106 16.8347 11.9395 16.6261 11.7762C16.3688 11.5737 16.024 11.5222 15.7695 11.7762L13.3004 14.2453C11.9961 15.5524 10.6857 16.8628 9.37812 18.1731L8.48555 19.0657C8.26143 19.2898 8.24317 19.701 8.48555 19.9223C8.7246 20.1431 9.09978 20.1614 9.33884 19.9223H9.33994Z" fill="white"/>
<path d="M11.2704 11.213C11.2704 11.2556 11.2677 11.2976 11.2643 11.3402C11.2616 11.4066 11.2311 11.3768 11.2704 11.3037C11.2433 11.3552 11.24 11.4432 11.2217 11.5002C11.2156 11.5212 11.1974 11.5544 11.1946 11.576C11.2068 11.4764 11.2339 11.4913 11.2068 11.5428C11.1979 11.5577 11.1039 11.7514 11.0856 11.7486C11.0828 11.7486 11.1852 11.6335 11.1066 11.7182C11.0856 11.7425 11.064 11.7669 11.0402 11.7907C11.0253 11.8056 10.9345 11.9146 10.9102 11.9119C10.9345 11.9146 11.0192 11.8421 10.919 11.8997C10.8886 11.9146 10.8615 11.9362 10.8344 11.9512C10.81 11.9633 10.7857 11.9755 10.7646 11.9877C10.6529 12.0513 10.8737 11.9545 10.7619 11.9904C10.6955 12.0087 10.6318 12.027 10.5654 12.0447C10.4476 12.0751 10.608 12.0386 10.6047 12.0419C10.5959 12.0541 10.5167 12.048 10.499 12.0508C10.4354 12.0535 10.3718 12.048 10.3081 12.048C10.1687 12.0419 10.411 12.0723 10.3264 12.0508C10.281 12.0386 10.2323 12.0297 10.1869 12.0176C10.1598 12.0087 10.1355 11.9993 10.1111 11.9932C9.99934 11.9567 10.1476 12.0054 10.1443 12.0082C10.1294 12.0203 9.99325 11.9263 9.96891 11.9141C9.97167 11.9168 9.9025 11.8748 9.9025 11.8687C9.92353 11.8836 9.94179 11.8991 9.96282 11.9141C9.94179 11.8991 9.92353 11.8809 9.9025 11.8626C9.85381 11.8172 9.80843 11.7685 9.76305 11.7204C9.67507 11.6263 9.80566 11.8051 9.77191 11.7326C9.75973 11.7055 9.73262 11.675 9.71768 11.6479C9.69942 11.6175 9.62084 11.457 9.65736 11.5422C9.69997 11.6363 9.64851 11.5151 9.64519 11.5029C9.63633 11.4758 9.63025 11.4515 9.62084 11.4244C9.61199 11.3912 9.6059 11.3579 9.59981 11.3247C9.59096 11.2794 9.59372 11.2976 9.6059 11.3823C9.60313 11.3613 9.60313 11.3397 9.59981 11.3187C9.59372 11.255 9.59372 11.1914 9.59704 11.1277C9.59704 11.1128 9.59981 11.1006 9.59981 11.0851C9.60387 11.049 9.60387 11.0481 9.59981 11.0824C9.59704 11.0945 9.59704 11.1095 9.59372 11.1217C9.59981 11.0945 9.60258 11.0674 9.60867 11.0398C9.62361 10.9794 9.64519 10.9247 9.6629 10.8643C9.68724 10.7824 9.59317 10.9944 9.65681 10.8793C9.67507 10.8428 9.69333 10.8096 9.71436 10.7736C9.72653 10.7526 9.74479 10.7282 9.75697 10.7072C9.82337 10.5893 9.66622 10.8013 9.75697 10.7044C9.79349 10.6651 9.82669 10.6258 9.86598 10.5893C9.87815 10.5805 9.94179 10.5074 9.95673 10.5107C9.9595 10.5107 9.82946 10.5954 9.92962 10.5351C9.98993 10.4986 10.063 10.4687 10.1205 10.4261C10.1869 10.3807 9.98108 10.4687 10.1056 10.4322C10.1327 10.4233 10.1571 10.4139 10.1814 10.4078C10.2146 10.399 10.2478 10.3896 10.281 10.3835C10.39 10.3591 10.2899 10.347 10.2627 10.3807C10.2838 10.3564 10.4199 10.3719 10.4537 10.3719C10.4902 10.3719 10.5234 10.3746 10.5593 10.3779C10.6833 10.384 10.4354 10.3475 10.5621 10.3807C10.6285 10.3956 10.6922 10.4172 10.7586 10.4349C10.8886 10.4742 10.6435 10.3685 10.7613 10.4377C10.7945 10.456 10.831 10.4742 10.867 10.4953C10.8914 10.5074 10.9124 10.5257 10.9334 10.5379C11.0424 10.6015 10.8515 10.4593 10.9362 10.5379C10.9937 10.5921 11.048 10.6469 11.1028 10.7044C11.1664 10.7741 11.0784 10.6773 11.0817 10.674C11.0878 10.674 11.142 10.7681 11.1481 10.7736C11.1664 10.8007 11.1786 10.8311 11.1968 10.8616C11.2632 10.9794 11.1846 10.8162 11.1996 10.8643C11.2206 10.9368 11.245 11.0066 11.2599 11.0791C11.2903 11.1969 11.2571 11.0398 11.2571 11.0398C11.2782 11.0608 11.2693 11.1881 11.2693 11.2124C11.2754 11.53 11.5449 11.8327 11.8747 11.8178C12.1984 11.8029 12.4862 11.5516 12.4801 11.2124C12.4679 10.3259 11.9112 9.56615 11.079 9.26955C10.3164 8.99729 9.39009 9.25738 8.87601 9.88102C8.32541 10.55 8.2164 11.5029 8.66739 12.2566C9.11838 13.0103 9.98661 13.3733 10.8405 13.2161C11.7906 13.0407 12.4624 12.157 12.4779 11.2096C12.484 10.892 12.1962 10.5893 11.8725 10.6043C11.5427 10.6225 11.2732 10.8738 11.2704 11.2124V11.213Z" fill="white"/>
<path d="M6.10471 5.21199H22.9242C22.9514 5.21199 22.9818 5.21199 23.0089 5.21476C23.0238 5.21476 23.036 5.21753 23.0515 5.21753C23.0877 5.22158 23.0886 5.22158 23.0543 5.21753C22.9879 5.181 23.0393 5.21753 23.0753 5.22361C23.1085 5.2297 23.1417 5.23855 23.1749 5.24796C23.202 5.25405 23.2264 5.26622 23.2507 5.27231C23.3625 5.30883 23.1417 5.21199 23.2535 5.27231C23.2989 5.29666 23.3476 5.32101 23.3929 5.34812C23.414 5.36306 23.4356 5.37856 23.4593 5.39073C23.5684 5.46045 23.3896 5.32101 23.4472 5.38188C23.4865 5.42448 23.5352 5.46045 23.5744 5.50583C23.5805 5.51468 23.6287 5.56338 23.6259 5.56615C23.5772 5.49974 23.5656 5.48425 23.5927 5.52077C23.6049 5.53571 23.6171 5.55397 23.6259 5.56947C23.6563 5.61484 23.6835 5.66022 23.7078 5.70559C23.7078 5.70283 23.7443 5.772 23.741 5.77809C23.7532 5.75706 23.6923 5.65413 23.7322 5.76591C23.7504 5.82346 23.7626 5.88378 23.7809 5.94465C23.793 5.99334 23.7687 6.02655 23.7781 5.90536C23.7753 5.94465 23.7869 5.99334 23.7869 6.03263V18.0252C23.7869 18.3428 24.0653 18.6455 24.3923 18.6305C24.7194 18.6156 24.9977 18.3644 24.9977 18.0252V8.1321C24.9977 7.45146 25.0038 6.7675 24.9977 6.08631C24.9855 4.96077 24.0957 4.03443 22.9669 4.00123C22.8368 3.99846 22.7068 4.00123 22.5734 4.00123H6.1108C5.79316 4.00123 5.49047 4.27957 5.50541 4.60661C5.51427 4.93365 5.7655 5.21199 6.10471 5.21199Z" fill="white"/>
</g>
<defs>
<clipPath id="clip0_129_1931">
<rect width="24" height="19.1326" fill="white" transform="translate(1 4)"/>
</clipPath>
</defs>
</svg>
