<svg width="26" height="26" viewBox="0 0 26 26" fill="none" xmlns="http://www.w3.org/2000/svg">
<g clip-path="url(#clip0_607_1859)">
<path d="M13.4997 1C12.6976 1 11.917 1.08612 11.1655 1.23229C10.9579 1.27117 10.791 1.42471 10.7349 1.62846L10.1493 3.816C9.02869 4.21956 8.00849 4.81996 7.11772 5.57293L4.93018 4.98729C4.72594 4.93266 4.50841 4.99959 4.37012 5.15954C3.86815 5.73632 3.40209 6.36724 3.001 7.06312C2.59991 7.75753 2.27658 8.47457 2.02755 9.19899C1.96112 9.39929 2.01427 9.61977 2.16535 9.76741L3.7584 11.3609C3.65407 11.9372 3.57729 12.5199 3.57729 13.1267C3.57729 13.7335 3.65357 14.3157 3.7584 14.8925L2.16585 16.4851C2.01476 16.6327 1.96161 16.8532 2.02805 17.0535C2.27707 17.7779 2.6004 18.495 3.00149 19.1894C3.40308 19.8848 3.86864 20.5162 4.37062 21.0929C4.50891 21.2529 4.72643 21.3198 4.93067 21.2652L7.11821 20.6796C8.00898 21.4325 9.02918 22.0329 10.1498 22.4365L10.7354 24.624C10.7915 24.8278 10.9584 24.9818 11.166 25.0202C11.9175 25.1669 12.6976 25.2525 13.5002 25.2525C14.3029 25.2525 15.083 25.1664 15.8344 25.0202C16.0421 24.9813 16.209 24.8278 16.2651 24.624L16.8507 22.4365C17.9713 22.0329 18.9915 21.4325 19.8823 20.6796L22.0698 21.2652C22.274 21.3198 22.4916 21.2529 22.6299 21.0929C23.1318 20.5162 23.5979 19.8852 23.999 19.1894C24.4001 18.495 24.7234 17.7779 24.9724 17.0535C25.0389 16.8532 24.9857 16.6327 24.8346 16.4851L23.2411 14.8915C23.3454 14.3152 23.4222 13.7326 23.4222 13.1258C23.4222 12.5189 23.3459 11.9367 23.2411 11.36L24.8346 9.76643C24.9857 9.61879 25.0389 9.39831 24.9724 9.19801C24.7234 8.47358 24.4001 7.75654 23.999 7.06214C23.5974 6.36675 23.1318 5.73534 22.6299 5.15855C22.4916 4.99861 22.274 4.93168 22.0698 4.98631L19.8823 5.57195C18.991 4.81898 17.9713 4.21857 16.8507 3.81502L16.2651 1.62747C16.209 1.42373 16.0421 1.26969 15.8344 1.2313C15.0825 1.08612 14.3024 1 13.4997 1ZM13.4997 2.10239C14.108 2.10239 14.704 2.18506 15.2911 2.28349L15.8512 4.35932C15.9004 4.53846 16.0362 4.68118 16.2129 4.73827C17.4088 5.1246 18.4954 5.7565 19.4083 6.58132C19.5471 6.71026 19.742 6.75898 19.9251 6.71026L22.0009 6.15021C22.3808 6.61036 22.747 7.08674 23.0516 7.61431C23.3572 8.14434 23.5831 8.69948 23.7923 9.25953L22.2765 10.7753C22.1441 10.9052 22.0856 11.0927 22.1215 11.2748C22.2489 11.8713 22.3193 12.4914 22.3193 13.1267C22.3193 13.7621 22.2489 14.3817 22.1215 14.9782C22.0856 15.1602 22.1441 15.3477 22.2765 15.4777L23.7923 16.9935C23.5831 17.553 23.3572 18.1086 23.0516 18.6387C22.747 19.1662 22.3808 19.6426 22.0009 20.1028L19.9251 19.5427C19.742 19.4945 19.5471 19.5427 19.4083 19.6717C18.4954 20.496 17.4093 21.1284 16.2129 21.5147C16.0362 21.5718 15.8999 21.7145 15.8512 21.8937L15.2911 23.9695C14.704 24.0679 14.108 24.1506 13.4997 24.1506C12.8915 24.1506 12.2955 24.0679 11.7084 23.9695L11.1483 21.8937C11.0991 21.7145 10.9633 21.5718 10.7866 21.5147C9.59071 21.1284 8.50407 20.496 7.59116 19.6717C7.45238 19.5427 7.25749 19.494 7.07441 19.5427L4.99858 20.1028C4.61865 19.6426 4.2525 19.1662 3.94787 18.6387C3.64225 18.1086 3.41636 17.5535 3.20721 16.9935L4.72299 15.4777C4.85537 15.3477 4.91394 15.1602 4.87801 14.9782C4.75055 14.3817 4.68017 13.7621 4.68017 13.1267C4.68017 12.4914 4.75055 11.8718 4.87801 11.2753C4.91394 11.0932 4.85537 10.9057 4.72299 10.7758L3.20721 9.26002C3.41636 8.70046 3.64225 8.14484 3.94787 7.61481C4.2525 7.08724 4.61865 6.61085 4.99858 6.1507L7.07441 6.71075C7.25749 6.75898 7.45238 6.71075 7.59116 6.58181C8.50407 5.75748 9.59022 5.12509 10.7866 4.73876C10.9633 4.68167 11.0996 4.53895 11.1483 4.35982L11.7084 2.28398C12.2955 2.18556 12.8915 2.10288 13.4997 2.10288V2.10239ZM13.4997 7.33872C10.3097 7.33872 7.71222 9.93671 7.71222 13.1262C7.71222 16.3158 10.3102 18.9138 13.4997 18.9138C16.6893 18.9138 19.2873 16.3158 19.2873 13.1262C19.2873 9.93671 16.6893 7.33872 13.4997 7.33872ZM13.4997 8.4411C16.0938 8.4411 18.1849 10.5322 18.1849 13.1262C18.1849 15.7203 16.0938 17.8114 13.4997 17.8114C10.9057 17.8114 8.81461 15.7203 8.81461 13.1262C8.81461 10.5322 10.9057 8.4411 13.4997 8.4411Z" fill="white"/>
</g>
<defs>
<clipPath id="clip0_607_1859">
<rect width="23" height="24.2525" fill="white" transform="translate(2 1)"/>
</clipPath>
</defs>
</svg>
