<svg width="26" height="26" viewBox="0 0 26 26" fill="none" xmlns="http://www.w3.org/2000/svg">
<g clip-path="url(#clip0_607_1845)">
<path d="M20.7551 21.0542C20.7551 21.0907 20.7551 21.1239 20.7524 21.1599C20.7435 21.2871 20.7645 21.1477 20.7551 21.1449C20.7673 21.151 20.7247 21.2844 20.7186 21.3054C20.7098 21.3386 20.6976 21.369 20.6882 21.4022C20.6638 21.4841 20.7579 21.2689 20.6943 21.3873C20.6611 21.4448 20.6339 21.5052 20.5974 21.5599C20.5974 21.5599 20.5581 21.6236 20.552 21.6236C20.5764 21.6208 20.6367 21.5267 20.5581 21.6086C20.5155 21.6512 20.4735 21.6933 20.4309 21.7326C20.3645 21.7962 20.4613 21.7143 20.4613 21.7116C20.4613 21.7176 20.4071 21.7508 20.3977 21.7569C20.3373 21.7962 20.2676 21.8233 20.2068 21.8626C20.137 21.908 20.3462 21.82 20.2217 21.8538C20.1946 21.8599 20.1702 21.872 20.1459 21.8781C20.1188 21.887 20.0944 21.8931 20.0673 21.8991C20.0551 21.9019 20.0402 21.9052 20.028 21.908C19.9919 21.9139 19.9919 21.9148 20.028 21.9108C20.0402 21.908 20.0551 21.908 20.0673 21.9047C20.0402 21.9075 20.0131 21.9108 19.9826 21.9108C19.9555 21.9135 19.9251 21.9135 19.898 21.9135H3.03362C2.99709 21.9135 2.96389 21.9074 2.92792 21.9074C2.83994 21.9014 3.07623 21.944 2.94619 21.9074C2.87978 21.8892 2.81614 21.8742 2.74974 21.8532C2.63464 21.8167 2.78626 21.8682 2.78294 21.8682C2.77409 21.8742 2.70436 21.8316 2.69219 21.8228C2.63796 21.7957 2.58926 21.7625 2.54112 21.7287C2.44428 21.6651 2.57156 21.7497 2.56824 21.7497C2.56547 21.7525 2.51677 21.7044 2.50792 21.6983C2.48357 21.6772 2.45922 21.6529 2.4382 21.6286C2.41993 21.6075 2.3231 21.5317 2.39559 21.5832C2.46199 21.6319 2.39282 21.5771 2.37456 21.5467C2.35962 21.5256 2.34744 21.5013 2.33195 21.4803C2.31978 21.4559 2.30484 21.4349 2.29266 21.4105C2.28049 21.3834 2.25946 21.2893 2.2744 21.374C2.28657 21.4681 2.26831 21.353 2.26223 21.3314C2.25337 21.3043 2.24729 21.2799 2.2412 21.2528C2.23511 21.2257 2.22902 21.1986 2.22294 21.1742C2.18974 21.047 2.2257 21.2921 2.22017 21.1715C2.2174 21.0896 2.21408 21.011 2.21408 20.9291V9.05222C2.21408 9.0157 2.22017 8.9825 2.22017 8.94653C2.22626 8.85855 2.18365 9.09483 2.22017 8.96479C2.23511 8.91333 2.24452 8.8591 2.26278 8.80764C2.26887 8.78937 2.28713 8.67428 2.27495 8.76503C2.26278 8.84969 2.28104 8.75285 2.29321 8.7285C2.32365 8.66819 2.35962 8.6134 2.39614 8.55918C2.45978 8.46234 2.37511 8.58961 2.37511 8.58629C2.37235 8.5802 2.43266 8.51989 2.44152 8.5138C2.45037 8.50495 2.55662 8.38652 2.57156 8.39261C2.57432 8.39538 2.46586 8.4651 2.54444 8.41364C2.57156 8.39538 2.59867 8.37712 2.62911 8.35941C2.65622 8.34115 2.68666 8.32621 2.71709 8.31071L2.75361 8.29245C2.81393 8.26534 2.80231 8.26811 2.72041 8.30463C2.72318 8.28637 2.85377 8.26202 2.8748 8.25593C2.908 8.24708 2.94121 8.24099 2.97441 8.2349C3.05907 8.21388 2.82002 8.24099 2.95615 8.23767C2.99875 8.23767 3.04081 8.23158 3.08619 8.23158H17.995C18.6125 8.23158 19.2328 8.22882 19.8498 8.23158H19.8924C19.9229 8.23158 19.95 8.23158 19.9804 8.23435C19.9954 8.23435 20.0075 8.23712 20.023 8.23712C20.0592 8.24117 20.0601 8.24117 20.0258 8.23712C20.0136 8.23435 19.9987 8.23435 19.9865 8.23103C20.0136 8.23712 20.0407 8.23988 20.0684 8.24597C20.1287 8.26091 20.2018 8.3002 20.2621 8.30629C20.1741 8.3002 20.1741 8.26368 20.2289 8.29411C20.2593 8.30905 20.2892 8.32455 20.3169 8.33949C20.3318 8.34834 20.4652 8.41198 20.4679 8.43633C20.4679 8.43356 20.3711 8.35166 20.4375 8.4153C20.4619 8.43965 20.4862 8.46068 20.51 8.4817C20.5343 8.50605 20.5554 8.5304 20.5764 8.55419C20.6583 8.63609 20.5128 8.45127 20.5792 8.55696C20.6063 8.60234 20.6367 8.64495 20.6638 8.69309C20.6788 8.7202 20.6909 8.75341 20.7092 8.78107C20.7546 8.8508 20.6666 8.64163 20.7004 8.76613C20.7153 8.8176 20.7336 8.86906 20.7457 8.92329C20.7485 8.93546 20.7518 8.9504 20.7546 8.96258C20.7605 8.99873 20.7614 8.99873 20.7574 8.96258C20.7513 8.90835 20.7513 8.91112 20.7574 8.96535C20.7574 8.98029 20.7601 8.99246 20.7601 9.00795C20.7723 9.20163 20.7629 9.39808 20.7629 9.59231V20.5595C20.754 20.7288 20.754 20.8893 20.754 21.0525C20.754 21.3701 21.0324 21.6728 21.3594 21.6579C21.6865 21.6429 21.9648 21.3917 21.9648 21.0525V9.46669C21.9648 9.11254 21.9736 8.75839 21.8469 8.41641C21.5293 7.56588 20.7452 7.03023 19.8404 7.02746H3.24224C2.71875 7.02746 2.22515 7.14256 1.80183 7.46905C1.2966 7.85972 1.00885 8.4651 1 9.10037V21.0027C1.00277 21.9501 1.60815 22.8183 2.54334 23.0607C2.81891 23.1332 3.09117 23.1304 3.36951 23.1304H18.2346C18.7852 23.1304 19.333 23.1365 19.8836 23.1304C21.0274 23.1182 21.9476 22.1985 21.9653 21.0575C21.9681 20.7399 21.6837 20.4372 21.36 20.4521C21.0302 20.4643 20.7607 20.7155 20.7546 21.0542H20.7551Z" fill="white"/>
<path d="M2.04974 19.3144C2.57931 18.7665 3.10888 18.222 3.63845 17.6742C4.48288 16.8027 5.32732 15.9311 6.17452 15.0568C6.3682 14.857 6.56464 14.6545 6.75887 14.4547H5.90226C6.39863 14.8664 6.89777 15.2781 7.39414 15.6893C8.18379 16.3428 8.97067 16.9936 9.76088 17.6471C9.94238 17.7982 10.1239 17.9498 10.3054 18.0981C10.5478 18.3006 10.9257 18.3554 11.162 18.0981C11.3679 17.874 11.4221 17.4567 11.162 17.2415C10.6656 16.8298 10.1665 16.4181 9.67013 16.0069C8.88048 15.3534 8.09359 14.7026 7.30338 14.0491C7.12188 13.898 6.94038 13.7464 6.75887 13.5981C6.51097 13.3923 6.1474 13.3441 5.90226 13.5981C5.37269 14.1459 4.84312 14.6905 4.31355 15.2383C3.46912 16.1098 2.62468 16.9814 1.77748 17.8557C1.5838 18.0555 1.38736 18.258 1.19368 18.4578C0.972886 18.6846 0.951305 19.0903 1.19368 19.3144C1.43273 19.5352 1.814 19.5595 2.05029 19.3144H2.04974Z" fill="white"/>
<path d="M9.33982 19.9225L11.8089 17.4534C13.1193 16.143 14.4297 14.836 15.7367 13.5256L16.6293 12.633H15.7727C16.3388 13.0807 16.9076 13.5256 17.4732 13.9739C18.3691 14.6788 19.265 15.3838 20.1603 16.0894C20.3689 16.2526 20.5781 16.4192 20.7867 16.5824C20.9168 16.6853 21.0407 16.7612 21.2134 16.7612C21.3617 16.7612 21.5404 16.6947 21.64 16.5824C21.8398 16.3644 21.9062 15.935 21.64 15.7258C21.0739 15.2781 20.5051 14.8332 19.9395 14.385C19.0436 13.68 18.1477 12.975 17.2524 12.2695C17.0438 12.1062 16.8346 11.9397 16.626 11.7764C16.3687 11.5739 16.0239 11.5224 15.7694 11.7764L13.3003 14.2456C11.996 15.5526 10.6856 16.863 9.378 18.1733L8.48542 19.0659C8.26131 19.29 8.24305 19.7012 8.48542 19.9225C8.72448 20.1433 9.09966 20.1616 9.33871 19.9225H9.33982Z" fill="white"/>
<path d="M11.2704 11.2131C11.2704 11.2557 11.2677 11.2978 11.2643 11.3404C11.2616 11.4068 11.2311 11.3769 11.2704 11.3039C11.2433 11.3553 11.24 11.4433 11.2217 11.5003C11.2156 11.5213 11.1974 11.5545 11.1946 11.5761C11.2068 11.4765 11.2339 11.4915 11.2068 11.5429C11.1979 11.5579 11.1039 11.7515 11.0856 11.7488C11.0828 11.7488 11.1852 11.6337 11.1066 11.7183C11.0856 11.7427 11.064 11.767 11.0402 11.7908C11.0253 11.8058 10.9345 11.9148 10.9102 11.912C10.9345 11.9148 11.0192 11.8423 10.919 11.8998C10.8886 11.9148 10.8615 11.9364 10.8344 11.9513C10.81 11.9635 10.7857 11.9757 10.7646 11.9878C10.6529 12.0515 10.8737 11.9546 10.7619 11.9906C10.6955 12.0089 10.6318 12.0271 10.5654 12.0448C10.4476 12.0753 10.608 12.0387 10.6047 12.0421C10.5959 12.0542 10.5167 12.0481 10.499 12.0509C10.4354 12.0537 10.3718 12.0481 10.3081 12.0481C10.1687 12.0421 10.411 12.0725 10.3264 12.0509C10.281 12.0387 10.2323 12.0299 10.1869 12.0177C10.1598 12.0089 10.1355 11.9994 10.1111 11.9934C9.99934 11.9568 10.1476 12.0055 10.1443 12.0083C10.1294 12.0205 9.99325 11.9264 9.96891 11.9142C9.97167 11.917 9.9025 11.8749 9.9025 11.8689C9.92353 11.8838 9.94179 11.8993 9.96282 11.9142C9.94179 11.8993 9.92353 11.881 9.9025 11.8628C9.85381 11.8174 9.80843 11.7687 9.76305 11.7206C9.67507 11.6265 9.80566 11.8052 9.77191 11.7327C9.75973 11.7056 9.73262 11.6752 9.71768 11.6481C9.69942 11.6176 9.62084 11.4571 9.65736 11.5424C9.69997 11.6364 9.64851 11.5153 9.64519 11.5031C9.63633 11.476 9.63025 11.4516 9.62084 11.4245C9.61199 11.3913 9.6059 11.3581 9.59981 11.3249C9.59096 11.2795 9.59372 11.2978 9.6059 11.3824C9.60313 11.3614 9.60313 11.3398 9.59981 11.3188C9.59372 11.2552 9.59372 11.1915 9.59704 11.1279C9.59704 11.113 9.59981 11.1008 9.59981 11.0853C9.60387 11.0491 9.60387 11.0482 9.59981 11.0825C9.59704 11.0947 9.59704 11.1096 9.59372 11.1218C9.59981 11.0947 9.60258 11.0676 9.60867 11.0399C9.62361 10.9796 9.64519 10.9248 9.6629 10.8645C9.68724 10.7826 9.59317 10.9945 9.65681 10.8794C9.67507 10.8429 9.69333 10.8097 9.71436 10.7737C9.72653 10.7527 9.74479 10.7284 9.75697 10.7073C9.82337 10.5895 9.66622 10.8014 9.75697 10.7046C9.79349 10.6653 9.82669 10.626 9.86598 10.5895C9.87815 10.5806 9.94179 10.5076 9.95673 10.5109C9.9595 10.5109 9.82946 10.5956 9.92962 10.5352C9.98993 10.4987 10.063 10.4688 10.1205 10.4262C10.1869 10.3809 9.98108 10.4688 10.1056 10.4323C10.1327 10.4235 10.1571 10.4141 10.1814 10.408C10.2146 10.3991 10.2478 10.3897 10.281 10.3836C10.39 10.3593 10.2899 10.3471 10.2627 10.3809C10.2838 10.3565 10.4199 10.372 10.4537 10.372C10.4902 10.372 10.5234 10.3748 10.5593 10.3781C10.6833 10.3842 10.4354 10.3477 10.5621 10.3809C10.6285 10.3958 10.6922 10.4174 10.7586 10.4351C10.8886 10.4744 10.6435 10.3687 10.7613 10.4378C10.7945 10.4561 10.831 10.4744 10.867 10.4954C10.8914 10.5076 10.9124 10.5258 10.9334 10.538C11.0424 10.6016 10.8515 10.4594 10.9362 10.538C10.9937 10.5922 11.048 10.647 11.1028 10.7046C11.1664 10.7743 11.0784 10.6775 11.0817 10.6741C11.0878 10.6741 11.142 10.7682 11.1481 10.7737C11.1664 10.8009 11.1786 10.8313 11.1968 10.8617C11.2632 10.9796 11.1846 10.8164 11.1996 10.8645C11.2206 10.937 11.245 11.0067 11.2599 11.0792C11.2903 11.1971 11.2571 11.0399 11.2571 11.0399C11.2782 11.0609 11.2693 11.1882 11.2693 11.2126C11.2754 11.5302 11.5449 11.8329 11.8747 11.8179C12.1984 11.803 12.4862 11.5518 12.4801 11.2126C12.4679 10.3261 11.9112 9.5663 11.079 9.2697C10.3164 8.99744 9.39009 9.25752 8.87601 9.88116C8.32541 10.5502 8.2164 11.5031 8.66739 12.2568C9.11838 13.0104 9.98661 13.3735 10.8405 13.2163C11.7906 13.0409 12.4624 12.1572 12.4779 11.2098C12.484 10.8922 12.1962 10.5895 11.8725 10.6044C11.5427 10.6227 11.2732 10.8739 11.2704 11.2126V11.2131Z" fill="white"/>
<path d="M6.10483 5.21187H22.9244C22.9515 5.21187 22.9819 5.21187 23.009 5.21464C23.024 5.21464 23.0361 5.2174 23.0516 5.2174C23.0878 5.22146 23.0887 5.22146 23.0544 5.2174C22.988 5.18088 23.0395 5.2174 23.0754 5.22349C23.1086 5.22958 23.1418 5.23843 23.175 5.24784C23.2022 5.25393 23.2265 5.2661 23.2509 5.27219C23.3626 5.30871 23.1418 5.21187 23.2536 5.27219C23.299 5.29654 23.3477 5.32088 23.3931 5.348C23.4141 5.36294 23.4357 5.37843 23.4595 5.39061C23.5685 5.46033 23.3897 5.32088 23.4473 5.38175C23.4866 5.42436 23.5353 5.46033 23.5746 5.50571C23.5807 5.51456 23.6288 5.56326 23.626 5.56602C23.5773 5.49962 23.5657 5.48413 23.5928 5.52065C23.605 5.53559 23.6172 5.55385 23.626 5.56934C23.6565 5.61472 23.6836 5.6601 23.7079 5.70547C23.7079 5.70271 23.7445 5.77188 23.7411 5.77796C23.7533 5.75694 23.6924 5.65401 23.7323 5.76579C23.7505 5.82334 23.7627 5.88366 23.781 5.94453C23.7931 5.99322 23.7688 6.02642 23.7782 5.90524C23.7754 5.94453 23.7871 5.99322 23.7871 6.03251V18.025C23.7871 18.3427 24.0654 18.6454 24.3924 18.6304C24.7195 18.6155 24.9978 18.3643 24.9978 18.025V8.13198C24.9978 7.45134 25.0039 6.76738 24.9978 6.08619C24.9857 4.96064 24.0958 4.03431 22.967 4.00111C22.8369 3.99834 22.7069 4.00111 22.5735 4.00111H6.11092C5.79329 4.00111 5.4906 4.27945 5.50554 4.60649C5.51439 4.93353 5.76562 5.21187 6.10483 5.21187Z" fill="white"/>
</g>
<defs>
<clipPath id="clip0_607_1845">
<rect width="24" height="19.1326" fill="white" transform="translate(1 4)"/>
</clipPath>
</defs>
</svg>
