<svg width="24" height="26" viewBox="0 0 24 26" fill="none" xmlns="http://www.w3.org/2000/svg">
<path d="M14.5616 0.991349C13.8614 0.353519 12.9474 0 11.9997 0C11.052 0 10.1386 0.353519 9.43777 0.991349L1.25446 8.39529C0.455771 9.11979 0 10.1485 0 11.2272V21.7773C0.00124698 22.7898 0.404021 23.76 1.11979 24.4763C1.83555 25.1921 2.80633 25.5949 3.81888 25.5961H20.1811C21.1937 25.5949 22.1638 25.1921 22.8802 24.4763C23.596 23.7606 23.9988 22.7898 24 21.7773V11.2278C24 10.1492 23.5442 9.12103 22.7455 8.39654L14.5616 0.991349ZM22.9089 21.7773C22.9076 22.5005 22.6202 23.1938 22.109 23.7051C21.5977 24.2164 20.9044 24.5038 20.1811 24.505H3.81451C3.09126 24.5038 2.39794 24.2164 1.88668 23.7051C1.37542 23.1938 1.08799 22.5005 1.08674 21.7773V11.2278C1.08737 10.4572 1.41345 9.72208 1.98457 9.20458L10.1685 1.80126C10.6692 1.34549 11.3213 1.09298 11.9984 1.09298C12.6756 1.09298 13.3277 1.34549 13.8284 1.80126L22.0117 9.20521C22.5828 9.7227 22.9089 10.4572 22.9095 11.2284V21.7779L22.9089 21.7773Z" fill="white"/>
</svg>
