<svg id="Layer_1" data-name="Layer 1" xmlns="http://www.w3.org/2000/svg" viewBox="0 0 23.03 13.22"><path d="M8.46,5.76a1.27,1.27,0,0,0-.38.94v4h-5v-4a1.32,1.32,0,0,0-.37-.94,1.36,1.36,0,0,0-1.85,0,1.27,1.27,0,0,0-.39.94V17.3a1.28,1.28,0,0,0,.38.93,1.35,1.35,0,0,0,1.87,0,1.27,1.27,0,0,0,.36-.92V13.12h5V17.3a1.28,1.28,0,0,0,.38.93,1.24,1.24,0,0,0,.92.38,1.28,1.28,0,0,0,.94-.39,1.32,1.32,0,0,0,.35-.92V6.7a1.27,1.27,0,0,0-.36-.93A1.36,1.36,0,0,0,8.46,5.76Z" transform="translate(-0.48 -5.39)"/><path d="M23,9.35h0a6.13,6.13,0,0,0-1.36-2.1A6.3,6.3,0,0,0,19.6,5.87,7,7,0,0,0,17,5.39H14.13a1.29,1.29,0,0,0-.92.37,1.27,1.27,0,0,0-.39.94V17.3a1.3,1.3,0,0,0,1.31,1.31H17a7,7,0,0,0,2.64-.48A6.11,6.11,0,0,0,23,14.64,7.1,7.1,0,0,0,23.52,12,7.08,7.08,0,0,0,23,9.35ZM21,12a4.46,4.46,0,0,1-.52,2.19A3.83,3.83,0,0,1,19,15.65a3.93,3.93,0,0,1-2.08.54H15.43V7.81H17A4,4,0,0,1,19,8.34,3.67,3.67,0,0,1,20.45,9.8,4.41,4.41,0,0,1,21,12Z" transform="translate(-0.48 -5.39)"/></svg>