<?xml version="1.0" encoding="UTF-8"?>
<!-- Generator: Adobe Illustrator 27.0.1, SVG Export Plug-In . SVG Version: 6.00 Build 0)  -->
<svg xmlns="http://www.w3.org/2000/svg" xmlns:xlink="http://www.w3.org/1999/xlink" version="1.1" id="Capa_1" x="0px" y="0px" viewBox="0 0 512 512" style="enable-background:new 0 0 512 512;" xml:space="preserve" width="512" height="512">
<g>
	<path style="fill:#33CCCC;" d="M102.875,113.875H11c-6.075,0-11-4.925-11-11s4.925-11,11-11h91.875c6.075,0,11,4.925,11,11   S108.95,113.875,102.875,113.875z"/>
	<path style="fill:#33CCCC;" d="M102.875,190.438H11c-6.075,0-11-4.925-11-11s4.925-11,11-11h91.875c6.075,0,11,4.925,11,11   S108.95,190.438,102.875,190.438z"/>
	<path style="fill:#33CCCC;" d="M102.875,267H11c-6.075,0-11-4.925-11-11s4.925-11,11-11h91.875c6.075,0,11,4.925,11,11   S108.95,267,102.875,267z"/>
	<path style="fill:#33CCCC;" d="M102.875,343.562H11c-6.075,0-11-4.925-11-11s4.925-11,11-11h91.875c6.075,0,11,4.925,11,11   S108.95,343.562,102.875,343.562z"/>
	<path style="fill:#33CCCC;" d="M102.875,420.125H11c-6.075,0-11-4.925-11-11s4.925-11,11-11h91.875c6.075,0,11,4.925,11,11   S108.95,420.125,102.875,420.125z"/>
	<path style="fill:#33CCCC;" d="M501,113.875h-91.875c-6.075,0-11-4.925-11-11s4.925-11,11-11H501c6.075,0,11,4.925,11,11   S507.075,113.875,501,113.875z"/>
	<path style="fill:#33CCCC;" d="M501,190.438h-91.875c-6.075,0-11-4.925-11-11s4.925-11,11-11H501c6.075,0,11,4.925,11,11   S507.075,190.438,501,190.438z"/>
	<path style="fill:#33CCCC;" d="M501,267h-91.875c-6.075,0-11-4.925-11-11s4.925-11,11-11H501c6.075,0,11,4.925,11,11   S507.075,267,501,267z"/>
	<path style="fill:#33CCCC;" d="M501,343.562h-91.875c-6.075,0-11-4.925-11-11s4.925-11,11-11H501c6.075,0,11,4.925,11,11   S507.075,343.562,501,343.562z"/>
	<path style="fill:#33CCCC;" d="M501,420.125h-91.875c-6.075,0-11-4.925-11-11s4.925-11,11-11H501c6.075,0,11,4.925,11,11   S507.075,420.125,501,420.125z"/>
	<path style="fill:#33CCCC;" d="M301.938,312.938h-15.312c-6.075,0-11-4.925-11-11v-91.875c0-6.075,4.925-11,11-11h15.312   c31.396,0,56.938,25.542,56.938,56.938S333.333,312.938,301.938,312.938z M297.625,290.938h4.312   c19.265,0,34.938-15.673,34.938-34.938s-15.673-34.938-34.938-34.938h-4.312V290.938z"/>
	<path style="fill:#33CCCC;" d="M225.375,199.062c-6.075,0-11,4.925-11,11V245h-39.25v-34.938c0-6.075-4.925-11-11-11   s-11,4.925-11,11v91.875c0,6.075,4.925,11,11,11s11-4.925,11-11V267h39.25v34.938c0,6.075,4.925,11,11,11s11-4.925,11-11v-91.875   C236.375,203.987,231.45,199.062,225.375,199.062z"/>
	<path d="M501,0H11C4.92,0,0,4.92,0,11v490c0,6.08,4.92,11,11,11h490c6.08,0,11-4.92,11-11V11C512,4.92,507.08,0,501,0z M113.88,22   h284.24v115.81H113.88V22z M113.88,159.81h284.24v192.38H113.88V159.81z M22,22h69.88v468H22V22z M113.88,374.19h284.24V490H113.88   V374.19z M490,490h-69.88V22H490V490z"/>
</g>















</svg>
