<svg width="26" height="26" viewBox="0 0 26 26" fill="none" xmlns="http://www.w3.org/2000/svg">
<path d="M20.1461 2H6.85393C5.83209 2.00126 4.85303 2.40773 4.13007 3.13007C3.40773 3.8524 3.00126 4.83209 3 5.85393V19.1461C3.00126 20.1679 3.40773 21.147 4.13007 21.8699C4.8524 22.5923 5.83209 22.9987 6.85393 23H20.1461C21.1679 22.9987 22.147 22.5923 22.8699 21.8699C23.5923 21.1476 23.9987 20.1679 24 19.1461V5.85393C23.9987 4.83209 23.5923 3.85303 22.8699 3.13007C22.147 2.40773 21.1679 2.00126 20.1461 2ZM22.8989 19.1461C22.8976 19.876 22.6075 20.5756 22.0916 21.0916C21.5756 21.6075 20.876 21.8982 20.1461 21.8989H6.85393C6.12404 21.8976 5.42436 21.6075 4.9084 21.0916C4.39245 20.5756 4.10175 19.876 4.10112 19.1461V5.85393C4.10238 5.12404 4.39245 4.42436 4.9084 3.9084C5.42436 3.39245 6.12404 3.10175 6.85393 3.10112H20.1461C20.876 3.10238 21.5756 3.39245 22.0916 3.9084C22.6075 4.42436 22.8982 5.12404 22.8989 5.85393V19.1461ZM17.4719 8.91757C17.4732 10.2767 16.8716 11.5672 15.8297 12.4405L15.2495 12.9269C14.2516 13.7631 13.6752 14.9983 13.6771 16.3001C13.6771 16.604 13.4305 16.8507 13.1266 16.8507C12.8227 16.8507 12.576 16.604 12.576 16.3001C12.5741 14.6724 13.2939 13.1283 14.5417 12.0831L15.1218 11.5968C15.914 10.9329 16.3714 9.95137 16.3708 8.91757C16.3702 8.26634 16.1109 7.6409 15.6497 7.18094C15.1891 6.72036 14.5643 6.46112 13.9124 6.45986H13.0869C12.4351 6.46112 11.8102 6.71973 11.3497 7.18094C10.8891 7.64153 10.6298 8.26634 10.6292 8.9182C10.6292 9.22211 10.3826 9.46876 10.0787 9.46876C9.77474 9.46876 9.52809 9.22211 9.52809 8.9182C9.52935 7.97438 9.90436 7.06957 10.572 6.40261C11.2389 5.73564 12.1437 5.36 13.0876 5.35874H13.9131C14.8569 5.36 15.7617 5.73501 16.4287 6.40261C17.0963 7.06957 17.4713 7.97438 17.4725 8.9182L17.4719 8.91757ZM13.9225 18.5471C13.9225 18.8686 13.7287 19.1593 13.4311 19.282C13.1335 19.4053 12.7912 19.3373 12.5634 19.1096C12.3356 18.8818 12.2677 18.5395 12.391 18.2419C12.5143 17.9443 12.8044 17.7505 13.1266 17.7505C13.5658 17.7505 13.9225 18.1066 13.9225 18.5464V18.5471Z" fill="white"/>
</svg>
