<svg width="57" height="53" viewBox="0 0 57 53" fill="none" xmlns="http://www.w3.org/2000/svg">
<path d="M32.7825 39.1072V35.0469H27.8885V39.9264H31.9548L33.7541 41.6716H11.4073V28.3865L13.7103 30.666V35.403H19.324V29.8468H14.574L3.92238 19.3399V16.2769H0V20.1591H3.09472L6.00952 23.044V47.0141H39.1159L41.9587 49.8278V52.2141H45.1974V49.0086H42.7864L32.7825 39.1072Z" fill="#18122A"/>
<path d="M52.7535 42.9538L50.3065 40.5674V21.9399L42.6057 14.2823V4.63017H37.2079V8.97541L28.1756 0L13.2778 14.7453L4.74928 6.33977V4.55894H2.19434V7.12334H3.95761L11.4785 14.5672L24.793 27.7098V30.4879H28.3556V26.9262H25.5847L17.0922 18.5207L28.1756 7.55074L44.9447 24.1481V35.2249L27.9237 18.3782V16.3125H25.0089V19.1618H27.1321L41.6341 33.5153L44.9447 36.7921L50.3065 42.1346L51.9258 43.7373V47.9401H56.9997V42.9538H52.7535Z" fill="#7558EA"/>
</svg>
