<svg width="200" height="29" viewBox="0 0 200 29" fill="none" xmlns="http://www.w3.org/2000/svg">
<g clip-path="url(#clip0_1306_3050)">
<path d="M18.22 21.6758V19.4191H15.5V22.1311H17.76L18.76 23.1011H6.34V15.7174L7.62 16.9843V19.6171H10.74V16.529H8.1L2.18 10.6894V8.98706H0V11.1447H1.72L3.34 12.7482V26.0703H21.74L23.32 27.6342V28.9604H25.12V27.1789H23.78L18.22 21.6758Z" fill="#18122A"/>
<path d="M29.3197 23.8137L27.9597 22.4874V12.1345L23.6797 7.87856V2.51405H20.6797V4.92907L15.6597 -0.0593262L7.37973 8.13589L2.63973 3.46422V2.47446H1.21973V3.89972H2.19973L6.37973 8.03692L13.7797 15.3414V16.8854H15.7597V14.9059H14.2197L9.49973 10.2342L15.6597 4.13726L24.9797 13.3618V19.5181L15.5197 10.155V9.00688H13.8997V10.5905H15.0797L23.1397 18.568L24.9797 20.3891L27.9597 23.3584L28.8597 24.2492V26.585H31.6797V23.8137H29.3197Z" fill="#7558EA"/>
<path d="M48.4997 10.1946V24.5659H45.1397V18.6867H38.5397V24.5857H35.1797V10.1946H38.5397V15.856H45.1397V10.1946H48.4997Z" fill="#18122A"/>
<path d="M53.8594 24.0116C52.9194 23.5167 52.1994 22.8437 51.6794 21.9925C51.1594 21.1215 50.8994 20.1516 50.8994 19.0628C50.8994 17.9741 51.1594 16.9843 51.6794 16.1331C52.1994 15.2621 52.9394 14.5891 53.8594 14.114C54.7994 13.6191 55.8394 13.3816 57.0194 13.3816C58.1994 13.3816 59.2394 13.6191 60.1794 14.114C61.0994 14.6089 61.8394 15.2819 62.3594 16.1331C62.8794 17.0041 63.1394 17.9741 63.1394 19.0628C63.1394 20.1516 62.8794 21.1413 62.3594 21.9925C61.8394 22.8635 61.0994 23.5365 60.1794 24.0116C59.2594 24.5065 58.1994 24.744 57.0194 24.744C55.8394 24.744 54.7994 24.4867 53.8594 24.0116ZM59.0594 21.2799C59.5994 20.7256 59.8594 19.9734 59.8594 19.043C59.8594 18.1126 59.5994 17.3604 59.0594 16.8062C58.5194 16.2519 57.8394 15.9748 57.0194 15.9748C56.1794 15.9748 55.4994 16.2519 54.9594 16.8062C54.4194 17.3604 54.1594 18.1126 54.1594 19.043C54.1594 19.9734 54.4194 20.7256 54.9594 21.2799C55.4994 21.8342 56.1794 22.1113 57.0194 22.1113C57.8594 22.1113 58.5394 21.8342 59.0594 21.2799Z" fill="#18122A"/>
<path d="M82.9393 14.5891C83.7593 15.4007 84.1793 16.628 84.1793 18.2513V24.5857H80.9393V18.7461C80.9393 17.8751 80.7593 17.2219 80.3793 16.7864C80.0193 16.3509 79.4993 16.1332 78.8193 16.1332C78.0593 16.1332 77.4593 16.3707 77.0193 16.8656C76.5793 17.3605 76.3593 18.0731 76.3593 19.0233V24.5659H73.1193V18.7461C73.1193 17.0042 72.4193 16.1332 70.9993 16.1332C70.2593 16.1332 69.6593 16.3707 69.2193 16.8656C68.7793 17.3605 68.5593 18.0731 68.5593 19.0233V24.5659H65.3193V13.5202H68.3993V14.7871C68.8193 14.312 69.3193 13.9557 69.9193 13.7182C70.5193 13.4806 71.1793 13.342 71.8993 13.342C72.6793 13.342 73.3993 13.5004 74.0393 13.7973C74.6793 14.1141 75.1793 14.5495 75.5793 15.1434C76.0393 14.5693 76.6193 14.1141 77.3193 13.8171C78.0193 13.5004 78.7793 13.342 79.6193 13.342C80.9993 13.3618 82.1193 13.7577 82.9393 14.5891Z" fill="#18122A"/>
<path d="M98.0794 19.9536H89.6394C89.7994 20.6465 90.1594 21.1809 90.7194 21.5769C91.2794 21.9728 91.9994 22.1707 92.8394 22.1707C93.4194 22.1707 93.9394 22.0915 94.3794 21.9134C94.8194 21.7352 95.2394 21.4779 95.6394 21.1018L97.3594 22.9427C96.2994 24.1304 94.7794 24.7243 92.7594 24.7243C91.4994 24.7243 90.3794 24.4868 89.4194 23.9919C88.4594 23.497 87.6994 22.824 87.1794 21.9728C86.6594 21.1018 86.3994 20.1318 86.3994 19.0431C86.3994 17.9543 86.6594 16.9844 87.1794 16.1134C87.6994 15.2424 88.4194 14.5693 89.3194 14.0745C90.2194 13.5796 91.2394 13.342 92.3594 13.342C93.4594 13.342 94.4394 13.5796 95.3194 14.0349C96.1994 14.51 96.8994 15.1632 97.3994 16.0342C97.8994 16.9052 98.1594 17.9147 98.1594 19.0629C98.1394 19.1222 98.1194 19.4192 98.0794 19.9536ZM90.4994 16.3905C89.9994 16.8062 89.6994 17.3605 89.5794 18.0731H95.0794C94.9594 17.3803 94.6594 16.826 94.1594 16.3905C93.6594 15.9748 93.0594 15.7571 92.3394 15.7571C91.6194 15.7769 90.9994 15.9946 90.4994 16.3905Z" fill="#18122A"/>
<path d="M101.16 10.1946H107.08C108.62 10.1946 109.98 10.4915 111.14 11.1052C112.32 11.7188 113.22 12.57 113.88 13.6587C114.54 14.7475 114.86 15.9946 114.86 17.3802C114.86 18.7659 114.54 20.013 113.88 21.1017C113.22 22.1905 112.32 23.0417 111.14 23.6553C109.96 24.269 108.6 24.5659 107.08 24.5659H101.16V10.1946ZM107 23.2594C108.28 23.2594 109.38 23.0021 110.34 22.5072C111.3 22.0123 112.04 21.3195 112.56 20.4287C113.08 19.5379 113.34 18.5284 113.34 17.3802C113.34 16.2321 113.08 15.2226 112.56 14.3318C112.04 13.441 111.3 12.7482 110.34 12.2533C109.38 11.7584 108.28 11.5011 107 11.5011H102.7V23.2594H107Z" fill="#18122A"/>
<path d="M126.979 19.617H117.839C117.919 20.7454 118.359 21.6559 119.139 22.329C119.919 23.0218 120.919 23.3583 122.119 23.3583C122.799 23.3583 123.419 23.2396 123.979 23.002C124.539 22.7645 125.039 22.4082 125.459 21.9529L126.299 22.903C125.819 23.4771 125.219 23.9126 124.479 24.2095C123.759 24.5065 122.959 24.6648 122.079 24.6648C120.959 24.6648 119.959 24.4273 119.099 23.9522C118.239 23.4771 117.559 22.8239 117.079 21.9925C116.599 21.1611 116.359 20.2109 116.359 19.1617C116.359 18.1126 116.599 17.1624 117.059 16.331C117.519 15.4996 118.159 14.8464 118.959 14.3713C119.759 13.8962 120.679 13.6785 121.679 13.6785C122.679 13.6785 123.599 13.916 124.399 14.3713C125.199 14.8464 125.839 15.4798 126.279 16.3112C126.739 17.1426 126.959 18.0928 126.959 19.1617L126.979 19.617ZM119.059 15.9351C118.339 16.6082 117.939 17.4594 117.839 18.5283H125.599C125.499 17.4594 125.099 16.5884 124.379 15.9351C123.659 15.2621 122.779 14.9454 121.719 14.9454C120.659 14.9454 119.779 15.2621 119.059 15.9351Z" fill="#18122A"/>
<path d="M129.879 24.2889C129.079 24.0316 128.439 23.7149 127.979 23.3388L128.639 22.1906C129.099 22.547 129.679 22.8439 130.359 23.0616C131.059 23.2794 131.779 23.3981 132.519 23.3981C133.519 23.3981 134.259 23.2398 134.739 22.9429C135.219 22.6261 135.459 22.1906 135.459 21.6364C135.459 21.2405 135.319 20.9237 135.059 20.706C134.799 20.4882 134.459 20.3101 134.059 20.1913C133.659 20.0725 133.119 19.9538 132.459 19.8548C131.579 19.6964 130.859 19.5183 130.319 19.3599C129.779 19.1818 129.319 18.9046 128.939 18.4889C128.559 18.0732 128.359 17.519 128.359 16.7865C128.359 15.876 128.739 15.1435 129.499 14.5695C130.259 13.9954 131.319 13.6985 132.679 13.6985C133.379 13.6985 134.099 13.7975 134.799 13.9756C135.499 14.1538 136.079 14.4111 136.539 14.708L135.899 15.876C134.999 15.2623 133.919 14.9456 132.679 14.9456C131.739 14.9456 131.019 15.1039 130.559 15.4405C130.099 15.777 129.839 16.1927 129.839 16.7272C129.839 17.1429 129.979 17.4596 130.239 17.7169C130.499 17.9545 130.839 18.1524 131.239 18.2712C131.639 18.39 132.199 18.5087 132.899 18.6275C133.779 18.7859 134.459 18.964 134.999 19.1224C135.519 19.2807 135.979 19.5579 136.339 19.9736C136.719 20.3695 136.899 20.9237 136.899 21.6166C136.899 22.5667 136.499 23.319 135.699 23.8732C134.899 24.4275 133.799 24.7046 132.379 24.7046C131.539 24.6848 130.699 24.5463 129.879 24.2889Z" fill="#18122A"/>
<path d="M139.099 11.1053C138.899 10.9073 138.779 10.65 138.779 10.3729C138.779 10.0957 138.879 9.85818 139.099 9.66023C139.299 9.46228 139.559 9.34351 139.859 9.34351C140.159 9.34351 140.419 9.44248 140.619 9.64043C140.819 9.83839 140.939 10.0759 140.939 10.3531C140.939 10.65 140.839 10.9073 140.619 11.1053C140.419 11.3032 140.159 11.422 139.859 11.422C139.579 11.4022 139.319 11.3032 139.099 11.1053ZM139.119 13.7776H140.599V24.5858H139.119V13.7776Z" fill="#18122A"/>
<path d="M154.3 13.7777V23.2596C154.3 25.1005 153.84 26.4466 152.94 27.3374C152.04 28.2282 150.66 28.6637 148.84 28.6637C147.82 28.6637 146.88 28.5251 145.96 28.2282C145.06 27.9313 144.32 27.5353 143.74 27.0009L144.48 25.8923C145 26.3674 145.64 26.7237 146.4 26.9811C147.16 27.2384 147.94 27.377 148.78 27.377C150.16 27.377 151.18 27.0603 151.84 26.4268C152.5 25.7934 152.82 24.8036 152.82 23.4575V22.0719C152.36 22.7647 151.76 23.2794 151.02 23.6357C150.28 23.992 149.46 24.1702 148.56 24.1702C147.54 24.1702 146.6 23.9524 145.76 23.4971C144.92 23.0616 144.26 22.4282 143.78 21.6364C143.3 20.8446 143.06 19.934 143.06 18.9046C143.06 17.8951 143.3 16.9845 143.78 16.1927C144.26 15.4009 144.92 14.7872 145.74 14.3517C146.56 13.9162 147.5 13.6985 148.54 13.6985C149.46 13.6985 150.3 13.8766 151.06 14.2528C151.8 14.6289 152.4 15.1633 152.86 15.8562V13.7777H154.3ZM150.86 22.3688C151.5 22.0323 152 21.5572 152.34 20.9633C152.7 20.3695 152.86 19.6766 152.86 18.9046C152.86 18.1326 152.68 17.4596 152.34 16.8657C152 16.2719 151.5 15.7968 150.86 15.4603C150.24 15.1237 149.52 14.9654 148.72 14.9654C147.94 14.9654 147.22 15.1237 146.6 15.4603C145.98 15.7968 145.48 16.2521 145.12 16.8657C144.76 17.4596 144.6 18.1524 144.6 18.9244C144.6 19.6964 144.78 20.3695 145.12 20.9831C145.48 21.577 145.96 22.0521 146.6 22.3886C147.22 22.7251 147.94 22.8835 148.72 22.8835C149.5 22.8835 150.22 22.7053 150.86 22.3688Z" fill="#18122A"/>
<path d="M166.739 14.8661C167.539 15.6579 167.959 16.8061 167.959 18.3105V24.5856H166.479V18.4491C166.479 17.3207 166.199 16.4695 165.619 15.8757C165.059 15.2818 164.239 14.9849 163.199 14.9849C162.019 14.9849 161.099 15.3214 160.399 16.0143C159.719 16.7071 159.379 17.6573 159.379 18.8846V24.546H157.899V13.7774H159.319V15.7767C159.719 15.1235 160.279 14.6088 160.999 14.2525C161.719 13.8962 162.539 13.6982 163.479 13.6982C164.839 13.6784 165.939 14.0743 166.739 14.8661Z" fill="#18122A"/>
<path d="M171.82 24.2889C171.02 24.0316 170.38 23.7149 169.92 23.3388L170.58 22.1906C171.04 22.547 171.62 22.8439 172.3 23.0616C173 23.2794 173.72 23.3981 174.46 23.3981C175.46 23.3981 176.2 23.2398 176.68 22.9429C177.16 22.6261 177.4 22.1906 177.4 21.6364C177.4 21.2405 177.26 20.9237 177 20.706C176.74 20.4882 176.4 20.3101 176 20.1913C175.6 20.0725 175.06 19.9538 174.4 19.8548C173.52 19.6964 172.8 19.5183 172.26 19.3599C171.72 19.1818 171.26 18.9046 170.88 18.4889C170.5 18.0732 170.3 17.519 170.3 16.7865C170.3 15.876 170.68 15.1435 171.44 14.5695C172.2 13.9954 173.26 13.6985 174.62 13.6985C175.32 13.6985 176.04 13.7975 176.74 13.9756C177.44 14.1538 178.02 14.4111 178.48 14.708L177.84 15.876C176.94 15.2623 175.86 14.9456 174.62 14.9456C173.68 14.9456 172.96 15.1039 172.5 15.4405C172.04 15.777 171.78 16.1927 171.78 16.7272C171.78 17.1429 171.92 17.4596 172.18 17.7169C172.44 17.9545 172.78 18.1524 173.18 18.2712C173.58 18.39 174.14 18.5087 174.84 18.6275C175.72 18.7859 176.4 18.964 176.94 19.1224C177.46 19.2807 177.92 19.5579 178.28 19.9736C178.66 20.3695 178.84 20.9237 178.84 21.6166C178.84 22.5667 178.44 23.319 177.64 23.8732C176.84 24.4275 175.74 24.7046 174.32 24.7046C173.48 24.6848 172.64 24.5463 171.82 24.2889Z" fill="#18122A"/>
<path d="M190.3 21.4979H183.56L182.28 24.5859H178.84L185.32 10.2146H188.64L195.14 24.5859H191.6L190.3 21.4979ZM189.24 18.9641L186.94 13.461L184.64 18.9641H189.24Z" fill="#7558EA"/>
<path d="M196.64 10.1946H200V24.5659H196.64V10.1946Z" fill="#7558EA"/>
</g>
<defs>
<clipPath id="clip0_1306_3050">
<rect width="200" height="29" fill="white"/>
</clipPath>
</defs>
</svg>
