<svg width="17" height="17" viewBox="0 0 17 17" fill="none" xmlns="http://www.w3.org/2000/svg">
<path fill-rule="evenodd" clip-rule="evenodd" d="M0.760254 8.40566C0.760254 5.18895 0.760254 3.5806 1.52677 2.42215C1.86905 1.90485 2.31208 1.46183 2.82938 1.11954C3.98783 0.353027 5.59618 0.353027 8.81289 0.353027C12.0296 0.353027 13.6379 0.353027 14.7964 1.11954C15.3137 1.46183 15.7567 1.90485 16.099 2.42215C16.8655 3.5806 16.8655 5.18895 16.8655 8.40566C16.8655 11.6224 16.8655 13.2307 16.099 14.3892C15.7567 14.9065 15.3137 15.3495 14.7964 15.6918C13.6379 16.4583 12.0296 16.4583 8.81289 16.4583C5.59618 16.4583 3.98783 16.4583 2.82938 15.6918C2.31208 15.3495 1.86905 14.9065 1.52677 14.3892C0.760254 13.2307 0.760254 11.6224 0.760254 8.40566ZM12.9817 8.40586C12.9817 10.7083 11.1152 12.5748 8.81274 12.5748C6.5103 12.5748 4.6438 10.7083 4.6438 8.40586C4.6438 6.10342 6.5103 4.23692 8.81274 4.23692C11.1152 4.23692 12.9817 6.10342 12.9817 8.40586ZM8.81274 11.1643C10.3362 11.1643 11.5712 9.92933 11.5712 8.40586C11.5712 6.8824 10.3362 5.64739 8.81274 5.64739C7.28928 5.64739 6.05427 6.8824 6.05427 8.40586C6.05427 9.92933 7.28928 11.1643 8.81274 11.1643ZM13.0001 5.00003C13.5524 5.00003 14.0001 4.55231 14.0001 4.00003C14.0001 3.44774 13.5524 3.00003 13.0001 3.00003C12.4478 3.00003 12.0001 3.44774 12.0001 4.00003C12.0001 4.55231 12.4478 5.00003 13.0001 5.00003Z" fill="white"/>
</svg>
