<svg width="54" height="46" viewBox="0 0 54 46" fill="none" xmlns="http://www.w3.org/2000/svg">
<path d="M8.55103 0.453613L0.707031 17.7013V20.8965H2.97846V45.8822H51.4356V20.8965H53.707V17.7013L45.863 0.453613H8.55103ZM9.52775 1.9679H44.8939L52.1927 18.0345V19.3822H49.9213C49.5049 19.3822 49.1642 19.7229 49.1642 20.1393C49.1642 20.5558 49.5049 20.8965 49.9213 20.8965V44.3679H45.3785V26.1965H31.7499V44.3679H4.49275V20.8965C4.90917 20.8965 5.24989 20.5558 5.24989 20.1393C5.24989 19.7229 4.90917 19.3822 4.49275 19.3822H2.22132V18.0345L9.52017 1.9679H9.52775ZM7.52889 19.3822C7.11246 19.3822 6.77175 19.7229 6.77175 20.1393C6.77175 20.5558 7.11246 20.8965 7.52889 20.8965C7.94532 20.8965 8.28603 20.5558 8.28603 20.1393C8.28603 19.7229 7.94532 19.3822 7.52889 19.3822ZM10.5575 19.3822C10.141 19.3822 9.80032 19.7229 9.80032 20.1393C9.80032 20.5558 10.141 20.8965 10.5575 20.8965C10.9739 20.8965 11.3146 20.5558 11.3146 20.1393C11.3146 19.7229 10.9739 19.3822 10.5575 19.3822ZM13.586 19.3822C13.1696 19.3822 12.8289 19.7229 12.8289 20.1393C12.8289 20.5558 13.1696 20.8965 13.586 20.8965C14.0025 20.8965 14.3432 20.5558 14.3432 20.1393C14.3432 19.7229 14.0025 19.3822 13.586 19.3822ZM16.6146 19.3822C16.1982 19.3822 15.8575 19.7229 15.8575 20.1393C15.8575 20.5558 16.1982 20.8965 16.6146 20.8965C17.031 20.8965 17.3717 20.5558 17.3717 20.1393C17.3717 19.7229 17.031 19.3822 16.6146 19.3822ZM19.6432 19.3822C19.2267 19.3822 18.886 19.7229 18.886 20.1393C18.886 20.5558 19.2267 20.8965 19.6432 20.8965C20.0596 20.8965 20.4003 20.5558 20.4003 20.1393C20.4003 19.7229 20.0596 19.3822 19.6432 19.3822ZM22.6717 19.3822C22.2553 19.3822 21.9146 19.7229 21.9146 20.1393C21.9146 20.5558 22.2553 20.8965 22.6717 20.8965C23.0882 20.8965 23.4289 20.5558 23.4289 20.1393C23.4289 19.7229 23.0882 19.3822 22.6717 19.3822ZM25.7003 19.3822C25.2839 19.3822 24.9432 19.7229 24.9432 20.1393C24.9432 20.5558 25.2839 20.8965 25.7003 20.8965C26.1167 20.8965 26.4575 20.5558 26.4575 20.1393C26.4575 19.7229 26.1167 19.3822 25.7003 19.3822ZM28.7289 19.3822C28.3125 19.3822 27.9717 19.7229 27.9717 20.1393C27.9717 20.5558 28.3125 20.8965 28.7289 20.8965C29.1453 20.8965 29.486 20.5558 29.486 20.1393C29.486 19.7229 29.1453 19.3822 28.7289 19.3822ZM31.7575 19.3822C31.341 19.3822 31.0003 19.7229 31.0003 20.1393C31.0003 20.5558 31.341 20.8965 31.7575 20.8965C32.1739 20.8965 32.5146 20.5558 32.5146 20.1393C32.5146 19.7229 32.1739 19.3822 31.7575 19.3822ZM34.786 19.3822C34.3696 19.3822 34.0289 19.7229 34.0289 20.1393C34.0289 20.5558 34.3696 20.8965 34.786 20.8965C35.2025 20.8965 35.5432 20.5558 35.5432 20.1393C35.5432 19.7229 35.2025 19.3822 34.786 19.3822ZM37.8146 19.3822C37.3982 19.3822 37.0575 19.7229 37.0575 20.1393C37.0575 20.5558 37.3982 20.8965 37.8146 20.8965C38.231 20.8965 38.5717 20.5558 38.5717 20.1393C38.5717 19.7229 38.231 19.3822 37.8146 19.3822ZM40.8432 19.3822C40.4267 19.3822 40.086 19.7229 40.086 20.1393C40.086 20.5558 40.4267 20.8965 40.8432 20.8965C41.2596 20.8965 41.6003 20.5558 41.6003 20.1393C41.6003 19.7229 41.2596 19.3822 40.8432 19.3822ZM43.8717 19.3822C43.4553 19.3822 43.1146 19.7229 43.1146 20.1393C43.1146 20.5558 43.4553 20.8965 43.8717 20.8965C44.2882 20.8965 44.6289 20.5558 44.6289 20.1393C44.6289 19.7229 44.2882 19.3822 43.8717 19.3822ZM46.9003 19.3822C46.4839 19.3822 46.1432 19.7229 46.1432 20.1393C46.1432 20.5558 46.4839 20.8965 46.9003 20.8965C47.3167 20.8965 47.6575 20.5558 47.6575 20.1393C47.6575 19.7229 47.3167 19.3822 46.9003 19.3822ZM10.5499 26.1965V38.3108H25.6927V26.1965H10.5499ZM12.0642 27.7108H24.1785V31.4965C23.762 31.4965 23.4213 31.8372 23.4213 32.2536C23.4213 32.67 23.762 33.0108 24.1785 33.0108V36.7965H12.0642V33.0108C12.4806 33.0108 12.8213 32.67 12.8213 32.2536C12.8213 31.8372 12.4806 31.4965 12.0642 31.4965V27.7108ZM33.2642 27.7108H43.8642V44.3679H33.2642V27.7108ZM18.1213 28.4679C17.7049 28.4679 17.3642 28.8086 17.3642 29.225C17.3642 29.6415 17.7049 29.9822 18.1213 29.9822C18.5377 29.9822 18.8785 29.6415 18.8785 29.225C18.8785 28.8086 18.5377 28.4679 18.1213 28.4679ZM15.0927 31.4965C14.6763 31.4965 14.3356 31.8372 14.3356 32.2536C14.3356 32.67 14.6763 33.0108 15.0927 33.0108C15.5092 33.0108 15.8499 32.67 15.8499 32.2536C15.8499 31.8372 15.5092 31.4965 15.0927 31.4965ZM18.1213 31.4965C17.7049 31.4965 17.3642 31.8372 17.3642 32.2536C17.3642 32.67 17.7049 33.0108 18.1213 33.0108C18.5377 33.0108 18.8785 32.67 18.8785 32.2536C18.8785 31.8372 18.5377 31.4965 18.1213 31.4965ZM21.1499 31.4965C20.7335 31.4965 20.3927 31.8372 20.3927 32.2536C20.3927 32.67 20.7335 33.0108 21.1499 33.0108C21.5663 33.0108 21.907 32.67 21.907 32.2536C21.907 31.8372 21.5663 31.4965 21.1499 31.4965ZM18.1213 34.525C17.7049 34.525 17.3642 34.8658 17.3642 35.2822C17.3642 35.6986 17.7049 36.0393 18.1213 36.0393C18.5377 36.0393 18.8785 35.6986 18.8785 35.2822C18.8785 34.8658 18.5377 34.525 18.1213 34.525ZM41.5927 36.0393C41.1763 36.0393 40.8356 36.38 40.8356 36.7965C40.8356 37.2129 41.1763 37.5536 41.5927 37.5536C42.0092 37.5536 42.3499 37.2129 42.3499 36.7965C42.3499 36.38 42.0092 36.0393 41.5927 36.0393Z" fill="#43B0FF"/>
</svg>
