<svg width="54" height="49" viewBox="0 0 54 49" fill="none" xmlns="http://www.w3.org/2000/svg">
<path d="M27.4336 0L0.933594 8.95359V15.3569L1.99359 14.9937L27.4336 6.39542L53.9336 15.349V8.95359L27.4336 0ZM27.4336 1.66597L52.3275 10.0827V13.154L27.4336 4.73735L2.53965 13.154V10.0827L27.4336 1.66597ZM3.34268 15.8385C2.90102 15.8385 2.53965 16.1938 2.53965 16.6281C2.53965 17.0624 2.90102 17.4177 3.34268 17.4177C3.78435 17.4177 4.14571 17.0624 4.14571 16.6281C4.14571 16.1938 3.78435 15.8385 3.34268 15.8385ZM51.5245 15.8385C51.0828 15.8385 50.7215 16.1938 50.7215 16.6281C50.7215 17.0624 51.0828 17.4177 51.5245 17.4177C51.9662 17.4177 52.3275 17.0624 52.3275 16.6281C52.3275 16.1938 51.9662 15.8385 51.5245 15.8385ZM18.6003 18.2072C15.9503 18.2072 13.7821 20.339 13.7821 22.9446V28.4715C11.1321 28.4715 8.9639 30.6033 8.9639 33.2088C8.9639 35.2538 10.321 36.9434 12.176 37.6067V45.0522C12.176 45.4865 12.5374 45.8418 12.979 45.8418H13.7821V49H19.4033V45.8418H35.4639V49H41.0851V45.8418H41.8881C42.3298 45.8418 42.6912 45.4865 42.6912 45.0522V37.6067C44.5462 36.9434 45.9033 35.2538 45.9033 33.2088C45.9033 30.6033 43.7351 28.4715 41.0851 28.4715V22.9446C41.0851 20.339 38.9169 18.2072 36.2669 18.2072H18.6003ZM3.34268 18.9968C2.90102 18.9968 2.53965 19.3521 2.53965 19.7863C2.53965 20.2206 2.90102 20.5759 3.34268 20.5759C3.78435 20.5759 4.14571 20.2206 4.14571 19.7863C4.14571 19.3521 3.78435 18.9968 3.34268 18.9968ZM51.5245 18.9968C51.0828 18.9968 50.7215 19.3521 50.7215 19.7863C50.7215 20.2206 51.0828 20.5759 51.5245 20.5759C51.9662 20.5759 52.3275 20.2206 52.3275 19.7863C52.3275 19.3521 51.9662 18.9968 51.5245 18.9968ZM18.6003 19.7863H36.2669C38.0497 19.7863 39.479 21.1917 39.479 22.9446V28.7478C37.616 29.4032 36.2669 31.156 36.2669 33.2088V34.48C34.6769 33.9984 31.4648 33.2088 27.4336 33.2088C23.4024 33.2088 20.1903 33.9984 18.6003 34.48V33.2088C18.6003 31.156 17.2512 29.4032 15.3881 28.7478V22.9446C15.3881 21.1917 16.8175 19.7863 18.6003 19.7863ZM3.34268 22.155C2.90102 22.155 2.53965 22.5103 2.53965 22.9446C2.53965 23.3788 2.90102 23.7341 3.34268 23.7341C3.78435 23.7341 4.14571 23.3788 4.14571 22.9446C4.14571 22.5103 3.78435 22.155 3.34268 22.155ZM51.5245 22.155C51.0828 22.155 50.7215 22.5103 50.7215 22.9446C50.7215 23.3788 51.0828 23.7341 51.5245 23.7341C51.9662 23.7341 52.3275 23.3788 52.3275 22.9446C52.3275 22.5103 51.9662 22.155 51.5245 22.155ZM24.2215 22.9446C23.7798 22.9446 23.4184 23.2999 23.4184 23.7341C23.4184 24.1684 23.7798 24.5237 24.2215 24.5237C24.6631 24.5237 25.0245 24.1684 25.0245 23.7341C25.0245 23.2999 24.6631 22.9446 24.2215 22.9446ZM30.6457 22.9446C30.204 22.9446 29.8427 23.2999 29.8427 23.7341C29.8427 24.1684 30.204 24.5237 30.6457 24.5237C31.0874 24.5237 31.4487 24.1684 31.4487 23.7341C31.4487 23.2999 31.0874 22.9446 30.6457 22.9446ZM3.34268 25.3132C2.90102 25.3132 2.53965 25.6685 2.53965 26.1028C2.53965 26.5371 2.90102 26.8924 3.34268 26.8924C3.78435 26.8924 4.14571 26.5371 4.14571 26.1028C4.14571 25.6685 3.78435 25.3132 3.34268 25.3132ZM51.5245 25.3132C51.0828 25.3132 50.7215 25.6685 50.7215 26.1028C50.7215 26.5371 51.0828 26.8924 51.5245 26.8924C51.9662 26.8924 52.3275 26.5371 52.3275 26.1028C52.3275 25.6685 51.9662 25.3132 51.5245 25.3132ZM21.0094 27.6819C20.5677 27.6819 20.2063 28.0372 20.2063 28.4715C20.2063 28.9057 20.5677 29.261 21.0094 29.261C21.451 29.261 21.8124 28.9057 21.8124 28.4715C21.8124 28.0372 21.451 27.6819 21.0094 27.6819ZM27.4336 27.6819C26.9919 27.6819 26.6306 28.0372 26.6306 28.4715C26.6306 28.9057 26.9919 29.261 27.4336 29.261C27.8753 29.261 28.2366 28.9057 28.2366 28.4715C28.2366 28.0372 27.8753 27.6819 27.4336 27.6819ZM33.8578 27.6819C33.4162 27.6819 33.0548 28.0372 33.0548 28.4715C33.0548 28.9057 33.4162 29.261 33.8578 29.261C34.2995 29.261 34.6609 28.9057 34.6609 28.4715C34.6609 28.0372 34.2995 27.6819 33.8578 27.6819ZM3.34268 28.4715C2.90102 28.4715 2.53965 28.8268 2.53965 29.261C2.53965 29.6953 2.90102 30.0506 3.34268 30.0506C3.78435 30.0506 4.14571 29.6953 4.14571 29.261C4.14571 28.8268 3.78435 28.4715 3.34268 28.4715ZM51.5245 28.4715C51.0828 28.4715 50.7215 28.8268 50.7215 29.261C50.7215 29.6953 51.0828 30.0506 51.5245 30.0506C51.9662 30.0506 52.3275 29.6953 52.3275 29.261C52.3275 28.8268 51.9662 28.4715 51.5245 28.4715ZM13.7821 30.0506C15.5648 30.0506 16.9942 31.456 16.9942 33.2088V39.5253C16.9942 39.9596 17.3556 40.3149 17.7972 40.3149H37.07C37.5116 40.3149 37.873 39.9596 37.873 39.5253V33.2088C37.873 31.456 39.3024 30.0506 41.0851 30.0506C42.8678 30.0506 44.2972 31.456 44.2972 33.2088C44.2972 34.7485 43.189 36.0118 41.7275 36.3039C41.3501 36.375 41.0851 36.6987 41.0851 37.0777V44.2626H13.7821V37.0777C13.7821 36.7066 13.509 36.3829 13.1397 36.3039C11.6781 36.0118 10.57 34.7485 10.57 33.2088C10.57 31.456 11.9994 30.0506 13.7821 30.0506ZM3.34268 31.6297C2.90102 31.6297 2.53965 31.985 2.53965 32.4193C2.53965 32.8535 2.90102 33.2088 3.34268 33.2088C3.78435 33.2088 4.14571 32.8535 4.14571 32.4193C4.14571 31.985 3.78435 31.6297 3.34268 31.6297ZM51.5245 31.6297C51.0828 31.6297 50.7215 31.985 50.7215 32.4193C50.7215 32.8535 51.0828 33.2088 51.5245 33.2088C51.9662 33.2088 52.3275 32.8535 52.3275 32.4193C52.3275 31.985 51.9662 31.6297 51.5245 31.6297ZM13.7821 32.4193C13.3404 32.4193 12.979 32.7746 12.979 33.2088C12.979 33.6431 13.3404 33.9984 13.7821 33.9984C14.2237 33.9984 14.5851 33.6431 14.5851 33.2088C14.5851 32.7746 14.2237 32.4193 13.7821 32.4193ZM41.0851 32.4193C40.6434 32.4193 40.2821 32.7746 40.2821 33.2088C40.2821 33.6431 40.6434 33.9984 41.0851 33.9984C41.5268 33.9984 41.8881 33.6431 41.8881 33.2088C41.8881 32.7746 41.5268 32.4193 41.0851 32.4193ZM3.34268 34.7879C2.90102 34.7879 2.53965 35.1432 2.53965 35.5775C2.53965 36.0118 2.90102 36.3671 3.34268 36.3671C3.78435 36.3671 4.14571 36.0118 4.14571 35.5775C4.14571 35.1432 3.78435 34.7879 3.34268 34.7879ZM27.4336 34.7879C32.3722 34.7879 35.6084 35.9249 36.2669 36.1618V38.7357H18.6003V36.1618C19.2587 35.9249 22.495 34.7879 27.4336 34.7879ZM51.5245 34.7879C51.0828 34.7879 50.7215 35.1432 50.7215 35.5775C50.7215 36.0118 51.0828 36.3671 51.5245 36.3671C51.9662 36.3671 52.3275 36.0118 52.3275 35.5775C52.3275 35.1432 51.9662 34.7879 51.5245 34.7879ZM3.34268 37.9462C2.90102 37.9462 2.53965 38.3015 2.53965 38.7357C2.53965 39.17 2.90102 39.5253 3.34268 39.5253C3.78435 39.5253 4.14571 39.17 4.14571 38.7357C4.14571 38.3015 3.78435 37.9462 3.34268 37.9462ZM51.5245 37.9462C51.0828 37.9462 50.7215 38.3015 50.7215 38.7357C50.7215 39.17 51.0828 39.5253 51.5245 39.5253C51.9662 39.5253 52.3275 39.17 52.3275 38.7357C52.3275 38.3015 51.9662 37.9462 51.5245 37.9462ZM3.34268 41.1044C2.90102 41.1044 2.53965 41.4597 2.53965 41.894C2.53965 42.3282 2.90102 42.6835 3.34268 42.6835C3.78435 42.6835 4.14571 42.3282 4.14571 41.894C4.14571 41.4597 3.78435 41.1044 3.34268 41.1044ZM51.5245 41.1044C51.0828 41.1044 50.7215 41.4597 50.7215 41.894C50.7215 42.3282 51.0828 42.6835 51.5245 42.6835C51.9662 42.6835 52.3275 42.3282 52.3275 41.894C52.3275 41.4597 51.9662 41.1044 51.5245 41.1044ZM3.34268 44.2626C2.90102 44.2626 2.53965 44.618 2.53965 45.0522C2.53965 45.4865 2.90102 45.8418 3.34268 45.8418C3.78435 45.8418 4.14571 45.4865 4.14571 45.0522C4.14571 44.618 3.78435 44.2626 3.34268 44.2626ZM51.5245 44.2626C51.0828 44.2626 50.7215 44.618 50.7215 45.0522C50.7215 45.4865 51.0828 45.8418 51.5245 45.8418C51.9662 45.8418 52.3275 45.4865 52.3275 45.0522C52.3275 44.618 51.9662 44.2626 51.5245 44.2626ZM15.3881 45.8418H17.7972V47.4209H15.3881V45.8418ZM37.07 45.8418H39.479V47.4209H37.07V45.8418ZM3.34268 47.4209C2.90102 47.4209 2.53965 47.7762 2.53965 48.2104C2.53965 48.6447 2.90102 49 3.34268 49C3.78435 49 4.14571 48.6447 4.14571 48.2104C4.14571 47.7762 3.78435 47.4209 3.34268 47.4209ZM51.5245 47.4209C51.0828 47.4209 50.7215 47.7762 50.7215 48.2104C50.7215 48.6447 51.0828 49 51.5245 49C51.9662 49 52.3275 48.6447 52.3275 48.2104C52.3275 47.7762 51.9662 47.4209 51.5245 47.4209Z" fill="#43B0FF"/>
</svg>
