<svg width="43" height="45" viewBox="0 0 43 45" fill="none" xmlns="http://www.w3.org/2000/svg">
<path fill-rule="evenodd" clip-rule="evenodd" d="M10.5727 3.20456C10.2894 2.1835 9.92015 1.41414 9.52879 0.989357C9.18163 0.61301 8.79501 0.44548 8.41234 0.44548C8.02967 0.44548 7.64305 0.61301 7.29589 0.989357C6.90453 1.41334 6.53528 2.18271 6.25202 3.20456C5.33361 2.68371 4.53276 2.40264 3.95757 2.3812C3.44786 2.36215 3.05651 2.51936 2.78588 2.7909C2.51525 3.06323 2.35981 3.45625 2.37875 3.96996C2.40005 4.54877 2.67936 5.35466 3.19696 6.27885C2.18229 6.56389 1.41773 6.93547 0.996398 7.32929C0.622405 7.67864 0.455923 8.06769 0.455923 8.45277C0.455923 8.83785 0.622405 9.22611 0.996398 9.57546C1.41773 9.96927 2.18229 10.3409 3.19775 10.6259C2.68015 11.5501 2.40084 12.356 2.37954 12.9348C2.3606 13.4485 2.51604 13.8415 2.78667 14.1138C3.0573 14.3862 3.44786 14.5426 3.95836 14.5235C4.53355 14.5021 5.3344 14.2202 6.25281 13.7002C6.53607 14.7212 6.90532 15.4906 7.29667 15.9154C7.64384 16.2917 8.03046 16.4593 8.41313 16.4593C8.7958 16.4593 9.18242 16.2917 9.52958 15.9154C9.92093 15.4914 10.2902 14.722 10.5735 13.701C11.4911 14.221 12.2927 14.5029 12.8679 14.5243C13.3776 14.5434 13.769 14.3862 14.0396 14.1146C14.3102 13.8423 14.4657 13.4493 14.4467 12.9356C14.4254 12.3568 14.1453 11.5509 13.6285 10.6267C14.6432 10.3416 15.4077 9.97007 15.8291 9.57625C16.2031 9.2269 16.3695 8.83785 16.3695 8.45277C16.3695 8.06769 16.2031 7.67864 15.8291 7.32929C15.4077 6.93547 14.6432 6.56389 13.6285 6.27885C14.1453 5.35466 14.4254 4.54877 14.4467 3.96996C14.4657 3.45625 14.3094 3.06323 14.0396 2.7909C13.769 2.51856 13.3784 2.36215 12.8679 2.3812C12.2927 2.40264 11.4903 2.6845 10.5727 3.20456ZM8.41234 1.84686C8.43917 1.8667 8.4873 1.90323 8.51728 1.93499C8.61038 2.03662 8.69796 2.1708 8.78239 2.33118C9.04986 2.83615 9.27237 3.56106 9.44437 4.43523C9.48934 4.6631 9.64399 4.85366 9.85703 4.94258C10.0701 5.03151 10.3139 5.0069 10.5056 4.87748C11.241 4.38203 11.9077 4.02792 12.4521 3.86039C12.6249 3.80799 12.7803 3.77385 12.9176 3.76908C12.961 3.76749 13.021 3.77623 13.0541 3.78099C13.0596 3.81354 13.0683 3.87468 13.0659 3.91835C13.0612 4.0573 13.0281 4.21371 12.9752 4.38759C12.8095 4.93464 12.4576 5.60635 11.9645 6.34555C11.8359 6.53849 11.8122 6.78382 11.8998 6.9982C11.9882 7.21337 12.1775 7.36899 12.404 7.41425C13.2727 7.58733 13.993 7.81123 14.4948 8.0796C14.6542 8.16535 14.7876 8.25269 14.8886 8.34717C14.9201 8.37734 14.9572 8.42498 14.9761 8.45277C14.9564 8.47977 14.9201 8.5282 14.8886 8.55758C14.7876 8.65206 14.6534 8.7394 14.4948 8.82515C13.993 9.09351 13.2727 9.31821 12.404 9.4905C12.1775 9.53576 11.9882 9.69138 11.8998 9.90655C11.8122 10.1209 11.8359 10.3663 11.9645 10.5592C12.4576 11.2992 12.8095 11.9701 12.9752 12.5172C13.0273 12.691 13.0612 12.8475 13.0659 12.9864C13.0675 13.0301 13.0596 13.0904 13.0541 13.1238C13.0218 13.1285 12.961 13.1373 12.9176 13.1357C12.7803 13.1309 12.6249 13.0976 12.4521 13.0444C11.9085 12.8768 11.241 12.5227 10.5056 12.0273C10.3139 11.8979 10.0701 11.8732 9.85703 11.9622C9.64399 12.0511 9.48855 12.2416 9.44437 12.4695C9.27237 13.3437 9.04986 14.0686 8.78239 14.5736C8.69796 14.7339 8.61038 14.8681 8.51728 14.9698C8.4873 15.0015 8.43917 15.0388 8.41234 15.0579C8.38551 15.038 8.33659 15.0015 8.3074 14.9698C8.2143 14.8681 8.12672 14.7339 8.04229 14.5736C7.77482 14.0686 7.55231 13.3437 7.38031 12.4695C7.33534 12.2416 7.18069 12.0511 6.96766 11.9622C6.75383 11.8732 6.51082 11.8979 6.31909 12.0273C5.58372 12.5227 4.91701 12.8768 4.37259 13.0444C4.1998 13.0968 4.04436 13.1309 3.90707 13.1357C3.86367 13.1373 3.80371 13.1285 3.77057 13.1238C3.76505 13.0912 3.75637 13.0301 3.75874 12.9864C3.76347 12.8475 3.79661 12.691 3.84947 12.5172C4.01517 11.9701 4.36707 11.2984 4.8602 10.5592C4.98881 10.3663 5.01248 10.1209 4.92411 9.90655C4.83574 9.69138 4.64638 9.53576 4.41993 9.4905C3.55201 9.31742 2.83086 9.09351 2.32904 8.82515C2.16966 8.7394 2.03632 8.65206 1.93532 8.55758C1.90376 8.5274 1.86668 8.47977 1.84774 8.45277C1.86747 8.42578 1.90376 8.37655 1.93532 8.34717C2.03632 8.25348 2.16966 8.16535 2.32904 8.0796C2.83086 7.81123 3.55123 7.58654 4.41993 7.41425C4.64638 7.36899 4.83574 7.21337 4.92411 6.9982C5.01248 6.78382 4.98881 6.53849 4.8602 6.34555C4.36707 5.60556 4.01517 4.93464 3.84947 4.38759C3.79661 4.21371 3.76347 4.0573 3.75874 3.91835C3.75716 3.87468 3.76505 3.81434 3.77057 3.78099C3.80292 3.77623 3.86367 3.76749 3.90707 3.76908C4.04436 3.77385 4.1998 3.80719 4.37259 3.86039C4.91622 4.02792 5.58372 4.38203 6.31909 4.87748C6.51082 5.0069 6.75383 5.03151 6.96766 4.94258C7.18069 4.85366 7.33612 4.6631 7.38031 4.43523C7.55231 3.56106 7.77482 2.83615 8.04229 2.33118C8.12672 2.1708 8.2143 2.03662 8.3074 1.93499C8.33738 1.90323 8.38551 1.86591 8.41234 1.84686Z" fill="#43B0FF"/>
<path fill-rule="evenodd" clip-rule="evenodd" d="M6.1557 8.45282C6.1557 9.70573 7.16722 10.7236 8.41228 10.7236C9.65735 10.7236 10.6689 9.70573 10.6689 8.45282C10.6689 7.19992 9.65735 6.18125 8.41228 6.18125C8.03119 6.18125 7.7219 6.49328 7.7219 6.87598C7.7219 7.25868 8.03119 7.57071 8.41228 7.57071C8.89516 7.57071 9.28809 7.96612 9.28809 8.45203C9.28809 8.93795 8.89516 9.33335 8.41228 9.33335C7.92941 9.33335 7.53648 8.93795 7.53648 8.45203C7.53648 8.06854 7.22718 7.7573 6.84609 7.7573C6.465 7.7573 6.1557 8.06933 6.1557 8.45282Z" fill="#43B0FF"/>
<path fill-rule="evenodd" clip-rule="evenodd" d="M16.8674 28.2182C16.0878 22.2625 14.0861 16.892 10.6791 12.1956C10.4543 11.886 10.0227 11.8185 9.71495 12.0448C9.40723 12.2711 9.33937 12.7054 9.56424 13.0158C12.8355 17.524 14.7504 22.6825 15.4992 28.4008C15.5489 28.7811 15.8961 29.0487 16.274 28.9986C16.652 28.9486 16.9179 28.5993 16.8681 28.219L16.8674 28.2182Z" fill="#43B0FF"/>
<path fill-rule="evenodd" clip-rule="evenodd" d="M12.1759 19.617C11.4681 19.2875 10.6768 19.0271 9.82935 18.9207C7.85524 18.6737 5.99553 19.3224 4.84357 19.8782C4.84042 19.8798 4.83726 19.8814 4.83411 19.883C4.35754 20.122 4.03247 20.5848 3.96619 21.116C3.89991 21.6472 4.10348 22.176 4.50666 22.5253C4.50982 22.5285 4.51219 22.5301 4.51534 22.5325C5.49688 23.355 7.14197 24.4436 9.11608 24.6905C12.3581 25.097 15.358 23.0716 15.358 23.0716C15.6744 22.8572 15.7572 22.4253 15.5442 22.1077C15.3311 21.7901 14.9019 21.7059 14.5863 21.9203C14.5863 21.9203 12.0417 23.6575 9.2873 23.3122C7.61854 23.1033 6.23776 22.1665 5.40535 21.4701C5.35407 21.4249 5.32882 21.3566 5.3375 21.2875C5.34618 21.2216 5.38405 21.1637 5.44165 21.1311C6.42397 20.6579 7.99174 20.0902 9.65971 20.299C10.3588 20.3871 11.0113 20.6047 11.596 20.877C11.9415 21.0382 12.3526 20.8866 12.5128 20.5388C12.673 20.191 12.5223 19.7774 12.1767 19.6162L12.1759 19.617Z" fill="#43B0FF"/>
<path fill-rule="evenodd" clip-rule="evenodd" d="M17.6138 22.7572C18.3184 22.519 19.0624 22.1506 19.7252 21.5924C20.7959 20.6896 21.4184 19.4629 21.7585 18.5126C21.7585 18.5118 21.7585 18.511 21.7592 18.5102C21.947 17.9782 21.8413 17.3859 21.4815 16.9532C21.1217 16.5205 20.5607 16.3116 20.0076 16.4045C20.0068 16.4045 20.0061 16.4045 20.0045 16.4045C19.0151 16.5752 17.7061 16.9762 16.6346 17.879C14.6258 19.5725 14.2857 22.4166 14.2857 22.4166C14.2407 22.7977 14.5129 23.143 14.8909 23.1875C15.2696 23.2328 15.6128 22.9596 15.657 22.5785C15.657 22.5785 15.915 20.2982 17.5215 18.9445C18.3815 18.2188 19.4395 17.9123 20.2349 17.7749C20.3051 17.7638 20.3769 17.79 20.4234 17.8456C20.4692 17.9012 20.4826 17.9766 20.459 18.0449C20.1852 18.8087 19.6991 19.8036 18.8383 20.5277C18.316 20.9675 17.7266 21.2534 17.1727 21.4408C16.8113 21.563 16.6172 21.9568 16.7387 22.3205C16.8603 22.6841 17.2532 22.8794 17.6138 22.7572Z" fill="#43B0FF"/>
<path fill-rule="evenodd" clip-rule="evenodd" d="M24.8553 14.9976C24.8553 14.9976 24.8553 14.9992 24.8561 15C25.1954 15.9488 25.8164 17.1707 26.8839 18.0695C28.884 19.7551 31.6519 19.6654 31.6519 19.6654C31.8452 19.6591 32.0259 19.5717 32.1521 19.424C32.2784 19.2764 32.3368 19.0834 32.3139 18.8905C32.3139 18.8905 31.9754 16.052 29.9697 14.3624C28.9022 13.462 27.5979 13.0619 26.6109 12.892C26.6101 12.892 26.6093 12.892 26.6077 12.892C26.0538 12.7991 25.4929 13.0071 25.1323 13.4406C24.7717 13.8733 24.6668 14.4656 24.8545 14.9984L24.8553 14.9976ZM26.1556 14.53C26.132 14.4617 26.1454 14.3862 26.1911 14.3307C26.2369 14.2751 26.3087 14.2489 26.3797 14.26C27.1735 14.3974 28.226 14.7038 29.0837 15.4264C30.0699 16.2577 30.5465 17.4391 30.7674 18.2251C29.9721 18.1243 28.7554 17.8337 27.7707 17.004C26.9139 16.2823 26.4294 15.2922 26.1556 14.53Z" fill="#43B0FF"/>
<path fill-rule="evenodd" clip-rule="evenodd" d="M31.8957 19.6654C31.8957 19.6654 34.6628 19.7559 36.6637 18.0695C37.7313 17.1699 38.3522 15.9488 38.6915 15C38.6915 14.9992 38.6923 14.9984 38.6923 14.9976C38.8808 14.4656 38.7751 13.8733 38.4145 13.4398C38.054 13.0063 37.493 12.7975 36.9391 12.8912C36.9383 12.8912 36.9375 12.8912 36.9359 12.8912C36.1887 13.0198 35.2569 13.2794 34.3866 13.7915C34.0576 13.9845 33.9464 14.4101 34.1381 14.7411C34.3306 15.0722 34.7535 15.1842 35.0825 14.9913C35.7934 14.5744 36.5556 14.3672 37.1671 14.2608C37.2373 14.2497 37.3091 14.2759 37.3557 14.3315C37.4014 14.387 37.4149 14.4625 37.3912 14.5307C37.1182 15.293 36.6337 16.2823 35.7761 17.0048C34.1689 18.3593 31.9423 18.2767 31.9423 18.2767C31.5612 18.264 31.2416 18.5642 31.2282 18.9477C31.2156 19.3304 31.5146 19.6527 31.8957 19.6654Z" fill="#43B0FF"/>
<path fill-rule="evenodd" clip-rule="evenodd" d="M26.1525 5.05459C26.1525 5.05459 26.1525 5.05618 26.1533 5.05697C26.4925 6.00498 27.1135 7.22692 28.181 8.1265C30.1812 9.81212 32.949 9.7224 32.949 9.7224C33.1423 9.71605 33.323 9.62792 33.4493 9.48024C33.5755 9.33255 33.6339 9.13962 33.611 8.94668C33.611 8.94668 33.2725 6.1082 31.2669 4.41861C30.1993 3.51903 28.8959 3.11807 27.908 2.94816C27.9072 2.94816 27.9065 2.94816 27.9049 2.94816C27.351 2.85526 26.79 3.06408 26.4294 3.4968C26.0688 3.92952 25.9647 4.52262 26.1525 5.05459ZM27.4528 4.58694C27.4291 4.51865 27.4425 4.44322 27.4883 4.38765C27.534 4.33207 27.6058 4.30587 27.6768 4.31698C28.4706 4.45434 29.5231 4.76082 30.3808 5.48254C31.3671 6.31384 31.8436 7.49528 32.0646 8.28132C31.2692 8.18049 30.0526 7.88989 29.0679 7.06018C28.211 6.33766 27.7266 5.34836 27.4536 4.58614L27.4528 4.58694Z" fill="#43B0FF"/>
<path fill-rule="evenodd" clip-rule="evenodd" d="M32.8638 9.7216C32.8638 9.7216 35.6309 9.81212 37.6318 8.1257C38.6994 7.22533 39.3203 6.00419 39.6596 5.05618C39.6596 5.05538 39.6596 5.05459 39.6604 5.0538C39.849 4.52183 39.7432 3.92873 39.3827 3.49601C39.0221 3.06329 38.4611 2.85368 37.9072 2.94737C37.9064 2.94737 37.9056 2.94737 37.904 2.94737C36.917 3.11807 35.6128 3.51824 34.5452 4.41782C34.2509 4.66554 33.9929 4.93708 33.7649 5.22053C33.525 5.51907 33.5716 5.95655 33.869 6.19713C34.1657 6.4385 34.6004 6.39165 34.8395 6.09232C35.0123 5.87715 35.208 5.67072 35.4313 5.48254C36.2881 4.76082 37.3415 4.45355 38.1344 4.31698C38.2054 4.30587 38.2773 4.33207 38.323 4.38765C38.3688 4.44322 38.3822 4.51865 38.3585 4.58694C38.0855 5.34916 37.6011 6.33766 36.7434 7.06098C35.1362 8.41551 32.9096 8.33293 32.9096 8.33293C32.5285 8.31944 32.2089 8.62035 32.1955 9.00305C32.1829 9.38654 32.4812 9.70811 32.8622 9.7216H32.8638Z" fill="#43B0FF"/>
<path fill-rule="evenodd" clip-rule="evenodd" d="M29.9374 27.1161C32.0425 22.2657 33.7128 16.0957 33.6118 8.8252C33.6071 8.4425 33.293 8.13523 32.912 8.14079C32.5316 8.14556 32.2263 8.46156 32.2318 8.84505C32.3297 15.8869 30.7106 21.8631 28.6726 26.5603C28.5203 26.9121 28.6797 27.3218 29.0292 27.475C29.378 27.6282 29.7851 27.4679 29.9374 27.1161Z" fill="#43B0FF"/>
<path fill-rule="evenodd" clip-rule="evenodd" d="M9.96033 30.1348C9.96033 29.4298 9.60606 28.7716 9.01825 28.3873C8.29551 27.9141 7.10962 27.1376 6.33718 26.6326C5.65073 26.1832 4.76546 26.1832 4.07902 26.6326C3.30736 27.1376 2.12069 27.9141 1.39795 28.3873C0.810923 28.7716 0.455078 29.4298 0.455078 30.1348V42.3613C0.455078 42.9139 0.673635 43.4443 1.06183 43.835C1.45002 44.2256 1.97709 44.4455 2.52624 44.4455H9.26994C9.65104 44.4455 9.96033 44.1343 9.96033 43.7508V30.1348ZM8.57955 30.1348V43.0561H2.52624C2.34319 43.0561 2.16803 42.983 2.03863 42.8528C1.90923 42.7226 1.83585 42.5455 1.83585 42.3613V30.1348C1.83585 29.8998 1.9542 29.6807 2.14988 29.5521C2.87262 29.0788 4.0585 28.3023 4.83095 27.7974C5.05976 27.6481 5.35485 27.6481 5.58367 27.7974C6.35532 28.3023 7.542 29.0788 8.26474 29.5521C8.46041 29.6807 8.57955 29.8998 8.57955 30.1348Z" fill="#43B0FF"/>
<path fill-rule="evenodd" clip-rule="evenodd" d="M17.3936 44.4455H25.5173C25.8992 44.4455 26.2077 44.1343 26.2077 43.7508V30.1348C26.2077 29.4298 25.8534 28.7716 25.2656 28.3873C24.5429 27.9141 23.3562 27.1376 22.5846 26.6326C21.8981 26.1832 21.0128 26.1832 20.3264 26.6326C19.5547 27.1376 18.3681 27.9141 17.6453 28.3873C17.3258 28.5961 17.235 29.0264 17.4425 29.3488C17.6501 29.6704 18.0777 29.7617 18.398 29.5528C19.1208 29.0796 20.3075 28.3031 21.0791 27.7982C21.3079 27.6489 21.603 27.6489 21.8318 27.7982C22.6035 28.3031 23.7902 29.0796 24.5129 29.5528C24.7086 29.6815 24.8269 29.9006 24.8269 30.1356V43.0569H17.3936C17.0125 43.0569 16.7032 43.3681 16.7032 43.7516C16.7032 44.1351 17.0125 44.4455 17.3936 44.4455Z" fill="#43B0FF"/>
<path fill-rule="evenodd" clip-rule="evenodd" d="M9.26994 44.4455H17.3936C17.7747 44.4455 18.084 44.1343 18.084 43.7508V30.1348C18.084 29.4298 17.729 28.7716 17.1419 28.3873C16.4192 27.9141 15.2325 27.1376 14.4609 26.6326C13.7744 26.1832 12.8899 26.1832 12.2027 26.6326C11.8839 26.8406 11.4137 27.1495 10.919 27.4726C10.5994 27.6814 10.5087 28.1118 10.7162 28.4341C10.9245 28.7557 11.3514 28.847 11.6709 28.6382C12.1656 28.315 12.6367 28.0062 12.9546 27.7982C13.1835 27.6489 13.4785 27.6489 13.7074 27.7982C14.479 28.3031 15.6657 29.0796 16.3884 29.5528C16.5841 29.6815 16.7025 29.9006 16.7025 30.1356V43.0569H9.26994C8.88885 43.0569 8.57955 43.3681 8.57955 43.7516C8.57955 44.1351 8.88885 44.4455 9.26994 44.4455Z" fill="#43B0FF"/>
<path fill-rule="evenodd" clip-rule="evenodd" d="M25.5173 44.4455H33.641C34.0221 44.4455 34.3314 44.1343 34.3314 43.7508V30.1348C34.3314 29.4298 33.9771 28.7716 33.3893 28.3873C32.6666 27.9141 31.4799 27.1376 30.7082 26.6326C30.0218 26.1832 29.1365 26.1832 28.4501 26.6326C27.6784 27.1376 26.4917 27.9141 25.769 28.3873C25.182 28.7716 24.8269 29.4298 24.8269 30.1356C24.8269 30.5191 25.1362 30.8296 25.5173 30.8296C25.8984 30.8296 26.2077 30.5183 26.2077 30.1348C26.2077 29.8998 26.3261 29.6807 26.5217 29.5521C27.2445 29.0788 28.4311 28.3023 29.2028 27.7974C29.4316 27.6481 29.7267 27.6481 29.9555 27.7974C30.7272 28.3023 31.9139 29.0788 32.6366 29.5521C32.8323 29.6807 32.9506 29.8998 32.9506 30.1348V43.0561H25.5173C25.1362 43.0561 24.8269 43.3673 24.8269 43.7508C24.8269 44.1343 25.1362 44.4455 25.5173 44.4455Z" fill="#43B0FF"/>
<path fill-rule="evenodd" clip-rule="evenodd" d="M33.641 44.4455H40.3847C40.9339 44.4455 41.4609 44.2256 41.8491 43.835C42.2373 43.4443 42.4559 42.9139 42.4559 42.3613V30.1348C42.4559 29.4298 42.1008 28.7716 41.5138 28.3873C40.791 27.9141 39.6044 27.1376 38.8327 26.6326C38.1463 26.1832 37.2618 26.1832 36.5746 26.6326C36.1998 26.8779 35.7279 27.1868 35.2577 27.4949C34.9381 27.7037 34.8474 28.134 35.0549 28.4564C35.2632 28.7779 35.6909 28.8692 36.0104 28.6604C36.4799 28.3524 36.9525 28.0435 37.3273 27.7982C37.5561 27.6489 37.8512 27.6489 38.08 27.7982C38.8517 28.3031 40.0383 29.0796 40.7611 29.5528C40.9567 29.6815 41.0751 29.9006 41.0751 30.1356V42.3621C41.0751 42.5463 41.0025 42.7226 40.8723 42.8536C40.7429 42.9838 40.567 43.0569 40.3847 43.0569H33.6418C33.2607 43.0569 32.9514 43.3681 32.9514 43.7516C32.9514 44.1351 33.2607 44.4463 33.6418 44.4463L33.641 44.4455Z" fill="#43B0FF"/>
<path fill-rule="evenodd" clip-rule="evenodd" d="M4.51771 33.4902V34.3239C4.51771 34.7074 4.827 35.0186 5.2081 35.0186C5.58919 35.0186 5.89849 34.7074 5.89849 34.3239V33.4902C5.89849 33.1067 5.58919 32.7955 5.2081 32.7955C4.827 32.7955 4.51771 33.1067 4.51771 33.4902Z" fill="#43B0FF"/>
<path fill-rule="evenodd" clip-rule="evenodd" d="M20.7651 33.4902V34.3239C20.7651 34.7074 21.0744 35.0186 21.4555 35.0186C21.8366 35.0186 22.1459 34.7074 22.1459 34.3239V33.4902C22.1459 33.1067 21.8366 32.7955 21.4555 32.7955C21.0744 32.7955 20.7651 33.1067 20.7651 33.4902Z" fill="#43B0FF"/>
<path fill-rule="evenodd" clip-rule="evenodd" d="M12.6414 33.4902V34.3239C12.6414 34.7074 12.9507 35.0186 13.3318 35.0186C13.7129 35.0186 14.0222 34.7074 14.0222 34.3239V33.4902C14.0222 33.1067 13.7129 32.7955 13.3318 32.7955C12.9507 32.7955 12.6414 33.1067 12.6414 33.4902Z" fill="#43B0FF"/>
<path fill-rule="evenodd" clip-rule="evenodd" d="M28.8888 33.4902V34.3239C28.8888 34.7074 29.1981 35.0186 29.5792 35.0186C29.9603 35.0186 30.2695 34.7074 30.2695 34.3239V33.4902C30.2695 33.1067 29.9603 32.7955 29.5792 32.7955C29.1981 32.7955 28.8888 33.1067 28.8888 33.4902Z" fill="#43B0FF"/>
<path fill-rule="evenodd" clip-rule="evenodd" d="M37.0125 33.4902V34.3239C37.0125 34.7074 37.3218 35.0186 37.7028 35.0186C38.0839 35.0186 38.3932 34.7074 38.3932 34.3239V33.4902C38.3932 33.1067 38.0839 32.7955 37.7028 32.7955C37.3218 32.7955 37.0125 33.1067 37.0125 33.4902Z" fill="#43B0FF"/>
</svg>
