<?xml version="1.0" encoding="UTF-8"?>
<svg xmlns="http://www.w3.org/2000/svg" fill="#fff" id="_30-Living_Room" data-name="30-Living Room" viewBox="0 0 64 64" width="512" height="512"><path d="M57,33.09033V29a7.00848,7.00848,0,0,0-7-7H32a7.00848,7.00848,0,0,0-7,7v4.09033a5.99611,5.99611,0,0,0-1,11.5669V53a5.00837,5.00837,0,0,0,4,4.89893V61a.99943.99943,0,0,0,1,1h3a1.0004,1.0004,0,0,0,.89453-.55273L34.61816,58H47.38184l1.72363,3.44727A1.0004,1.0004,0,0,0,50,62h3a.99943.99943,0,0,0,1-1V57.89893A5.00837,5.00837,0,0,0,58,53V44.65723a5.99611,5.99611,0,0,0-1-11.5669ZM32,24H50a5.00588,5.00588,0,0,1,5,5v4.09033A6.00448,6.00448,0,0,0,50,39v4.02557A4.95129,4.95129,0,0,0,47,42H35a4.95129,4.95129,0,0,0-3,1.02557V39a6.00448,6.00448,0,0,0-5-5.90967V29A5.00588,5.00588,0,0,1,32,24Zm0,23a3.00328,3.00328,0,0,1,3-3H47a3.00328,3.00328,0,0,1,3,3v1H32Zm-.61816,13H30V58h2.38184Zm19.23632,0-1-2H52v2Zm6.18262-17.08008A.99877.99877,0,0,0,56,43.89941V53a3.00328,3.00328,0,0,1-3,3H29a3.00328,3.00328,0,0,1-3-3V43.89941a.99877.99877,0,0,0-.80078-.97949A4.0004,4.0004,0,1,1,30,39V49a.99943.99943,0,0,0,1,1H51a.99943.99943,0,0,0,1-1V39a4,4,0,1,1,4.80078,3.91992ZM40,30a1,1,0,1,1,1,1A1,1,0,0,1,40,30Zm-8,0a1,1,0,1,1,1,1A1,1,0,0,1,32,30Zm12,6a1,1,0,1,1,1,1A1,1,0,0,1,44,36Zm-8,0a1,1,0,1,1,1,1A1,1,0,0,1,36,36Zm12-6a1,1,0,1,1,1,1A1,1,0,0,1,48,30ZM16,56H13V26h3v7a1,1,0,0,0,2,0V26h3a1.00038,1.00038,0,0,0,.89453-1.44727,47.9,47.9,0,0,1-3.61719-10.22461A2.97236,2.97236,0,0,0,15.35449,12h-6.709a2.97236,2.97236,0,0,0-2.92285,2.32812A47.90274,47.90274,0,0,1,2.10547,24.55273,1.00038,1.00038,0,0,0,3,26h8V56H8a3.00328,3.00328,0,0,0-3,3v2a.99943.99943,0,0,0,1,1H18a.99943.99943,0,0,0,1-1V59A3.00328,3.00328,0,0,0,16,56ZM7.67383,14.76562A.98366.98366,0,0,1,8.64551,14h6.709a.98366.98366,0,0,1,.97168.76562A49.91562,49.91562,0,0,0,19.417,24H4.583A49.91562,49.91562,0,0,0,7.67383,14.76562ZM17,60H7V59a1.00067,1.00067,0,0,1,1-1h8a1.00067,1.00067,0,0,1,1,1ZM31,18H51a.99943.99943,0,0,0,1-1V3a.99943.99943,0,0,0-1-1H31a.99943.99943,0,0,0-1,1V17A.99943.99943,0,0,0,31,18Zm1-5.58594,4-4L43.58594,16H32ZM46.41406,16l-3-3L46,10.41406l4,4V16ZM50,4v7.58594L46.707,8.293a.99962.99962,0,0,0-1.41406,0L42,11.58594,36.707,6.293a.99962.99962,0,0,0-1.41406,0L32,9.58594V4ZM41,7a1,1,0,1,1,1,1A1,1,0,0,1,41,7Z"/></svg>
