<svg width="480" height="480" viewBox="0 0 480 480" fill="none" xmlns="http://www.w3.org/2000/svg">
<path d="M440 248.723V216C439.982 201.153 434.076 186.92 423.578 176.422C413.08 165.924 398.847 160.018 384 160H240C225.154 160.018 210.92 165.924 200.422 176.422C189.924 186.92 184.018 201.153 184 216V248.723C173.517 250.489 163.918 255.687 156.71 263.501C149.502 271.315 145.094 281.302 144.178 291.893C143.263 302.485 145.891 313.08 151.651 322.015C157.411 330.95 165.976 337.719 176 341.258V408C176.013 417.216 179.202 426.147 185.031 433.286C190.86 440.425 198.972 445.336 208 447.191V472C208 473.051 208.206 474.091 208.608 475.062C209.01 476.033 209.599 476.915 210.342 477.658C211.085 478.401 211.967 478.99 212.938 479.392C213.909 479.794 214.949 480.001 216 480H240C241.486 480 242.942 479.586 244.206 478.805C245.47 478.024 246.492 476.907 247.156 475.578L260.945 448H363.055L376.844 475.578C377.509 476.907 378.53 478.024 379.794 478.805C381.058 479.586 382.514 480 384 480H408C409.051 480.001 410.091 479.794 411.062 479.392C412.033 478.99 412.915 478.401 413.658 477.658C414.401 476.915 414.991 476.033 415.392 475.062C415.794 474.091 416.001 473.051 416 472V447.191C425.028 445.336 433.14 440.425 438.969 433.286C444.798 426.147 447.987 417.216 448 408V341.258C458.025 337.719 466.589 330.95 472.349 322.015C478.109 313.08 480.738 302.485 479.822 291.893C478.906 281.302 474.498 271.315 467.29 263.501C460.083 255.687 450.483 250.489 440 248.723ZM240 176H384C394.605 176.012 404.772 180.231 412.271 187.729C419.769 195.228 423.988 205.395 424 216V248.723C412.827 250.618 402.684 256.403 395.365 265.055C388.045 273.706 384.019 284.667 384 296V328.205C377.116 322.913 368.683 320.03 360 320H264C255.317 320.03 246.885 322.913 240 328.205V296C239.981 284.667 235.956 273.706 228.636 265.055C221.316 256.403 211.173 250.618 200 248.723V216C200.013 205.395 204.231 195.228 211.73 187.729C219.228 180.231 229.395 176.012 240 176ZM240 360C240.007 353.637 242.538 347.536 247.037 343.037C251.537 338.538 257.637 336.007 264 336H360C366.363 336.007 372.464 338.538 376.963 343.037C381.462 347.536 383.993 353.637 384 360V368H240V360ZM235.055 464H224V448H243.055L235.055 464ZM388.945 464L380.945 448H400V464H388.945ZM438.406 327.359C436.598 327.725 434.972 328.705 433.804 330.134C432.637 331.562 431.999 333.35 432 335.195V408C431.993 414.363 429.462 420.464 424.963 424.963C420.464 429.462 414.363 431.993 408 432H216C209.637 431.993 203.537 429.462 199.037 424.963C194.538 420.464 192.007 414.363 192 408V335.195C192.001 333.35 191.364 331.562 190.196 330.134C189.028 328.705 187.402 327.725 185.594 327.359C179.661 326.148 174.194 323.278 169.827 319.083C165.46 314.889 162.373 309.541 160.924 303.662C159.475 297.782 159.723 291.613 161.641 285.869C163.558 280.125 167.066 275.044 171.756 271.214C176.446 267.384 182.127 264.964 188.138 264.234C194.149 263.503 200.244 264.494 205.715 267.089C211.185 269.685 215.808 273.779 219.044 278.896C222.281 284.014 224 289.945 224 296V376C224 377.051 224.206 378.091 224.608 379.062C225.01 380.033 225.599 380.915 226.342 381.658C227.085 382.401 227.967 382.99 228.938 383.392C229.909 383.794 230.949 384.001 232 384H392C393.051 384.001 394.091 383.794 395.062 383.392C396.033 382.99 396.915 382.401 397.658 381.658C398.401 380.915 398.991 380.033 399.392 379.062C399.794 378.091 400.001 377.051 400 376V296C400.002 289.946 401.72 284.016 404.957 278.9C408.194 273.783 412.816 269.69 418.286 267.095C423.756 264.5 429.85 263.511 435.86 264.241C441.87 264.971 447.549 267.391 452.239 271.22C456.929 275.049 460.436 280.13 462.353 285.873C464.27 291.616 464.519 297.785 463.071 303.663C461.622 309.541 458.536 314.888 454.17 319.083C449.804 323.277 444.338 326.147 438.406 327.359ZM304 224C304 222.418 304.469 220.871 305.348 219.555C306.227 218.24 307.477 217.214 308.939 216.609C310.4 216.003 312.009 215.845 313.561 216.154C315.113 216.462 316.538 217.224 317.657 218.343C318.776 219.462 319.538 220.887 319.846 222.439C320.155 223.991 319.997 225.6 319.391 227.061C318.786 228.523 317.76 229.773 316.445 230.652C315.129 231.531 313.582 232 312 232C309.878 232 307.844 231.157 306.343 229.657C304.843 228.157 304 226.122 304 224ZM240 224C240 222.418 240.469 220.871 241.348 219.555C242.227 218.24 243.477 217.214 244.939 216.609C246.4 216.003 248.009 215.845 249.561 216.154C251.113 216.462 252.538 217.224 253.657 218.343C254.776 219.462 255.538 220.887 255.846 222.439C256.155 223.991 255.997 225.6 255.391 227.061C254.786 228.523 253.76 229.773 252.445 230.652C251.129 231.531 249.582 232 248 232C245.878 232 243.844 231.157 242.343 229.657C240.843 228.157 240 226.122 240 224ZM336 272C336 270.418 336.469 268.871 337.348 267.555C338.227 266.24 339.477 265.214 340.939 264.609C342.4 264.003 344.009 263.845 345.561 264.154C347.113 264.462 348.538 265.224 349.657 266.343C350.776 267.462 351.538 268.887 351.846 270.439C352.155 271.991 351.997 273.6 351.391 275.061C350.786 276.523 349.76 277.773 348.445 278.652C347.129 279.531 345.582 280 344 280C341.878 280 339.844 279.157 338.343 277.657C336.843 276.157 336 274.122 336 272ZM272 272C272 270.418 272.469 268.871 273.348 267.555C274.227 266.24 275.477 265.214 276.939 264.609C278.4 264.003 280.009 263.845 281.561 264.154C283.113 264.462 284.538 265.224 285.657 266.343C286.776 267.462 287.538 268.887 287.846 270.439C288.155 271.991 287.997 273.6 287.391 275.061C286.786 276.523 285.76 277.773 284.445 278.652C283.129 279.531 281.582 280 280 280C277.878 280 275.844 279.157 274.343 277.657C272.843 276.157 272 274.122 272 272ZM368 224C368 222.418 368.469 220.871 369.348 219.555C370.227 218.24 371.477 217.214 372.939 216.609C374.4 216.003 376.009 215.845 377.561 216.154C379.113 216.462 380.538 217.224 381.657 218.343C382.776 219.462 383.538 220.887 383.846 222.439C384.155 223.991 383.997 225.6 383.391 227.061C382.786 228.523 381.76 229.773 380.445 230.652C379.129 231.531 377.582 232 376 232C373.878 232 371.844 231.157 370.343 229.657C368.843 228.157 368 226.122 368 224ZM112 432H88.0001V192H112V248C112 250.122 112.843 252.157 114.343 253.657C115.844 255.157 117.878 256 120 256C122.122 256 124.157 255.157 125.657 253.657C127.157 252.157 128 250.122 128 248V192H152C153.364 191.999 154.704 191.65 155.895 190.986C157.086 190.322 158.087 189.364 158.804 188.205C159.521 187.045 159.929 185.721 159.991 184.359C160.053 182.997 159.765 181.642 159.156 180.422C146.445 154.34 136.737 126.898 130.219 98.625C129.04 93.3141 126.075 88.568 121.82 85.1786C117.565 81.7892 112.276 79.9613 106.836 80H53.1641C47.724 79.9613 42.4352 81.7892 38.1799 85.1786C33.9247 88.568 30.9603 93.3141 29.7813 98.625C23.2631 126.898 13.5551 154.34 0.843908 180.422C0.234818 181.642 -0.0525123 182.997 0.00917193 184.359C0.0708561 185.721 0.479509 187.045 1.19637 188.205C1.91322 189.364 2.91452 190.322 4.10525 190.986C5.29599 191.65 6.63668 191.999 8.00015 192H72.0001V432H48.0001C41.6371 432.007 35.5366 434.538 31.0373 439.037C26.5379 443.536 24.0071 449.637 24.0001 456V472C23.9995 473.051 24.2061 474.091 24.6079 475.062C25.0097 476.033 25.599 476.915 26.342 477.658C27.0849 478.401 27.9671 478.99 28.938 479.392C29.9088 479.794 30.9494 480.001 32.0001 480H128C129.051 480.001 130.091 479.794 131.062 479.392C132.033 478.99 132.915 478.401 133.658 477.658C134.401 476.915 134.991 476.033 135.392 475.062C135.794 474.091 136.001 473.051 136 472V456C135.993 449.637 133.462 443.536 128.963 439.037C124.464 434.538 118.363 432.007 112 432ZM45.3908 102.125C45.7899 100.369 46.7794 98.8023 48.1942 97.6876C49.6089 96.5728 51.3632 95.9772 53.1642 96H106.836C108.637 95.9772 110.392 96.5728 111.806 97.6876C113.221 98.8023 114.211 100.369 114.61 102.125C120.424 127.497 128.706 152.24 139.336 176H20.6642C31.2944 152.24 39.576 127.497 45.3908 102.125ZM120 464H40.0001V456C40.0016 453.879 40.8449 451.845 42.3449 450.345C43.8448 448.845 45.8789 448.001 48.0001 448H112C114.121 448.001 116.155 448.845 117.655 450.345C119.155 451.845 119.999 453.879 120 456V464ZM232 128H392C393.051 128.001 394.091 127.794 395.062 127.392C396.033 126.99 396.915 126.401 397.658 125.658C398.401 124.915 398.991 124.033 399.392 123.062C399.794 122.091 400.001 121.051 400 120V8C400.001 6.94926 399.794 5.9087 399.392 4.93783C398.991 3.96695 398.401 3.0848 397.658 2.34181C396.915 1.59882 396.033 1.00957 395.062 0.607744C394.091 0.205918 393.051 -0.000598135 392 1.30121e-06H232C230.949 -0.000598135 229.909 0.205918 228.938 0.607744C227.967 1.00957 227.085 1.59882 226.342 2.34181C225.599 3.0848 225.01 3.96695 224.608 4.93783C224.206 5.9087 224 6.94926 224 8V120C224 121.051 224.206 122.091 224.608 123.062C225.01 124.033 225.599 124.915 226.342 125.658C227.085 126.401 227.967 126.99 228.938 127.392C229.909 127.794 230.949 128.001 232 128ZM240 83.3125L272 51.3125L332.688 112H240V83.3125ZM355.313 112L331.313 88L352 67.3125L384 99.3125V112H355.313ZM384 16V76.6875L357.656 50.344C356.914 49.601 356.032 49.0115 355.061 48.6094C354.091 48.2072 353.05 48.0002 352 48.0002C350.949 48.0002 349.909 48.2072 348.939 48.6094C347.968 49.0115 347.086 49.601 346.344 50.344L320 76.6875L277.656 34.344C276.914 33.601 276.032 33.0115 275.061 32.6094C274.091 32.2072 273.05 32.0002 272 32.0002C270.949 32.0002 269.909 32.2072 268.939 32.6094C267.968 33.0115 267.086 33.601 266.344 34.344L240 60.6875V16H384ZM312 40C312 38.4177 312.469 36.871 313.348 35.5554C314.227 34.2398 315.477 33.2145 316.939 32.609C318.4 32.0035 320.009 31.845 321.561 32.1537C323.113 32.4624 324.538 33.2243 325.657 34.3431C326.776 35.462 327.538 36.8874 327.846 38.4393C328.155 39.9911 327.997 41.5997 327.391 43.0615C326.786 44.5233 325.76 45.7727 324.445 46.6518C323.129 47.5308 321.582 48 320 48C317.878 48 315.844 47.1571 314.343 45.6569C312.843 44.1566 312 42.1217 312 40Z" fill="black"/>
</svg>
