<svg width="12" height="16" viewBox="0 0 12 16" fill="none" xmlns="http://www.w3.org/2000/svg">
<path d="M9.80488 5.76388V3.07642C9.80488 1.37999 8.49199 0 6.87805 0H5.12195C3.50801 0 2.19512 1.37999 2.19512 3.07642V5.76345C0.891847 6.48552 0 7.92177 0 9.57512V11.693C0 14.068 1.83805 16 4.09756 16H7.90244C10.162 16 12 14.068 12 11.693V9.57512C12 7.92221 11.1082 6.48552 9.80488 5.76388ZM3.36585 3.07642C3.36585 2.05856 4.15359 1.23057 5.12195 1.23057H6.87805C7.84641 1.23057 8.63415 2.05856 8.63415 3.07642V5.34066C8.39624 5.29539 8.15247 5.26814 7.90244 5.26814H4.09756C3.84753 5.26814 3.60376 5.29539 3.36585 5.34066V3.07642ZM10.8293 11.693C10.8293 13.3894 9.51638 14.7694 7.90244 14.7694H4.09756C2.48362 14.7694 1.17073 13.3894 1.17073 11.693V9.57512C1.17073 7.8787 2.48362 6.49871 4.09756 6.49871H7.90244C9.51638 6.49871 10.8293 7.8787 10.8293 9.57512V11.693ZM6 8.33269C5.39666 8.33269 4.90704 8.84689 4.90704 9.48107C4.90704 9.86167 5.08516 10.1961 5.35568 10.4053V12.1773C5.35568 12.5513 5.64376 12.8541 5.99958 12.8541C6.3554 12.8541 6.64348 12.5513 6.64348 12.1773V10.4053C6.91442 10.1961 7.09212 9.86167 7.09212 9.48107C7.09212 8.84689 6.60293 8.33269 5.99958 8.33269H6Z" fill="#41A5FF"/>
</svg>
