<?xml version="1.0" encoding="UTF-8"?>
<!-- Generator: Adobe Illustrator 27.0.0, SVG Export Plug-In . SVG Version: 6.00 Build 0)  -->
<svg xmlns="http://www.w3.org/2000/svg" xmlns:xlink="http://www.w3.org/1999/xlink" version="1.1" id="Capa_1" x="0px" y="0px" viewBox="0 0 512 512" style="enable-background:new 0 0 512 512;" xml:space="preserve" width="512" height="512">
<g id="XMLID_26_">
	<path style="fill:#33CCCC;" d="M341,430.929H51c-6.075,0-11-4.925-11-11c0-6.075,4.925-11,11-11h290c6.075,0,11,4.925,11,11   C352,426.004,347.076,430.929,341,430.929z"/>
	<path style="fill:#33CCCC;" d="M60.997,330.926c-15.802-0.282-13.399-24.603,2.151-21.779   C75.893,311.358,73.925,331.245,60.997,330.926z"/>
	<path style="fill:#33CCCC;" d="M330.997,330.926c-12.92,0.311-14.889-19.561-2.149-21.779   C344.43,306.351,346.79,330.643,330.997,330.926z"/>
	<path style="fill:#33CCCC;" d="M281,380.928c-6.075,0-11-4.925-11-11c0-10.476-8.523-18.998-19-18.998H141   c-10.477,0-19,8.523-19,18.998c0,6.075-4.925,11-11,11c-6.075,0-11-4.925-11-11c0-22.607,18.392-40.998,41-40.998h110   c22.607,0,41,18.392,41,40.998C292,376.003,287.075,380.928,281,380.928z"/>
	<path d="M342,259.94v-41.679c0-27.202-22.131-49.333-49.333-49.333H99.334C72.131,168.929,50,191.06,50,218.262v41.679   c-28.401,5.196-50,30.109-50,59.988c0,25.798,16.363,48.604,40,57.282v82.718c0,6.075,4.925,11,11,11h9v29c0,6.075,4.925,11,11,11   h40c5.047,0,9.447-3.436,10.671-8.332l7.917-31.668h132.823l7.917,31.668c1.224,4.896,5.624,8.332,10.671,8.332h40   c6.075,0,11-4.925,11-11v-29h9c6.075,0,11-4.925,11-11v-82.718c23.636-8.679,40-31.484,40-57.282   C392,290.05,370.401,265.137,342,259.94z M99.334,190.929h193.333c15.071,0,27.333,12.262,27.333,27.333v41.679   c-28.401,5.196-50,30.109-50,59.988v49H122v-49c0-29.879-21.599-54.792-50-59.988v-41.679   C72,203.191,84.262,190.929,99.334,190.929z M102.412,488.929H82v-18h24.912L102.412,488.929z M310,488.929h-20.412l-4.5-18H310   V488.929z M338.811,358.147c-5.126,1.041-8.811,5.549-8.811,10.78v80.002h-9h-50H121H71h-9v-80.002   c0-5.232-3.685-9.739-8.811-10.78C35.117,354.478,22,338.404,22,319.929c0-21.505,17.495-39.001,39-39.001   c21.505,0,39,17.496,39,39.001v60c0,6.075,4.925,11,11,11h170c6.075,0,11-4.925,11-11v-60c0-21.505,17.495-39.001,39-39.001   c21.505,0,39,17.496,39,39.001C370,338.404,356.883,354.478,338.811,358.147z"/>
	<path d="M463.93,226.049c-6.075,0-11,1.438-11-4.637v-70c0-6.075,4.925-11,11-11s11,4.925,11,11v70   C474.93,227.487,470.005,226.049,463.93,226.049z"/>
	<path d="M447,448.954v-59.025c0-6.075-4.925-11-11-11h-9V142.072c0-6.075-4.925-5.507-11-5.507s-11-0.568-11,5.507v236.856h-9   c-6.075,0-11,4.925-11,11v59.025c-16.631,0.531-30,14.216-30,30.975v20c0,6.075,4.925,11,11,11h100c6.075,0,11-4.925,11-11v-20   C477,463.17,463.631,449.485,447,448.954z M407,400.929h18v48h-18V400.929z M455,488.929h-78v-9c0-4.963,4.038-9,9-9h10h40h10   c4.962,0,9,4.037,9,9V488.929z"/>
	<path style="fill:#33CCCC;" d="M501,153.072H331c-3.352,0-6.522-1.528-8.608-4.152c-2.087-2.623-2.864-6.055-2.11-9.321l30-130.001   c1.152-4.991,5.596-8.526,10.718-8.526h110c5.122,0,9.566,3.535,10.718,8.526l30,130.001c0.754,3.267-0.023,6.698-2.11,9.321   C507.521,151.544,504.352,153.072,501,153.072z M344.828,131.072h142.345L462.249,23.071H369.75L344.828,131.072z"/>
	<path style="fill:#33CCCC;" d="M463.93,272.412c-17.093,0-30.999-13.906-30.999-31c0-17.094,13.906-31,30.999-31   c17.093,0,31,13.906,31,31C494.93,258.506,481.023,272.412,463.93,272.412z M463.93,232.412c-4.962,0-8.999,4.037-8.999,9   c0,4.963,4.037,9,8.999,9s9-4.037,9-9C472.93,236.449,468.892,232.412,463.93,232.412z"/>
</g>















</svg>
