<svg width="13" height="9" viewBox="0 0 13 9" fill="none" xmlns="http://www.w3.org/2000/svg">
<path fill-rule="evenodd" clip-rule="evenodd" d="M0.0423264 4.28614C-0.0141088 4.42317 -0.0141088 4.57682 0.0423264 4.71386C1.08104 7.22849 3.56004 9 6.45004 9C9.34028 9 11.8191 7.22827 12.8577 4.71386C12.9141 4.57683 12.9141 4.42318 12.8577 4.28614C11.819 1.77151 9.34028 0 6.45004 0C3.56029 0 1.08119 1.77163 0.0423264 4.28614ZM1.17271 4.5C2.09231 2.5064 4.11052 1.12088 6.44991 1.12088C8.78957 1.12088 10.8077 2.50643 11.7271 4.49975C10.8076 6.49364 8.78955 7.87912 6.44991 7.87912C4.11052 7.87912 2.09214 6.49357 1.17271 4.50025V4.5Z" fill="white"/>
<path fill-rule="evenodd" clip-rule="evenodd" d="M6.44995 2.40002C5.37382 2.40002 4.5 3.27389 4.5 4.35002C4.5 5.42616 5.37384 6.30002 6.44995 6.30002C7.52606 6.30002 8.4 5.42616 8.4 4.35002C8.4 3.27389 7.52606 2.40002 6.44995 2.40002ZM6.44995 3.51426C6.91136 3.51426 7.28571 3.88873 7.28571 4.35005C7.28571 4.81137 6.91136 5.18584 6.44995 5.18584C5.98864 5.18584 5.61429 4.81137 5.61429 4.35005C5.61429 3.88873 5.98864 3.51426 6.44995 3.51426Z" fill="white"/>
</svg>
