<?xml version="1.0" encoding="UTF-8"?>
<!-- Generator: Adobe Illustrator 26.5.0, SVG Export Plug-In . SVG Version: 6.00 Build 0)  -->
<svg xmlns="http://www.w3.org/2000/svg" xmlns:xlink="http://www.w3.org/1999/xlink" version="1.1" id="Capa_1" x="0px" y="0px" viewBox="0 0 512 512" style="enable-background:new 0 0 512 512;" xml:space="preserve" width="512" height="512">
<g>
	<path style="fill:#33CCCC;" d="M126.019,201.298c-0.235,0-0.47-0.007-0.708-0.022c-37.774-2.398-67.364-33.955-67.364-71.842   c0-39.699,32.297-71.996,71.996-71.996c37.887,0,69.443,29.59,71.842,67.364c0.385,6.063-4.218,11.29-10.281,11.675   c-6.055,0.387-11.29-4.218-11.675-10.281c-1.665-26.22-23.577-46.759-49.886-46.759c-27.568,0-49.996,22.428-49.996,49.996   c0,26.309,20.539,48.221,46.759,49.886c6.062,0.385,10.666,5.612,10.281,11.675C136.616,196.82,131.775,201.298,126.019,201.298z"/>
	<path d="M501,0.508H11c-6.075,0-11,4.925-11,11v260.249c0,6.075,4.925,11,11,11h33.543c0.003,0,0.007,0,0.01,0H501   c6.075,0,11-4.925,11-11V11.508C512,5.433,507.075,0.508,501,0.508z M341.884,260.757l-70.328-70.328l49.505-49.506   l119.834,119.834H341.884z M248.216,198.202c0.002,0.002,0.004,0.004,0.005,0.006c0.002,0.002,0.004,0.003,0.006,0.005   l62.543,62.544H71.104l119.834-119.834L248.216,198.202z M490,260.757h-17.991L328.84,117.589   c-2.063-2.062-4.861-3.222-7.778-3.222c-2.918,0-5.715,1.159-7.778,3.222L256,174.873l-57.284-57.284   c-2.063-2.062-4.861-3.222-7.778-3.222c-2.918,0-5.715,1.159-7.778,3.222L39.991,260.757H22V22.508h468V260.757z"/>
	<path d="M199.07,511.492c-6.075,0-11-4.925-11-11v-71.51c0-6.075,4.925-11,11-11s11,4.925,11,11v71.51   C210.07,506.567,205.145,511.492,199.07,511.492z"/>
	<path d="M199.07,369.349c-6.075,0-11-4.925-11-11v-29.663c0-6.075,4.925-11,11-11s11,4.925,11,11v29.663   C210.07,364.424,205.145,369.349,199.07,369.349z"/>
	<path style="fill:#33CCCC;" d="M199.07,437.28c-24.003,0-43.531-19.528-43.531-43.531c0-24.003,19.528-43.531,43.531-43.531   c24.003,0,43.531,19.528,43.531,43.531C242.602,417.752,223.074,437.28,199.07,437.28z M199.07,372.218   c-11.872,0-21.531,9.659-21.531,21.531c0,11.873,9.659,21.531,21.531,21.531c11.873,0,21.531-9.659,21.531-21.531   C220.602,381.876,210.943,372.218,199.07,372.218z"/>
	<path d="M85.211,410.551c-6.075,0-11-4.925-11-11v-70.865c0-6.075,4.925-11,11-11c6.075,0,11,4.925,11,11v70.865   C96.211,405.626,91.287,410.551,85.211,410.551z"/>
	<path d="M85.211,511.492c-6.075,0-11-4.925-11-11v-30.308c0-6.075,4.925-11,11-11c6.075,0,11,4.925,11,11v30.308   C96.211,506.567,91.287,511.492,85.211,511.492z"/>
	<path style="fill:#33CCCC;" d="M85.211,478.96c-24.003,0-43.531-19.528-43.531-43.531c0-24.003,19.528-43.531,43.531-43.531   c24.003,0,43.531,19.528,43.531,43.531C128.743,459.433,109.215,478.96,85.211,478.96z M85.211,413.898   c-11.872,0-21.531,9.659-21.531,21.531c0,11.872,9.659,21.531,21.531,21.531c11.873,0,21.531-9.659,21.531-21.531   C106.743,423.557,97.084,413.898,85.211,413.898z"/>
	<path d="M426.789,511.492c-6.075,0-11-4.925-11-11V426.28c0-6.075,4.925-3.891,11-3.891s11-2.184,11,3.891v74.211   C437.789,506.567,432.864,511.492,426.789,511.492z"/>
	<path d="M426.789,369.349c-6.075,0-11-4.925-11-11v-29.663c0-6.075,4.925-11,11-11s11,4.925,11,11v29.663   C437.789,364.424,432.864,369.349,426.789,369.349z"/>
	<path style="fill:#33CCCC;" d="M426.789,437.28c-24.003,0-43.531-19.528-43.531-43.531c0-24.003,19.528-43.531,43.531-43.531   c24.003,0,43.531,19.528,43.531,43.531C470.319,417.752,450.792,437.28,426.789,437.28z M426.789,372.218   c-11.873,0-21.531,9.659-21.531,21.531c0,11.873,9.659,21.531,21.531,21.531c11.872,0,21.531-9.659,21.531-21.531   C448.319,381.876,438.661,372.218,426.789,372.218z"/>
	<path d="M312.93,410.551c-6.075,0-11-4.925-11-11v-70.865c0-6.075,4.925-11,11-11c6.075,0,11,4.925,11,11v70.865   C323.93,405.626,319.005,410.551,312.93,410.551z"/>
	<path d="M312.93,511.492c-6.075,0-11-4.925-11-11v-30.308c0-6.075,4.925-11,11-11c6.075,0,11,4.925,11,11v30.308   C323.93,506.567,319.005,511.492,312.93,511.492z"/>
	<path style="fill:#33CCCC;" d="M312.93,478.96c-24.003,0-43.531-19.528-43.531-43.531c0-24.003,19.528-43.531,43.531-43.531   c24.003,0,43.531,19.528,43.531,43.531C356.46,459.433,336.933,478.96,312.93,478.96z M312.93,413.898   c-11.873,0-21.531,9.659-21.531,21.531c0,11.872,9.659,21.531,21.531,21.531c11.872,0,21.531-9.659,21.531-21.531   C334.46,423.557,324.802,413.898,312.93,413.898z"/>
</g>















</svg>
