<?xml version="1.0" encoding="UTF-8"?>
<!-- Generator: Adobe Illustrator 26.0.3, SVG Export Plug-In . SVG Version: 6.00 Build 0)  -->
<svg xmlns="http://www.w3.org/2000/svg" xmlns:xlink="http://www.w3.org/1999/xlink" version="1.1" id="Capa_1" x="0px" y="0px" viewBox="0 0 512.026 512.026" style="enable-background:new 0 0 512.026 512.026;" xml:space="preserve" width="512" height="512">
<g>
	<g>
		<g>
			<g>
				<path d="M265.646,434.177c-10.254,0.042-14.997-13.096-6.875-19.593c0,0,17.06-13.636,17.06-13.636l-17.473-14.149      c-2.579-2.089-4.077-5.23-4.077-8.549s1.498-6.46,4.077-8.549l17.788-14.404l-17.222-13.946      c-10.97-9.622,2.134-25.83,13.845-17.098c0,0,27.779,22.495,27.779,22.495c5.379,4.141,5.383,12.957,0,17.098      c0,0-17.787,14.404-17.787,14.404l17.542,14.205c5.402,4.158,5.375,13.019-0.055,17.142c0,0-27.74,22.173-27.74,22.173      C270.48,433.39,268.055,434.177,265.646,434.177z"/>
			</g>
		</g>
		<g>
			<path d="M277.446,512.026c-208.221-0.209-312.96-253.083-165.87-400.449c87.315-90.991,244.427-91.006,331.741,0.003     C590.406,258.96,485.655,511.829,277.446,512.026z M277.446,64.872c-117.216,0-212.578,95.361-212.578,212.577     c11.677,282.013,413.523,281.93,425.157-0.002C490.024,160.233,394.662,64.872,277.446,64.872z"/>
		</g>
		<g>
			<g>
				<path d="M412.954,256.585c-3.85,0-7.586-2.023-9.604-5.62c-8.074-14.393-23.328-23.333-39.811-23.333      c-15.446,0-29.726,7.729-38.198,20.674c-3.327,5.083-10.145,6.508-15.228,3.181c-5.083-3.327-6.507-10.145-3.181-15.228      c12.551-19.178,33.712-30.627,56.606-30.627c24.429,0,47.036,13.246,58.998,34.569      C426.715,247.323,421.155,256.742,412.954,256.585z"/>
			</g>
			<g>
				<path d="M141.955,255.191c-8.355,0.125-13.875-9.481-9.426-16.655c12.159-20.296,34.396-32.904,58.032-32.904      c23.147,0,44.436,11.646,56.945,31.15c3.28,5.114,1.793,11.918-3.321,15.198s-11.918,1.792-15.198-3.321      c-8.444-13.167-22.809-21.027-38.426-21.027c-16.189,0-30.828,8.303-39.16,22.211      C149.34,253.283,145.694,255.191,141.955,255.191z"/>
			</g>
		</g>
	</g>
	<g>
		<path style="fill:#33CCCC;" d="M336.674,139.15c-7.668,0.133-13.226-8.16-10.159-15.2c3.209-8.033,14.592-9.169,19.31-1.9    C350.712,129.202,345.338,139.256,336.674,139.15z"/>
	</g>
	<g>
		<path style="fill:#33CCCC;" d="M167.127,359.525c-7.668,0.133-13.226-8.16-10.16-15.2c3.209-8.033,14.592-9.169,19.31-1.9    C181.165,349.576,175.791,359.631,167.127,359.525z"/>
	</g>
	<g>
		<path style="fill:#33CCCC;" d="M11.449,382.286c-7.668,0.133-13.226-8.16-10.159-15.2c3.209-8.033,14.592-9.169,19.31-1.9    C25.487,372.337,20.113,382.392,11.449,382.286z"/>
	</g>
	<g>
		<path style="fill:#33CCCC;" d="M67.394,512.021c-7.668,0.133-13.226-8.16-10.16-15.2c3.209-8.033,14.592-9.169,19.31-1.9    C81.432,502.072,76.058,512.127,67.394,512.021z"/>
	</g>
	<g>
		<path style="fill:#33CCCC;" d="M500.939,511.895c-7.668,0.133-13.226-8.16-10.159-15.2c3.209-8.033,14.592-9.169,19.31-1.9    C514.977,501.947,509.603,512.001,500.939,511.895z"/>
	</g>
	<g>
		<path style="fill:#33CCCC;" d="M472.724,48.153c-7.668,0.133-13.226-8.16-10.159-15.2c3.209-8.033,14.592-9.169,19.31-1.9    C486.762,38.205,481.388,48.259,472.724,48.153z"/>
	</g>
	<path style="fill:#33CCCC;" d="M51.47,119.501l68.034-68.034l55.165,14.774c11.34-5.408,23.099-9.873,35.139-13.365   C185.542,46.377,13.871,0.4,13.871,0.4C5.818-1.863-1.848,5.853,0.399,13.873l52.239,195.013   c3.528-11.643,8.033-23.133,13.57-34.365L51.47,119.501z M26.579,26.58l68.385,18.315C80.842,59.016,58.61,81.248,44.897,94.962   L26.579,26.58z"/>
	<path style="fill:#33CCCC;" d="M386.813,287.911c-19.445-0.402-37.522,10.872-45.651,28.557   c-5.582,13.485,13.342,22.22,19.979,9.209c4.551-9.926,14.784-16.146,25.672-15.766c38.036,1.575,38.02,55.771,0,57.339   c0,0-57.85,0-90.469,0c-5.259,4.259-13.584,11-13.584,11l13.584,11h90.469C454.027,386.471,454.019,290.688,386.813,287.911z"/>
</g>















</svg>
