<svg width="24" height="24" viewBox="0 0 24 24" fill="none" xmlns="http://www.w3.org/2000/svg">
<path fill-rule="evenodd" clip-rule="evenodd" d="M5 18.7677C5.68376 18.3725 6.55101 18.4132 7.2 18.8999L8 19.4999L8.8 18.8999C9.51111 18.3666 10.4889 18.3666 11.2 18.8999L12 19.4999L12.8 18.8999C13.5111 18.3666 14.4889 18.3666 15.2 18.8999L16 19.4999L16.8 18.8999C17.449 18.4132 18.3162 18.3725 19 18.7677V5.23215C18.3162 5.62731 17.449 5.58667 16.8 5.09993L16 4.49993L15.2 5.09993C14.4889 5.63326 13.5111 5.63326 12.8 5.09993L12 4.49993L11.2 5.09993C10.4889 5.63326 9.51111 5.63326 8.8 5.09993L8 4.49993L7.2 5.09993C6.55101 5.58667 5.68376 5.62731 5 5.23215V18.7677ZM10 3.49993L8.6 2.44993C8.24444 2.18326 7.75556 2.18326 7.4 2.44993L6 3.49993L4.64018 2.36675C3.98886 1.82397 3 2.28713 3 3.13497V20.8649C3 21.7127 3.98886 22.1759 4.64018 21.6331L6 20.4999L7.4 21.5499C7.75556 21.8166 8.24444 21.8166 8.6 21.5499L10 20.4999L11.4 21.5499C11.7556 21.8166 12.2444 21.8166 12.6 21.5499L14 20.4999L15.4 21.5499C15.7556 21.8166 16.2444 21.8166 16.6 21.5499L18 20.4999L19.3598 21.6331C20.0111 22.1759 21 21.7127 21 20.8649V3.13497C21 2.28713 20.0111 1.82397 19.3598 2.36675L18 3.49993L16.6 2.44993C16.2444 2.18326 15.7556 2.18326 15.4 2.44993L14 3.49993L12.6 2.44993C12.2444 2.18326 11.7556 2.18326 11.4 2.44993L10 3.49993Z" fill="#43B0FF"/>
<path fill-rule="evenodd" clip-rule="evenodd" d="M7 10C7 9.44772 7.44772 9 8 9H16C16.5523 9 17 9.44772 17 10C17 10.5523 16.5523 11 16 11H8C7.44772 11 7 10.5523 7 10Z" fill="#43B0FF"/>
<path fill-rule="evenodd" clip-rule="evenodd" d="M7 14C7 13.4477 7.44772 13 8 13H12C12.5523 13 13 13.4477 13 14C13 14.5523 12.5523 15 12 15H8C7.44772 15 7 14.5523 7 14Z" fill="#43B0FF"/>
</svg>
