<svg width="26" height="26" viewBox="0 0 26 26" fill="none" xmlns="http://www.w3.org/2000/svg">
<g clip-path="url(#clip0_129_2327)">
<path d="M15.5616 0.991349C14.8614 0.353519 13.9474 0 12.9997 0C12.052 0 11.1386 0.353519 10.4378 0.991349L2.25446 8.39529C1.45577 9.11979 1 10.1485 1 11.2272V21.7773C1.00125 22.7898 1.40402 23.76 2.11979 24.4763C2.83555 25.1921 3.80633 25.5949 4.81888 25.5961H21.1811C22.1937 25.5949 23.1638 25.1921 23.8802 24.4763C24.596 23.7606 24.9988 22.7898 25 21.7773V11.2278C25 10.1492 24.5442 9.12103 23.7455 8.39654L15.5616 0.991349ZM23.9089 21.7773C23.9076 22.5005 23.6202 23.1938 23.109 23.7051C22.5977 24.2164 21.9044 24.5038 21.1811 24.505H4.81451C4.09126 24.5038 3.39794 24.2164 2.88668 23.7051C2.37542 23.1938 2.08799 22.5005 2.08674 21.7773V11.2278C2.08737 10.4572 2.41345 9.72208 2.98457 9.20458L11.1685 1.80126C11.6692 1.34549 12.3213 1.09298 12.9984 1.09298C13.6756 1.09298 14.3277 1.34549 14.8284 1.80126L23.0117 9.20521C23.5828 9.7227 23.9089 10.4572 23.9095 11.2284V21.7779L23.9089 21.7773Z" fill="#7558EA"/>
<path d="M10.8157 10.8662H9.72455C9.2906 10.8662 8.87411 11.0389 8.56735 11.3457C8.2606 11.6524 8.08789 12.0689 8.08789 12.5029V13.594C8.08789 14.0279 8.2606 14.4444 8.56735 14.7512C8.87411 15.0579 9.2906 15.2306 9.72455 15.2306H10.8157C11.2496 15.2306 11.6661 15.0579 11.9729 14.7512C12.2796 14.4444 12.4523 14.0279 12.4523 13.594V12.5029C12.4523 12.0689 12.2796 11.6524 11.9729 11.3457C11.6661 11.0389 11.2496 10.8662 10.8157 10.8662ZM11.3612 13.594C11.3612 13.7386 11.3039 13.8777 11.2016 13.9799C11.0993 14.0822 10.9603 14.1395 10.8157 14.1395H9.72455C9.42341 14.1395 9.179 13.8951 9.179 13.594V12.5029C9.179 12.2017 9.42341 11.9573 9.72455 11.9573H10.8157C10.9603 11.9573 11.0993 12.0147 11.2016 12.1169C11.3039 12.2192 11.3612 12.3582 11.3612 12.5029V13.594Z" fill="#7558EA"/>
<path d="M16.2707 10.8662H15.1796C14.7457 10.8662 14.3292 11.0389 14.0224 11.3457C13.7157 11.6524 13.543 12.0689 13.543 12.5029V13.594C13.543 14.0279 13.7157 14.4444 14.0224 14.7512C14.3292 15.0579 14.7457 15.2306 15.1796 15.2306H16.2707C16.7047 15.2306 17.1212 15.0579 17.4279 14.7512C17.7347 14.4444 17.9074 14.0279 17.9074 13.594V12.5029C17.9074 12.0689 17.7347 11.6524 17.4279 11.3457C17.1212 11.0389 16.7047 10.8662 16.2707 10.8662ZM16.8163 13.594C16.8163 13.7386 16.7589 13.8777 16.6567 13.9799C16.5544 14.0822 16.4154 14.1395 16.2707 14.1395H15.1796C14.8785 14.1395 14.6341 13.8951 14.6341 13.594V12.5029C14.6341 12.2017 14.8785 11.9573 15.1796 11.9573H16.2707C16.4154 11.9573 16.5544 12.0147 16.6567 12.1169C16.7589 12.2192 16.8163 12.3582 16.8163 12.5029V13.594Z" fill="#7558EA"/>
<path d="M10.8157 16.3218H9.72455C9.2906 16.3218 8.87411 16.4945 8.56735 16.8012C8.2606 17.108 8.08789 17.5245 8.08789 17.9584V19.0495C8.08789 19.4835 8.2606 19.9 8.56735 20.2067C8.87411 20.5135 9.2906 20.6862 9.72455 20.6862H10.8157C11.2496 20.6862 11.6661 20.5135 11.9729 20.2067C12.2796 19.9 12.4523 19.4835 12.4523 19.0495V17.9584C12.4523 17.5245 12.2796 17.108 11.9729 16.8012C11.6661 16.4945 11.2496 16.3218 10.8157 16.3218ZM11.3612 19.0495C11.3612 19.1942 11.3039 19.3332 11.2016 19.4355C11.0993 19.5377 10.9603 19.5951 10.8157 19.5951H9.72455C9.42341 19.5951 9.179 19.3507 9.179 19.0495V17.9584C9.179 17.6573 9.42341 17.4129 9.72455 17.4129H10.8157C10.9603 17.4129 11.0993 17.4702 11.2016 17.5725C11.3039 17.6748 11.3612 17.8138 11.3612 17.9584V19.0495Z" fill="#7558EA"/>
<path d="M16.2707 16.3218H15.1796C14.7457 16.3218 14.3292 16.4945 14.0224 16.8012C13.7157 17.108 13.543 17.5245 13.543 17.9584V19.0495C13.543 19.4835 13.7157 19.9 14.0224 20.2067C14.3292 20.5135 14.7457 20.6862 15.1796 20.6862H16.2707C16.7047 20.6862 17.1212 20.5135 17.4279 20.2067C17.7347 19.9 17.9074 19.4835 17.9074 19.0495V17.9584C17.9074 17.5245 17.7347 17.108 17.4279 16.8012C17.1212 16.4945 16.7047 16.3218 16.2707 16.3218ZM16.8163 19.0495C16.8163 19.1942 16.7589 19.3332 16.6567 19.4355C16.5544 19.5377 16.4154 19.5951 16.2707 19.5951H15.1796C14.8785 19.5951 14.6341 19.3507 14.6341 19.0495V17.9584C14.6341 17.6573 14.8785 17.4129 15.1796 17.4129H16.2707C16.4154 17.4129 16.5544 17.4702 16.6567 17.5725C16.7589 17.6748 16.8163 17.8138 16.8163 17.9584V19.0495Z" fill="#7558EA"/>
</g>
<defs>
<clipPath id="clip0_129_2327">
<rect width="24" height="25.5961" fill="white" transform="translate(1)"/>
</clipPath>
</defs>
</svg>
