<svg width="23" height="25" viewBox="0 0 23 25" fill="none" xmlns="http://www.w3.org/2000/svg">
<g clip-path="url(#clip0_129_2744)">
<path d="M11.4994 0C10.6972 0 9.91667 0.0861239 9.16518 0.232288C8.9575 0.271167 8.79066 0.424714 8.73456 0.628458L8.14892 2.816C7.02832 3.21956 6.00812 3.81996 5.11736 4.57293L2.92981 3.98729C2.72557 3.93266 2.50805 3.99959 2.36976 4.15954C1.86778 4.73632 1.40173 5.36724 1.00063 6.06312C0.599543 6.75753 0.27621 7.47457 0.0271887 8.19899C-0.0392497 8.39929 0.013901 8.61977 0.164987 8.76741L1.75803 10.3609C1.6537 10.9372 1.57693 11.5199 1.57693 12.1267C1.57693 12.7335 1.65321 13.3157 1.75803 13.8925L0.165479 15.4851C0.0143931 15.6327 -0.0387576 15.8532 0.0276808 16.0535C0.276702 16.7779 0.600036 17.495 1.00113 18.1894C1.40271 18.8848 1.86827 19.5162 2.37025 20.0929C2.50854 20.2529 2.72607 20.3198 2.9303 20.2652L5.11785 19.6796C6.00862 20.4325 7.02881 21.0329 8.14941 21.4365L8.73505 23.624C8.79115 23.8278 8.95799 23.9818 9.16567 24.0202C9.91716 24.1669 10.6972 24.2525 11.4999 24.2525C12.3025 24.2525 13.0826 24.1664 13.8341 24.0202C14.0418 23.9813 14.2086 23.8278 14.2647 23.624L14.8503 21.4365C15.9709 21.0329 16.9911 20.4325 17.8819 19.6796L20.0694 20.2652C20.2737 20.3198 20.4912 20.2529 20.6295 20.0929C21.1315 19.5162 21.5975 18.8852 21.9986 18.1894C22.3997 17.495 22.723 16.7779 22.9721 16.0535C23.0385 15.8532 22.9854 15.6327 22.8343 15.4851L21.2407 13.8915C21.3451 13.3152 21.4218 12.7326 21.4218 12.1258C21.4218 11.5189 21.3456 10.9367 21.2407 10.36L22.8343 8.76643C22.9854 8.61879 23.0385 8.39831 22.9721 8.19801C22.723 7.47358 22.3997 6.75654 21.9986 6.06214C21.597 5.36675 21.1315 4.73534 20.6295 4.15855C20.4912 3.99861 20.2737 3.93168 20.0694 3.98631L17.8819 4.57195C16.9906 3.81898 15.9709 3.21857 14.8503 2.81502L14.2647 0.627474C14.2086 0.42373 14.0418 0.269691 13.8341 0.231304C13.0821 0.0861239 12.3021 0 11.4994 0ZM11.4994 1.10239C12.1077 1.10239 12.7036 1.18506 13.2908 1.28349L13.8508 3.35932C13.9 3.53846 14.0359 3.68118 14.2125 3.73827C15.4084 4.1246 16.4951 4.7565 17.408 5.58132C17.5468 5.71026 17.7416 5.75898 17.9247 5.71026L20.0005 5.15021C20.3805 5.61036 20.7466 6.08674 21.0513 6.61431C21.3569 7.14434 21.5828 7.69948 21.7919 8.25953L20.2761 9.77531C20.1438 9.90523 20.0852 10.0927 20.1211 10.2748C20.2486 10.8713 20.319 11.4914 20.319 12.1267C20.319 12.7621 20.2486 13.3817 20.1211 13.9782C20.0852 14.1602 20.1438 14.3477 20.2761 14.4777L21.7919 15.9935C21.5828 16.553 21.3569 17.1086 21.0513 17.6387C20.7466 18.1662 20.3805 18.6426 20.0005 19.1028L17.9247 18.5427C17.7416 18.4945 17.5468 18.5427 17.408 18.6717C16.4951 19.496 15.4089 20.1284 14.2125 20.5147C14.0359 20.5718 13.8995 20.7145 13.8508 20.8937L13.2908 22.9695C12.7036 23.0679 12.1077 23.1506 11.4994 23.1506C10.8911 23.1506 10.2951 23.0679 9.708 22.9695L9.14795 20.8937C9.09874 20.7145 8.96291 20.5718 8.78623 20.5147C7.59034 20.1284 6.5037 19.496 5.59079 18.6717C5.45201 18.5427 5.25712 18.494 5.07405 18.5427L2.99822 19.1028C2.61829 18.6426 2.25214 18.1662 1.94751 17.6387C1.64189 17.1086 1.416 16.5535 1.20684 15.9935L2.72262 14.4777C2.85501 14.3477 2.91357 14.1602 2.87764 13.9782C2.75018 13.3817 2.6798 12.7621 2.6798 12.1267C2.6798 11.4914 2.75018 10.8718 2.87764 10.2753C2.91357 10.0932 2.85501 9.90572 2.72262 9.7758L1.20684 8.26002C1.416 7.70046 1.64189 7.14484 1.94751 6.61481C2.25214 6.08724 2.61829 5.61085 2.99822 5.1507L5.07405 5.71075C5.25712 5.75898 5.45201 5.71075 5.59079 5.58181C6.5037 4.75748 7.58985 4.12509 8.78623 3.73876C8.96291 3.68167 9.09923 3.53895 9.14795 3.35982L9.708 1.28398C10.2951 1.18556 10.8911 1.10288 11.4994 1.10288V1.10239ZM11.4994 6.33872C8.30935 6.33872 5.71186 8.93671 5.71186 12.1262C5.71186 15.3158 8.30984 17.9138 11.4994 17.9138C14.6889 17.9138 17.2869 15.3158 17.2869 12.1262C17.2869 8.93671 14.6889 6.33872 11.4994 6.33872ZM11.4994 7.4411C14.0934 7.4411 16.1845 9.53219 16.1845 12.1262C16.1845 14.7203 14.0934 16.8114 11.4994 16.8114C8.90533 16.8114 6.81424 14.7203 6.81424 12.1262C6.81424 9.53219 8.90533 7.4411 11.4994 7.4411Z" fill="white"/>
</g>
<defs>
<clipPath id="clip0_129_2744">
<rect width="23" height="24.2525" fill="white"/>
</clipPath>
</defs>
</svg>
