<svg width="78" height="13" viewBox="0 0 78 13" fill="none" xmlns="http://www.w3.org/2000/svg">
<path d="M13.0335 4.97746C12.9479 4.71418 12.7144 4.52779 12.4392 4.50289L8.68591 4.16213L7.20257 0.689345C7.09305 0.434203 6.84386 0.269531 6.5665 0.269531C6.28914 0.269531 6.03985 0.434203 5.93103 0.689345L4.44769 4.16213L0.69377 4.50289C0.418589 4.52828 0.185569 4.71468 0.0994631 4.97746C0.0138536 5.24073 0.0929159 5.52951 0.301037 5.71203L3.13825 8.19987L2.3017 11.8843C2.24049 12.1553 2.34565 12.4354 2.57043 12.5979C2.69126 12.6857 2.83321 12.7295 2.97566 12.7295C3.09808 12.7295 3.22059 12.697 3.33001 12.6315L6.5665 10.6963L9.8024 12.6315C10.0398 12.7734 10.3383 12.7604 10.5626 12.5979C10.7874 12.4354 10.8925 12.1553 10.8313 11.8843L9.99475 8.19987L12.832 5.71203C13.04 5.52951 13.1191 5.24133 13.0335 4.97746Z" fill="#6640FF"/>
<path d="M29.0355 4.97746C28.9499 4.71418 28.7164 4.52779 28.4412 4.50289L24.6879 4.16213L23.2045 0.689345C23.095 0.434203 22.8458 0.269531 22.5685 0.269531C22.2911 0.269531 22.0418 0.434203 21.933 0.689345L20.4496 4.16213L16.6957 4.50289C16.4205 4.52828 16.1875 4.71468 16.1014 4.97746C16.0158 5.24073 16.0949 5.52951 16.303 5.71203L19.1402 8.19987L18.3037 11.8843C18.2424 12.1553 18.3476 12.4354 18.5724 12.5979C18.6932 12.6857 18.8352 12.7295 18.9776 12.7295C19.1 12.7295 19.2225 12.697 19.332 12.6315L22.5685 10.6963L25.8044 12.6315C26.0417 12.7734 26.3402 12.7604 26.5645 12.5979C26.7893 12.4354 26.8945 12.1553 26.8333 11.8843L25.9967 8.19987L28.8339 5.71203C29.0419 5.52951 29.1211 5.24133 29.0355 4.97746Z" fill="#6640FF"/>
<path d="M45.0374 4.97746C44.9518 4.71418 44.7183 4.52779 44.4431 4.50289L40.6898 4.16213L39.2065 0.689345C39.097 0.434203 38.8478 0.269531 38.5704 0.269531C38.293 0.269531 38.0438 0.434203 37.9349 0.689345L36.4516 4.16213L32.6977 4.50289C32.4225 4.52828 32.1895 4.71468 32.1034 4.97746C32.0178 5.24073 32.0968 5.52951 32.3049 5.71203L35.1422 8.19987L34.3056 11.8843C34.2444 12.1553 34.3496 12.4354 34.5743 12.5979C34.6952 12.6857 34.8371 12.7295 34.9796 12.7295C35.102 12.7295 35.2245 12.697 35.3339 12.6315L38.5704 10.6963L41.8063 12.6315C42.0437 12.7734 42.3422 12.7604 42.5665 12.5979C42.7913 12.4354 42.8964 12.1553 42.8352 11.8843L41.9987 8.19987L44.8359 5.71203C45.0439 5.52951 45.1231 5.24133 45.0374 4.97746Z" fill="#6640FF"/>
<path d="M61.0394 4.97746C60.9538 4.71418 60.7203 4.52779 60.4451 4.50289L56.6918 4.16213L55.2084 0.689345C55.0989 0.434203 54.8497 0.269531 54.5724 0.269531C54.295 0.269531 54.0457 0.434203 53.9369 0.689345L52.4536 4.16213L48.6996 4.50289C48.4244 4.52828 48.1914 4.71468 48.1053 4.97746C48.0197 5.24073 48.0988 5.52951 48.3069 5.71203L51.1441 8.19987L50.3076 11.8843C50.2464 12.1553 50.3515 12.4354 50.5763 12.5979C50.6971 12.6857 50.8391 12.7295 50.9815 12.7295C51.1039 12.7295 51.2264 12.697 51.3359 12.6315L54.5724 10.6963L57.8083 12.6315C58.0456 12.7734 58.3441 12.7604 58.5684 12.5979C58.7932 12.4354 58.8984 12.1553 58.8372 11.8843L58.0006 8.19987L60.8378 5.71203C61.0458 5.52951 61.125 5.24133 61.0394 4.97746Z" fill="#6640FF"/>
<path opacity="0.3" d="M77.0414 4.97746C76.9557 4.71418 76.7222 4.52779 76.447 4.50289L72.6937 4.16213L71.2104 0.689345C71.1009 0.434203 70.8517 0.269531 70.5743 0.269531C70.297 0.269531 70.0477 0.434203 69.9388 0.689345L68.4555 4.16213L64.7016 4.50289C64.4264 4.52828 64.1934 4.71468 64.1073 4.97746C64.0217 5.24073 64.1007 5.52951 64.3088 5.71203L67.1461 8.19987L66.3095 11.8843C66.2483 12.1553 66.3535 12.4354 66.5782 12.5979C66.6991 12.6857 66.841 12.7295 66.9835 12.7295C67.1059 12.7295 67.2284 12.697 67.3378 12.6315L70.5743 10.6963L73.8102 12.6315C74.0476 12.7734 74.3461 12.7604 74.5704 12.5979C74.7952 12.4354 74.9003 12.1553 74.8391 11.8843L74.0026 8.19987L76.8398 5.71203C77.0478 5.52951 77.127 5.24133 77.0414 4.97746Z" fill="#5B7486"/>
</svg>
