<svg width="28" height="28" viewBox="0 0 28 28" fill="none" xmlns="http://www.w3.org/2000/svg">
<g clip-path="url(#clip0_607_2552)">
<path d="M9.64805 15.8585L0.442571 24.777C-0.147524 25.3506 -0.147524 26.2396 0.442571 26.8131C1.03267 27.3867 1.94731 27.3867 2.53741 26.8131L11.7134 17.8945L11.3003 16.2599L9.64805 15.8585Z" fill="white"/>
<path d="M20.7419 8.31637C21.0664 8.31637 21.391 8.20166 21.627 7.94357L24.0759 5.56337C24.5775 5.07586 24.5775 4.30158 24.0759 3.84274C23.5743 3.35523 22.7777 3.35523 22.2761 3.84274L19.8272 6.22294C19.3257 6.71045 19.3257 7.48474 19.8272 7.94357C20.0928 8.20166 20.4173 8.31637 20.7419 8.31637Z" fill="white"/>
<path d="M14.5753 5.82145C15.2835 5.82145 15.844 5.27659 15.844 4.58834V1.23312C15.844 0.544865 15.2835 0 14.5753 0C13.8672 0 13.3066 0.544865 13.3066 1.23312V4.58834C13.3066 5.27659 13.8672 5.82145 14.5753 5.82145Z" fill="white"/>
<path d="M7.46469 7.94357C7.70073 8.17299 8.02528 8.31637 8.34983 8.31637C8.67439 8.31637 8.99894 8.20166 9.23498 7.94357C9.73656 7.45606 9.73656 6.68178 9.23498 6.22294L6.78608 3.84274C6.2845 3.35523 5.48787 3.35523 4.98629 3.84274C4.48471 4.33026 4.48471 5.10454 4.98629 5.56337L7.46469 7.94357Z" fill="white"/>
<path d="M21.5975 18.2673C21.0959 17.7798 20.2993 17.7798 19.7977 18.2673C19.2961 18.7548 19.2961 19.5291 19.7977 19.9879L22.2466 22.3681C22.4826 22.5975 22.8072 22.7409 23.1317 22.7409C23.4563 22.7409 23.7808 22.6262 24.0169 22.3681C24.5185 21.8806 24.5185 21.1063 24.0169 20.6475L21.5975 18.2673Z" fill="white"/>
<path d="M26.7608 11.901H23.2792C22.5711 11.901 22.0105 12.4459 22.0105 13.1341C22.0105 13.8224 22.5711 14.3672 23.2792 14.3672H26.7313C27.4394 14.3672 28 13.8224 28 13.1341C28 12.4459 27.4394 11.901 26.7608 11.901Z" fill="white"/>
<path d="M19.3551 14.5966L17.7619 12.7613C17.6143 12.5892 17.5848 12.3598 17.6733 12.1591L18.6175 9.95093C18.824 9.46342 18.3224 8.97591 17.8209 9.17665L15.549 10.0943C15.3425 10.1803 15.1064 10.1517 14.9294 10.0083L13.0116 8.45972C12.5985 8.1156 11.9789 8.43104 12.0084 8.94723L12.1855 11.3274C12.215 11.5568 12.0969 11.7576 11.8904 11.8723L9.79558 13.1341C9.353 13.4209 9.44152 14.0804 9.9726 14.1951L12.3625 14.7687C12.569 14.826 12.746 14.9981 12.8051 15.1988L13.3952 17.5217C13.5132 18.0379 14.2213 18.1239 14.4868 17.6937L15.785 15.6577C15.9031 15.4856 16.1096 15.3709 16.3456 15.3709L18.7945 15.543C19.3851 15.6008 19.7092 14.9986 19.3551 14.5971V14.5966Z" fill="white"/>
</g>
<defs>
<clipPath id="clip0_607_2552">
<rect width="28" height="27.2432" fill="white"/>
</clipPath>
</defs>
</svg>
