<?xml version="1.0" encoding="utf-8"?>
<svg width="512px" height="318.96997px" viewBox="0 0 512 318.96997" version="1.1" xmlns:xlink="http://www.w3.org/1999/xlink" xmlns="http://www.w3.org/2000/svg">
  <defs>
    <path d="M0 0L512 0L512 318.97L0 318.97L0 0Z" id="path_1" />
    <clipPath id="mask_1">
      <use xlink:href="#path_1" />
    </clipPath>
  </defs>
  <g id="tutor-icon">
    <path d="M0 0L512 0L512 318.97L0 318.97L0 0Z" id="Background" fill="#FFFFFF" fill-opacity="0" fill-rule="evenodd" stroke="none" />
    <path d="M165.11 35.37C161.24 35.37 158.12 32.25 158.12 28.38C158.12 24.51 161.24 21.39 165.11 21.39L313.48 21.39L313.48 6.99C313.48 3.12 316.6 0 320.47 0C324.34 0 327.46 3.12 327.46 6.99L327.46 21.39L504.26 21.39C508.13 21.39 511.25 24.51 511.25 28.38C511.25 32.25 508.13 35.37 504.26 35.37L488.17 35.37L488.17 236.25L505.01 236.25C508.88 236.25 512 239.37 512 243.24C512 247.11 508.88 250.23 505.01 250.23L324.7 250.23L324.7 257.33C325.08 257.58 325.33 257.83 325.57 258.08L368.37 298.76C371.11 301.38 371.24 305.87 368.62 308.61C366 311.36 361.51 311.48 358.76 308.86L324.83 276.55L324.83 311.98C324.83 315.85 321.71 318.97 317.84 318.97C313.97 318.97 310.85 315.85 310.85 311.98L310.85 275.18L275.42 308.86C272.67 311.48 268.18 311.48 265.56 308.61C262.94 305.87 262.94 301.38 265.81 298.76L308.61 258.08C309.23 257.46 310.1 256.96 310.85 256.58L310.85 250.23L163.06 250.23C159.19 250.23 156.07 247.11 156.07 243.24C156.07 239.37 159.19 236.25 163.06 236.25L474.19 236.25L474.19 35.37L165.11 35.37L165.11 35.37ZM301.7 206.69C298.165 206.69 295.3 203.825 295.3 200.29C295.3 196.76 298.17 193.9 301.7 193.9L438.07 193.9C441.6 193.9 444.46 196.76 444.46 200.29C444.46 203.83 441.6 206.69 438.07 206.69L301.7 206.69L301.7 206.69ZM311.36 163.7C307.83 163.7 304.97 160.84 304.97 157.31C304.97 153.77 307.83 150.91 311.36 150.91L438.07 150.91C441.6 150.91 444.46 153.77 444.46 157.31C444.46 160.84 441.6 163.7 438.07 163.7L311.36 163.7L311.36 163.7ZM290.58 120.71C287.05 120.71 284.19 117.85 284.19 114.32C284.19 110.79 287.05 107.92 290.58 107.92L438.07 107.92C441.6 107.92 444.46 110.79 444.46 114.32C444.46 117.85 441.6 120.71 438.07 120.71L290.58 120.71L290.58 120.71ZM224.81 77.72C221.28 77.72 218.42 74.86 218.42 71.33C218.42 67.8 221.28 64.93 224.81 64.93L438.07 64.93C441.6 64.93 444.46 67.8 444.46 71.33C444.46 74.86 441.6 77.72 438.07 77.72L224.81 77.72L224.81 77.72ZM220.19 162.24L268.68 111.4C271.53 108.4 276.27 108.29 279.26 111.13C282.26 113.98 282.37 118.72 279.53 121.71L233.85 169.61C237.6 174.15 239.38 180.26 238.19 186.49C236.07 197.58 225.36 204.85 214.28 202.73L163.57 192.98C158.51 192.1 153.77 189.32 150.52 184.83L134.07 162.1L134.03 164.15L134.03 162.67L132.72 238.51L134.71 249.87L49.66 249.87L51.42 239.35L49.86 164.11L49.86 164.15L49.6 151.25L49.51 151.35C40.81 160.06 40.44 180.82 39.47 193.43L37.26 222.31C36.75 228.9 36.2 232.62 31.04 237.08C23.54 243.54 10.91 244.87 4.24 236.7C-0.0700002 231.44 -0.28 223.04 0.16 215.37C2.38 177 6.89 119.25 49.86 100.25L49.86 100.73C68.08 93.49 89.55 96.64 109.15 96.64C118.48 96.64 126.68 98.01 133.96 100.8C138.61 101.87 142.9 104.56 145.92 108.73L178.88 154.3L220.19 162.24L220.19 162.24ZM91.77 3.13C115.66 3.13 135.02 22.49 135.02 46.38C135.02 70.26 115.66 89.62 91.77 89.62C67.88 89.62 48.52 70.26 48.52 46.38C48.52 22.49 67.88 3.13 91.77 3.13L91.77 3.13Z" id="Shape" fill="#FFFFFF" fill-rule="evenodd" stroke="none" />
  </g>
</svg>