<svg width="17" height="13" viewBox="0 0 17 13" fill="none" xmlns="http://www.w3.org/2000/svg">
<path d="M11.5213 0.0833759V0.0805664H12.2765L12.5524 0.133946C12.7363 0.168601 12.9033 0.214016 13.0534 0.270205C13.2035 0.326394 13.3487 0.391953 13.4891 0.466867C13.6295 0.541781 13.7568 0.618114 13.871 0.695838C13.9843 0.772634 14.086 0.854108 14.176 0.94026C14.265 1.02735 14.404 1.04983 14.5928 1.00769C14.7816 0.965546 14.9849 0.90701 15.2027 0.832096C15.4205 0.757182 15.636 0.672898 15.849 0.579245C16.062 0.485592 16.1917 0.42613 16.2382 0.400845C16.2837 0.374632 16.3079 0.360585 16.3108 0.358703L16.3137 0.354489L16.3282 0.347465L16.3427 0.340441L16.3572 0.333418L16.3718 0.326394L16.3747 0.32218L16.379 0.31937L16.3834 0.316561L16.3863 0.312347L16.4008 0.308132L16.4153 0.305323L16.4124 0.326394L16.4081 0.347465L16.4008 0.368536L16.3935 0.389607L16.3863 0.403654L16.379 0.417701L16.3718 0.438772C16.3669 0.45282 16.3621 0.471545 16.3572 0.494961C16.3524 0.518378 16.3064 0.612017 16.2193 0.775907C16.1321 0.939797 16.0232 1.10602 15.8925 1.27459C15.7618 1.44315 15.6447 1.57051 15.5411 1.65667C15.4365 1.74377 15.3673 1.80463 15.3334 1.83929C15.2995 1.87487 15.2584 1.90764 15.21 1.93762L15.1374 1.98397L15.1228 1.991L15.1083 1.99802L15.1054 2.00224L15.1011 2.00504L15.0967 2.00785L15.0938 2.01207L15.0793 2.01909L15.0647 2.02612L15.0619 2.03033L15.0575 2.03314L15.0531 2.03595L15.0502 2.04016L15.0473 2.04438L15.043 2.04719L15.0386 2.05L15.0357 2.05421H15.1083L15.5149 1.96993C15.786 1.91374 16.045 1.84585 16.2919 1.76624L16.684 1.63982L16.7276 1.62577L16.7493 1.61874L16.7639 1.61172L16.7784 1.6047L16.7929 1.59767L16.8074 1.59065L16.8365 1.58644L16.8655 1.58363V1.61172L16.8583 1.61453L16.851 1.61874L16.8481 1.62296L16.8437 1.62577L16.8394 1.62858L16.8365 1.63279L16.8336 1.63701L16.8292 1.63982L16.8249 1.64262L16.8219 1.64684L16.8191 1.65105L16.8147 1.65386L16.8074 1.66791L16.8002 1.68196L16.7958 1.68477C16.7939 1.68758 16.7324 1.76717 16.6114 1.92357C16.4904 2.0809 16.425 2.16049 16.4153 2.16237C16.4057 2.16518 16.3921 2.17923 16.3747 2.20452C16.3582 2.23073 16.2556 2.33516 16.0668 2.51777C15.878 2.70039 15.6931 2.86286 15.5121 3.00521C15.33 3.14849 15.2381 3.32455 15.2361 3.53339C15.2332 3.74129 15.2221 3.97636 15.2027 4.23856C15.1834 4.50078 15.147 4.78406 15.0938 5.08842C15.0406 5.39279 14.9583 5.73695 14.8469 6.1209C14.7356 6.50485 14.6 6.87945 14.4403 7.24468C14.2805 7.60991 14.1135 7.93768 13.9393 8.22799C13.765 8.51831 13.6053 8.76414 13.46 8.96548C13.3148 9.16682 13.1672 9.35645 13.0171 9.53439C12.867 9.71233 12.6773 9.91274 12.4478 10.1356C12.2174 10.3576 12.0916 10.4793 12.0703 10.5008C12.048 10.5215 11.9531 10.5982 11.7856 10.7312C11.6191 10.8651 11.44 10.999 11.2483 11.133C11.0576 11.266 10.8823 11.3769 10.7226 11.4659C10.5628 11.5549 10.3702 11.6565 10.1446 11.7707C9.91998 11.8859 9.67696 11.9927 9.41556 12.091C9.15416 12.1893 8.87824 12.2806 8.58779 12.3649C8.29734 12.4492 8.01658 12.5148 7.74549 12.5616C7.47442 12.6084 7.16703 12.6482 6.82333 12.681L6.30778 12.7301V12.7372H5.36383V12.7301L5.24039 12.7231C5.15811 12.7184 5.09033 12.7138 5.03708 12.7091C4.98384 12.7044 4.78294 12.6786 4.4344 12.6318C4.08587 12.585 3.81237 12.5382 3.61389 12.4913C3.41543 12.4445 3.12013 12.3555 2.72803 12.2244C2.33593 12.0933 2.00046 11.9608 1.72163 11.8269C1.44378 11.6939 1.26951 11.6096 1.19883 11.5741C1.12912 11.5394 1.0507 11.4963 0.963567 11.4448L0.832866 11.3676L0.829976 11.3633L0.825604 11.3605L0.821248 11.3577L0.818343 11.3535L0.803821 11.3465L0.789299 11.3395L0.786409 11.3353L0.782037 11.3324L0.777681 11.3296L0.774776 11.3254L0.771886 11.3212L0.767515 11.3184H0.760254V11.2903L0.774776 11.2931L0.789299 11.2973L0.854649 11.3043C0.898216 11.309 1.01682 11.3161 1.21045 11.3254C1.40409 11.3348 1.60981 11.3348 1.82765 11.3254C2.04548 11.3161 2.26817 11.295 2.49567 11.2622C2.72319 11.2294 2.99186 11.1732 3.30166 11.0936C3.61148 11.014 3.89612 10.9195 4.15559 10.8099C4.41409 10.6994 4.59803 10.617 4.70744 10.5627C4.81586 10.5093 4.98142 10.41 5.20409 10.2648L5.5381 10.0471L5.541 10.0429L5.54536 10.0401L5.54973 10.0373L5.55262 10.0331L5.55553 10.0289L5.55988 10.026L5.56425 10.0232L5.56714 10.019L5.58167 10.0148L5.59619 10.012L5.59909 9.99795L5.60345 9.9839L5.60782 9.98109L5.61071 9.97688L5.49453 9.96986C5.41709 9.96518 5.34205 9.96049 5.26944 9.95581C5.19683 9.95113 5.08307 9.93006 4.92816 9.8926C4.77327 9.85513 4.60626 9.79894 4.42714 9.72403C4.24804 9.64911 4.07377 9.56014 3.90434 9.45713C3.73492 9.35412 3.61244 9.26842 3.53692 9.20007C3.46238 9.13262 3.36556 9.03712 3.24648 8.9135C3.12837 8.78896 3.02574 8.66111 2.9386 8.53001C2.85147 8.39891 2.76821 8.24765 2.68883 8.07628L2.56828 7.82062L2.56102 7.79955L2.55376 7.77848L2.5494 7.76443L2.5465 7.75039L2.56828 7.75319L2.59007 7.75741L2.74981 7.77848C2.85632 7.79253 3.02333 7.7972 3.25083 7.79253C3.47835 7.78785 3.63567 7.77848 3.72281 7.76443C3.80994 7.75039 3.8632 7.74102 3.88255 7.73634L3.9116 7.72931L3.94791 7.72229L3.98421 7.71527L3.98712 7.71105L3.99147 7.70824L3.99584 7.70543L3.99873 7.70122L3.96969 7.6942L3.94064 7.68717L3.9116 7.68015L3.88255 7.67313L3.85351 7.6661C3.83415 7.66142 3.80027 7.65205 3.75185 7.63801C3.70345 7.62396 3.57275 7.57245 3.35975 7.48349C3.14677 7.39453 2.97733 7.3079 2.85147 7.22361C2.72529 7.13908 2.60498 7.04664 2.49132 6.94688C2.37804 6.84574 2.25364 6.71556 2.11809 6.55637C1.98255 6.39717 1.86154 6.21221 1.75503 6.0015C1.64854 5.79079 1.56867 5.58945 1.51542 5.39746C1.46238 5.20661 1.42738 5.01149 1.41087 4.8145L1.38471 4.51951L1.39924 4.52232L1.41376 4.52653L1.42828 4.53356L1.4428 4.54058L1.45733 4.5476L1.47185 4.55463L1.69694 4.65296C1.84702 4.71852 2.03338 4.77471 2.25605 4.82153C2.47874 4.86835 2.61185 4.89411 2.65542 4.89879L2.72077 4.90581H2.85147L2.84858 4.9016L2.84421 4.89879L2.83985 4.89598L2.83695 4.89176L2.83406 4.88755L2.82969 4.88474L2.82533 4.88193L2.82242 4.87772L2.8079 4.87069L2.79338 4.86367L2.79049 4.85945L2.78612 4.85664L2.78176 4.85383L2.77886 4.84962L2.76434 4.8426L2.74981 4.83557L2.74692 4.83136C2.74402 4.82948 2.70238 4.79951 2.62202 4.74146C2.54262 4.68246 2.45937 4.60614 2.37223 4.51249C2.2851 4.41883 2.19796 4.3205 2.11083 4.21749C2.02354 4.11425 1.94578 4.00379 1.87847 3.88738C1.81071 3.77033 1.73906 3.62141 1.66354 3.44068C1.589 3.26087 1.53236 3.07966 1.49363 2.89705C1.45491 2.71443 1.43313 2.53416 1.42828 2.35623C1.42345 2.17829 1.42828 2.02612 1.4428 1.89969C1.45733 1.77326 1.48637 1.63045 1.52994 1.47125C1.5735 1.31205 1.63644 1.14348 1.71873 0.965546L1.84217 0.698647L1.84943 0.677576L1.85669 0.656505L1.86106 0.653696L1.86395 0.649482L1.86686 0.645267L1.87121 0.642458L1.87558 0.645267L1.87847 0.649482L1.88138 0.653696L1.88573 0.656505L1.89011 0.659315L1.893 0.663529L1.8959 0.667743L1.90026 0.670552L1.90752 0.6846L1.91478 0.698647L1.91915 0.701457L1.92204 0.705671L2.11809 0.91638C2.24879 1.05685 2.4037 1.21372 2.58281 1.38696C2.76192 1.56021 2.86116 1.65011 2.88051 1.65667C2.89989 1.66416 2.92408 1.68569 2.95313 1.72129C2.98217 1.75594 3.07899 1.83882 3.24357 1.96993C3.40817 2.10103 3.62358 2.25322 3.88982 2.42646C4.15607 2.59971 4.45135 2.77062 4.77568 2.93919C5.10002 3.10776 5.44856 3.25993 5.82129 3.39573C6.19403 3.53152 6.45543 3.62048 6.60549 3.66262C6.75557 3.70477 7.01212 3.75861 7.37517 3.82417C7.73823 3.88973 8.01175 3.93187 8.19569 3.95059C8.37964 3.96932 8.50551 3.98009 8.57327 3.9829L8.67492 3.98571L8.67203 3.96464L8.66766 3.94357L8.63862 3.76798C8.61926 3.65092 8.60957 3.48703 8.60957 3.27632C8.60957 3.06561 8.62652 2.8713 8.6604 2.69336C8.6943 2.51542 8.74512 2.33516 8.81289 2.15254C8.88066 1.96993 8.94698 1.82336 9.01184 1.71286C9.07769 1.60329 9.16385 1.47827 9.27034 1.3378C9.37685 1.19733 9.51481 1.05218 9.68423 0.902333C9.85366 0.75249 10.0473 0.619041 10.2651 0.501985C10.483 0.384929 10.6839 0.295953 10.8678 0.235087C11.0517 0.17422 11.2067 0.13441 11.3325 0.115685C11.4584 0.0969596 11.5213 0.0861853 11.5213 0.0833759Z" fill="white"/>
</svg>
