<svg width="77" height="77" viewBox="0 0 77 77" fill="none" xmlns="http://www.w3.org/2000/svg">
<rect opacity="0.1" width="76.6355" height="76.6355" rx="12" fill="#7558EA"/>
<path d="M59.1574 37.1424C59.1574 35.4517 57.7816 34.076 56.0909 34.076C54.9174 34.076 54.3232 34.5777 54.1387 34.7697L44.0533 44.8546C44.0537 44.8317 44.0565 44.8089 44.0565 44.786C44.0565 43.115 42.6967 41.7551 41.0256 41.7551H27.8897L24.65 43.3098L22.9294 41.5892L18 46.5187L30.5114 59.03L35.4413 54.1006L34.8867 53.5461H43.9893L58.4459 39.0895C58.643 38.9049 59.1574 38.3121 59.1574 37.1424ZM42.2837 44.786C42.2837 45.4797 41.7194 46.044 41.0256 46.044C40.3324 46.044 39.7681 45.4797 39.7681 44.786C39.7681 44.0927 40.3324 43.5284 41.0256 43.5284C41.7194 43.5279 42.2837 44.0927 42.2837 44.786ZM32.934 54.1006L30.5118 56.5233L20.5072 46.5187L22.9294 44.0964L22.9561 44.1231L32.3795 53.5461L32.934 54.1006ZM43.2554 51.7732H33.1139L25.979 44.6388L28.2933 43.5284H38.2718C38.0956 43.9119 37.9952 44.337 37.9952 44.786C37.9952 45.2354 38.0961 45.6605 38.2722 46.044H34.2654C33.7758 46.044 33.3788 46.4411 33.3788 46.9307C33.3788 47.4203 33.7758 47.8173 34.2654 47.8173H43.2315C43.2899 47.8173 43.3479 47.8113 43.4049 47.8001C43.4315 47.7949 43.4562 47.7851 43.4815 47.7772C43.5114 47.7683 43.5413 47.7618 43.5698 47.7496C43.6001 47.737 43.6277 47.7197 43.6567 47.7038C43.6786 47.6917 43.7015 47.6823 43.7225 47.6683C43.7716 47.6356 43.8169 47.5987 43.8585 47.5571L55.3916 36.0231C55.4094 36.0053 55.4224 35.9848 55.4383 35.9661L55.4416 35.9689C55.4416 35.9689 55.4299 35.9876 55.4 36.0133C55.408 36.0067 55.5967 35.8488 56.0905 35.8488C56.8038 35.8488 57.384 36.429 57.384 37.1424C57.384 37.6198 57.2261 37.8034 57.2191 37.8109C57.2448 37.7824 57.263 37.7712 57.263 37.7712L57.2658 37.7749C57.2439 37.7931 57.2201 37.8085 57.1995 37.8291L43.2554 51.7732Z" fill="#7558EA"/>
<path d="M41.2162 40.2176C47.6172 40.2176 52.8251 35.0098 52.8251 28.6088C52.8251 22.2079 47.6177 17 41.2162 17C34.8153 17 29.6074 22.2079 29.6074 28.6088C29.6074 35.0098 34.8153 40.2176 41.2162 40.2176ZM41.2162 18.7729C46.6399 18.7729 51.0522 23.1851 51.0522 28.6088C51.0522 34.0325 46.6399 38.4448 41.2162 38.4448C35.793 38.4448 31.3807 34.0325 31.3807 28.6088C31.3807 23.1851 35.793 18.7729 41.2162 18.7729Z" fill="#7558EA"/>
<path d="M41.2388 31.9677C41.1099 31.9677 39.9784 31.9331 39.9784 30.7405C39.9784 30.2509 39.5813 29.8538 39.0917 29.8538C38.6022 29.8538 38.2051 30.2509 38.2051 30.7405C38.2051 31.6388 38.5512 32.4372 39.1796 32.988C39.508 33.2762 39.9032 33.4766 40.3292 33.6004V34.6716C40.3292 35.1612 40.7263 35.5582 41.2159 35.5582C41.7055 35.5582 42.1026 35.1612 42.1026 34.6716V33.6209C43.2546 33.2991 44.2262 32.3237 44.2262 30.7405C44.2262 28.5831 42.5104 27.7703 41.3028 27.7339C41.2738 27.7306 41.2458 27.725 41.2159 27.725C41.0094 27.725 39.9784 27.6652 39.9784 26.4875C39.9784 25.3191 40.9898 25.2598 41.193 25.2598C41.3219 25.2598 42.4534 25.2944 42.4534 26.4875C42.4534 26.9771 42.8505 27.3741 43.3401 27.3741C43.8296 27.3741 44.2267 26.9771 44.2267 26.4875C44.2267 24.9421 43.2429 23.9634 42.103 23.6233V22.5461C42.103 22.0565 41.7059 21.6594 41.2164 21.6594C40.7268 21.6594 40.3297 22.0565 40.3297 22.5461V23.607C39.1777 23.9289 38.206 24.9043 38.206 26.4879C38.206 28.6453 39.9219 29.4581 41.1295 29.4946C41.1584 29.4974 41.1865 29.5034 41.2164 29.5034C41.4228 29.5034 42.4539 29.5632 42.4539 30.7409C42.4539 31.1441 42.3329 31.4561 42.0951 31.6687C41.8811 31.8588 41.5691 31.9677 41.2388 31.9677Z" fill="#7558EA"/>
</svg>
