<svg width="77" height="77" viewBox="0 0 77 77" fill="none" xmlns="http://www.w3.org/2000/svg">
<rect opacity="0.1" width="76.6355" height="76.6355" rx="12" fill="#7558EA"/>
<path d="M24 51.6986C24 54.0347 25.8931 55.9278 28.2292 55.9278H48.7708C51.1069 55.9278 53 54.0347 53 51.6986V36.3125C53 33.9764 51.1069 32.0833 48.7708 32.0833H48.5694V25.0347C48.5694 22.2556 46.3139 20 43.5347 20H33.4653C30.6861 20 28.4306 22.2556 28.4306 25.0347C28.4306 25.5986 28.8736 26.0417 29.4375 26.0417C30.0014 26.0417 30.4444 25.5986 30.4444 25.0347C30.4444 23.3833 31.8139 22.0139 33.4653 22.0139H43.5347C45.1861 22.0139 46.5556 23.3833 46.5556 25.0347V32.0833H28.2292C25.8931 32.0833 24 33.9764 24 36.3125V51.6986ZM26.0139 36.3125C26.0139 35.1042 27.0208 34.0972 28.2292 34.0972H48.7708C49.9792 34.0972 50.9861 35.1042 50.9861 36.3125V51.6986C50.9861 52.9069 49.9792 53.9139 48.7708 53.9139H28.2292C27.0208 53.9139 26.0139 52.9069 26.0139 51.6986V36.3125Z" fill="#7558EA"/>
<path d="M38.4991 49C39.063 49 39.5061 48.557 39.5061 47.9931V43.5625C39.5061 42.9986 39.063 42.5556 38.4991 42.5556C37.9352 42.5556 37.4922 42.9986 37.4922 43.5625V47.9931C37.4922 48.557 37.9352 49 38.4991 49Z" fill="#7558EA"/>
</svg>
