<svg width="77" height="77" viewBox="0 0 77 77" fill="none" xmlns="http://www.w3.org/2000/svg">
<rect opacity="0.1" width="76.6355" height="76.6355" rx="12" fill="#43B0FF"/>
<path d="M54.8343 38.1177V24.4804C54.8343 22.0099 52.8371 20 50.3823 20H21.452C18.9972 20 17 22.0099 17 24.4804V48.2802C17 50.7507 18.9972 52.7606 21.452 52.7606H38.6579C40.5207 56.4558 44.3256 59 48.7171 59C54.9385 59 60 53.9062 60 47.6452C60 43.6537 57.9383 40.1431 54.8343 38.1177ZM21.452 50.7317C20.1087 50.7317 19.016 49.6321 19.016 48.2802V24.4804C19.016 23.1285 20.1087 22.0289 21.452 22.0289H50.3823C51.7256 22.0289 52.8183 23.1285 52.8183 24.4804V37.0782C51.5449 36.5757 50.1653 36.2904 48.7171 36.2904C48.0525 36.2904 47.4047 36.36 46.771 36.4716L43.4849 33.7834C43.4802 33.78 43.4755 33.778 43.4708 33.7739C43.4426 33.7516 43.4123 33.734 43.3821 33.7151C43.3545 33.6975 43.3283 33.6785 43.2994 33.6643C43.2779 33.6535 43.2551 33.6468 43.2322 33.6373C43.1933 33.6211 43.1549 33.6041 43.1146 33.5927C43.0998 33.5886 43.0837 33.5879 43.0683 33.5839C43.0212 33.573 42.9728 33.5629 42.9251 33.5595C42.9063 33.5582 42.8861 33.5602 42.8673 33.5595C42.823 33.5588 42.778 33.5575 42.7336 33.5629C42.7094 33.5656 42.6859 33.573 42.6617 33.5771C42.6214 33.5845 42.5817 33.5913 42.5428 33.6041C42.5206 33.6116 42.4991 33.6224 42.4762 33.6319C42.4359 33.6474 42.3969 33.6637 42.3586 33.6846C42.3546 33.6873 42.3499 33.688 42.3459 33.6907L37.7816 36.3303L32.3559 31.2426C32.3505 31.2372 32.3425 31.2358 32.3371 31.2311C32.2457 31.1486 32.1435 31.087 32.034 31.0437C32.0206 31.0383 32.0078 31.0329 31.9944 31.0282C31.8848 30.9903 31.7719 30.9727 31.657 30.9741C31.6422 30.9741 31.6274 30.9741 31.6127 30.9748C31.5004 30.9808 31.3896 31.0072 31.2834 31.0518C31.2679 31.0579 31.2531 31.064 31.2377 31.0715C31.1597 31.1087 31.0845 31.1533 31.0153 31.2121L20.741 40.0045C20.317 40.367 20.2653 41.0074 20.6261 41.4342C20.825 41.6702 21.1093 41.7913 21.3942 41.7913C21.6254 41.7913 21.8572 41.7121 22.0467 41.5498L31.6395 33.3417L39.6767 40.8796C38.2749 42.7719 37.4335 45.1091 37.4335 47.6452C37.4335 48.7164 37.5915 49.7484 37.8683 50.7317H21.452ZM41.02 39.3661L39.3259 37.7775L42.7511 35.7973L44.4102 37.154C43.1462 37.6821 42.0045 38.4389 41.02 39.3661ZM48.7171 56.9711C43.6072 56.9711 39.4502 52.787 39.4502 47.6452C39.4502 42.5034 43.6079 38.3192 48.7171 38.3192C53.8263 38.3192 57.984 42.5034 57.984 47.6452C57.984 52.787 53.827 56.9711 48.7171 56.9711Z" fill="#43B0FF"/>
<path d="M24.6373 31.6767C26.9812 31.6767 28.8884 29.7574 28.8884 27.3986C28.8884 25.0397 26.9812 23.1204 24.6373 23.1204C22.2934 23.1204 20.3862 25.0397 20.3862 27.3986C20.3862 29.7574 22.2934 31.6767 24.6373 31.6767ZM24.6373 25.1486C25.8697 25.1486 26.8724 26.1576 26.8724 27.3979C26.8724 28.6382 25.8697 29.6472 24.6373 29.6472C23.4048 29.6472 22.4022 28.6382 22.4022 27.3979C22.4022 26.1576 23.4048 25.1486 24.6373 25.1486Z" fill="#43B0FF"/>
<path d="M54.8908 42.3553C54.4473 42.0185 53.8149 42.1078 53.4789 42.5541L47.4672 50.5708L43.8733 46.8532C43.4856 46.4509 42.8465 46.4441 42.448 46.8336C42.0488 47.2245 42.0401 47.8663 42.4285 48.268L46.8409 52.833C46.8476 52.8397 46.8557 52.8418 46.8617 52.8472C46.8926 52.8769 46.9215 52.9087 46.9565 52.9351C47.0028 52.9709 47.0559 52.9878 47.107 53.0142C47.1426 53.0325 47.1749 53.0561 47.2118 53.0697C47.3261 53.1123 47.4443 53.14 47.5626 53.14H47.5639C47.6782 53.1393 47.7897 53.1143 47.8973 53.0757C47.9174 53.0683 47.9376 53.0622 47.9577 53.0541C48.0606 53.0101 48.156 52.9479 48.242 52.8688C48.2494 52.862 48.2588 52.86 48.2662 52.8532C48.2763 52.8431 48.2796 52.8303 48.289 52.8194C48.3152 52.7917 48.3441 52.768 48.3677 52.7369L55.0877 43.7762C55.4237 43.3285 55.335 42.6927 54.8908 42.3553Z" fill="#43B0FF"/>
</svg>
