<svg width="26" height="26" viewBox="0 0 26 26" fill="none" xmlns="http://www.w3.org/2000/svg">
<g clip-path="url(#clip0_651_1785)">
<path d="M23.7731 7.55097L21.0799 3.5995C20.8249 3.22565 20.3919 3 19.9279 3H6.07096C5.60739 3.00084 5.17438 3.22608 4.91902 3.5995L2.22577 7.55097C2.07037 7.77915 1.9918 8.04817 2.00096 8.32098C2.01013 8.59378 2.10573 8.85733 2.27553 9.07582L11.897 21.4674C12.1568 21.8026 12.5653 22.0004 12.9992 22.0004C13.4331 22.0004 13.8417 21.803 14.1018 21.4674L23.726 9.07582C23.8953 8.85691 23.9909 8.59336 23.9992 8.32056C24.0075 8.04775 23.9285 7.77915 23.7727 7.55097H23.7731ZM13.0315 4.3274L15.6458 7.83851H10.3527L12.9674 4.3274H13.0315ZM15.9395 8.72345L12.9992 19.0071L10.0615 8.72345H15.9395ZM14.1612 4.3274H18.9191L16.5389 7.52235L14.1612 4.3274ZM6.07096 4.3274H11.8377L9.45739 7.52235L7.87156 5.39337C7.80084 5.29696 7.69346 5.23212 7.57299 5.21276C7.45251 5.19339 7.32898 5.22118 7.22946 5.2898C7.13037 5.35842 7.06358 5.46283 7.04438 5.57903C7.02473 5.69564 7.05442 5.81436 7.12688 5.90993L8.56255 7.83894H3.67846L6.07096 4.3274ZM3.72037 8.72345H9.1095L12.2471 19.7043L3.72037 8.72345ZM13.7539 19.7043L16.8916 8.72345H17.861C18.1142 8.72345 18.3198 8.52558 18.3198 8.28098C18.3198 8.03638 18.1142 7.83851 17.861 7.83851H17.4368L19.9873 4.41286L22.323 7.83851H20.7293C20.4762 7.83851 20.2706 8.0368 20.2706 8.28098C20.2706 8.52516 20.4757 8.72345 20.7293 8.72345H22.2781L13.7539 19.7043Z" fill="white"/>
</g>
<defs>
<clipPath id="clip0_651_1785">
<rect width="22" height="19" fill="white" transform="translate(2 3)"/>
</clipPath>
</defs>
</svg>
