<svg width="77" height="77" viewBox="0 0 77 77" fill="none" xmlns="http://www.w3.org/2000/svg">
<rect opacity="0.1" y="-0.000183105" width="76.6355" height="76.6355" rx="12" fill="#43B0FF"/>
<path d="M29.0937 40.6793C29.0937 41.2824 28.6035 41.7726 28.0005 41.7726C27.3974 41.7726 26.9072 41.2824 26.9072 40.6793C26.9072 36.332 28.5049 32.3577 31.1445 29.3109L29.411 27.5774C28.9837 27.1516 28.9837 26.4584 29.411 26.0326C29.8369 25.6053 30.53 25.6053 30.9558 26.0326L32.6765 27.7532C35.7519 24.9922 39.8176 23.3116 44.2764 23.3116C49.0725 23.3116 53.414 25.2551 56.558 28.3991C59.7006 31.5417 61.6442 35.8847 61.6442 40.6808C61.6442 45.4768 59.7006 49.8184 56.558 52.9624C53.414 56.1064 49.0725 58.05 44.2764 58.05H28.0005C27.3974 58.05 26.9072 57.5598 26.9072 56.9567C26.9072 56.3536 27.3974 55.8635 28.0005 55.8635H44.2764C48.4694 55.8635 52.2651 54.1643 55.0118 51.4176C57.7585 48.6708 59.4577 44.8752 59.4577 40.6822C59.4577 36.4892 57.7585 32.6936 55.0118 29.9469C52.2651 27.2001 48.4694 25.5009 44.2764 25.5009C40.0849 25.5009 36.2878 27.2001 33.5411 29.9469C30.7943 32.6936 29.0952 36.4892 29.0952 40.6822L29.0937 40.6793ZM45.0496 41.4525C44.6223 41.8784 43.9306 41.8784 43.5033 41.4525C43.0774 41.0252 43.0774 40.3335 43.5033 39.9062L49.7913 33.6182C50.2186 33.1923 50.9103 33.1923 51.3376 33.6182C51.7634 34.0455 51.7634 34.7372 51.3376 35.1645L45.0496 41.4525ZM38.3228 45.181C38.9259 45.181 39.4161 45.6712 39.4161 46.2743C39.4161 46.8773 38.9259 47.3675 38.3228 47.3675H16.0933C15.4902 47.3675 15 46.8773 15 46.2743C15 45.6697 15.4902 45.181 16.0933 45.181H38.3228ZM38.3228 50.5215C38.9259 50.5215 39.4161 51.0117 39.4161 51.6148C39.4161 52.2178 38.9259 52.708 38.3228 52.708H22.0469C21.4438 52.708 20.9536 52.2178 20.9536 51.6148C20.9536 51.0117 21.4438 50.5215 22.0469 50.5215H38.3228ZM41.514 21.1865C40.9109 21.1865 40.4207 20.6963 40.4207 20.0933C40.4207 19.4902 40.9109 19 41.514 19H47.0403C47.6434 19 48.1335 19.4902 48.1335 20.0933C48.1335 20.6963 47.6434 21.1865 47.0403 21.1865H41.514Z" fill="#43B0FF"/>
</svg>
