<svg width="44" height="43" viewBox="0 0 44 43" fill="none" xmlns="http://www.w3.org/2000/svg">
<g clip-path="url(#clip0_285_2355)">
<path d="M12.7058 14.0035C13.9769 14.0068 15.198 13.5017 16.1008 12.5987C17.0036 11.6956 17.5138 10.4685 17.5193 9.1878C17.5249 7.90705 17.0258 6.67548 16.1307 5.76465C15.2368 4.85383 14.0201 4.3375 12.748 4.32968C11.477 4.32186 10.2536 4.82253 9.3475 5.72218C8.44137 6.62184 7.92786 7.8467 7.91676 9.12857C7.91344 10.4138 8.41475 11.6487 9.31201 12.5618C10.2093 13.476 11.4293 13.9945 12.7047 14.0046L12.7058 14.0035ZM12.7058 6.93588C13.2937 6.93252 13.8593 7.16498 14.2774 7.58295C14.6956 8.00093 14.9307 8.56866 14.9318 9.16098C14.9318 9.75329 14.7 10.3233 14.2841 10.7424C13.8682 11.1614 13.3036 11.3961 12.7158 11.395C12.128 11.3939 11.5635 11.157 11.1498 10.7356C10.7361 10.3143 10.5043 9.74547 10.5076 9.15204C10.5109 8.56531 10.7438 8.00316 11.1553 7.58854C11.5668 7.17392 12.1247 6.93923 12.7069 6.93588H12.7058Z" fill="#757183"/>
<path d="M34.677 27.9285C34.4386 27.5898 34.0537 27.3864 33.6422 27.3809C33.284 27.382 32.9413 27.5328 32.6973 27.7977L28.4661 31.9831C28.201 32.23 28.0502 32.5776 28.0502 32.9408C28.0502 33.304 28.201 33.6527 28.4661 33.8997C28.709 34.1467 29.0406 34.2853 29.3855 34.2853C29.7305 34.2853 30.061 34.1467 30.3039 33.8997L32.3479 31.84V36.5081C32.3479 36.8535 32.4843 37.1854 32.7272 37.4301C32.9701 37.6749 33.2995 37.8123 33.6422 37.8123C33.9849 37.8123 34.3143 37.6749 34.5572 37.4301C34.8001 37.1854 34.9365 36.8535 34.9365 36.5081V31.8791L36.8641 33.8215C37.3688 34.3266 38.184 34.3266 38.6886 33.8215C38.9337 33.5767 39.0712 33.2437 39.0712 32.8961C39.0712 32.5485 38.9337 32.2155 38.6886 31.9696L34.677 27.9285Z" fill="#757183"/>
<path d="M26.3055 25.2033C24.6862 26.8495 23.657 28.9908 23.3808 31.2919H4.67151C4.11696 31.2852 3.58681 31.0583 3.19641 30.6605C2.80601 30.2626 2.58752 29.7262 2.58752 29.1663V28.8533L10.8037 20.6648C11.417 20.0636 12.2244 19.7071 13.0784 19.659C13.9324 19.611 14.7742 19.8758 15.4497 20.4033L17.5337 22.463L17.6889 22.5938C18.1093 22.8978 18.6139 23.062 19.1319 23.062C19.6498 23.062 20.1534 22.8989 20.5748 22.5938L27.2904 15.9442C28.1011 15.1149 29.1226 14.526 30.2439 14.2432C31.3652 13.9605 32.5408 13.994 33.6444 14.3404C34.3387 14.5718 34.9875 14.9249 35.5598 15.3831L36.2585 16.0738V16.9478C36.2585 17.6675 36.8375 18.252 37.5528 18.252C38.2682 18.252 38.846 17.6675 38.846 16.9478V4.70691C38.8427 3.45075 38.3425 2.24712 37.4563 1.36423C36.5668 0.480223 35.3679 -0.0103948 34.1213 -0.000336626H4.67151C3.43376 0.00636885 2.25035 0.504809 1.37528 1.38658C0.501311 2.26723 0.00665457 3.46081 0 4.70691V29.1674C0 30.4179 0.491329 31.6182 1.3664 32.5045C2.24148 33.3918 3.42932 33.8936 4.67151 33.9003H23.3819C23.7823 37.0407 25.5779 39.828 28.2619 41.4764C30.946 43.1248 34.2267 43.4545 37.1802 42.3749C40.1348 41.2954 42.4417 38.9205 43.451 35.922C44.4614 32.9236 44.0643 29.6245 42.373 26.9557C40.6816 24.2869 37.8789 22.5368 34.7535 22.1993C31.6292 21.8606 28.5215 22.9715 26.3066 25.2179V25.2044L26.3055 25.2033ZM4.6704 2.60809H34.1202C34.6758 2.60474 35.2104 2.82379 35.6064 3.21718C36.0023 3.61056 36.2264 4.147 36.2297 4.70691V12.7647C35.6596 12.4026 35.0474 12.1131 34.4052 11.9041C32.8658 11.4034 31.221 11.3375 29.6472 11.7119C28.0734 12.0863 26.6316 12.8876 25.477 14.0286L19.0975 20.3519L18.4897 19.7518L17.5326 18.813C16.3824 17.6954 14.8474 17.0718 13.2492 17.0718C11.651 17.0718 10.1161 17.6954 8.96592 18.813L2.58641 25.1888V4.70691C2.58974 4.15147 2.81045 3.6195 3.20085 3.22612C3.59125 2.83273 4.11918 2.61145 4.6704 2.60698V2.60809ZM39.1155 38.1114C37.6593 39.5776 35.684 40.4002 33.6255 40.3991C31.567 40.3991 29.5929 39.5743 28.1377 38.1069C26.6826 36.6406 25.8641 34.6502 25.8641 32.576C25.8641 30.5018 26.6815 28.5125 28.1377 27.0451C29.5929 25.5788 31.567 24.7541 33.6255 24.7529C35.684 24.7529 37.6582 25.5755 39.1155 27.0417C40.5729 28.5091 41.3925 30.5006 41.3925 32.576C41.3925 34.6513 40.574 36.6429 39.1155 38.1114Z" fill="#757183"/>
</g>
<defs>
<clipPath id="clip0_285_2355">
<rect width="44" height="43" fill="white"/>
</clipPath>
</defs>
</svg>
