<svg width="11" height="13" viewBox="0 0 11 13" fill="none" xmlns="http://www.w3.org/2000/svg">
<path fill-rule="evenodd" clip-rule="evenodd" d="M5.86879 1.29183V9.83772C5.86879 10.0559 5.70386 10.2338 5.50101 10.2338C5.29815 10.2338 5.13322 10.0562 5.13322 9.83772V1.29183L3.08051 3.50264C2.93684 3.65735 2.70352 3.65735 2.55957 3.50264C2.4159 3.34793 2.41102 3.08895 2.56417 2.93671L5.51537 0H5.63806L5.66622 0.0303232L5.68978 0.0556957C5.72283 0.0912791 5.75587 0.126862 5.78891 0.162446C5.89724 0.279097 6.00585 0.393274 6.11647 0.507759C6.43225 0.840386 6.75292 1.17023 7.071 1.50007C7.35144 1.79185 7.63187 2.08147 7.91001 2.37326C8.09161 2.56107 8.27291 2.74889 8.44991 2.93919C8.59358 3.0939 8.59358 3.34515 8.44991 3.50017C8.30625 3.65488 8.07293 3.65488 7.92898 3.50017L5.87598 1.28967L5.86879 1.29183ZM0.737873 12.2057H10.2644V6.37809C10.2644 6.15995 10.4294 5.98203 10.6322 5.98203C10.8351 5.98203 11 6.15964 11 6.37809V12.6039C11 12.8221 10.8351 13 10.6322 13H0.367787C0.165217 13 0 12.8224 0 12.6039V6.37809C0 6.15995 0.16493 5.98203 0.367787 5.98203C0.570645 5.98203 0.735575 6.15964 0.735575 6.37809V12.2057H0.737873Z" fill="white"/>
</svg>
